<svg width="20" height="20" viewBox="0 0 20 20" fill="none" xmlns="http://www.w3.org/2000/svg">
<path d="M12.65 20H3.35999C2.34955 19.9639 1.40833 19.4774 0.794581 18.6739C0.18083 17.8704 -0.0409867 16.8344 0.189993 15.85L0.419993 14.71C0.696028 13.1668 2.02261 12.0327 3.58999 12H12.41C13.9797 12.0319 15.3096 13.1652 15.59 14.71L15.82 15.85C16.0472 16.834 15.8239 17.8679 15.2109 18.6704C14.5979 19.4729 13.659 19.9604 12.65 20Z" fill="white"/>
<path d="M8.49999 10H7.49999C5.29085 10 3.49999 8.20915 3.49999 6.00001V3.36001C3.49999 1.50434 5.00431 1.49917e-05 6.85999 1.49917e-05H9.13999C10.0319 -0.00265152 10.8881 0.350491 11.5188 0.981192C12.1495 1.61189 12.5027 2.46807 12.5 3.36001V6.00001C12.5 8.20915 10.7091 10 8.49999 10Z" fill="white"/>
<path d="M19 4.25002H17.63V2.88002C17.63 2.4658 17.2942 2.13002 16.88 2.13002C16.4658 2.13002 16.13 2.4658 16.13 2.88002V4.25002H14.77C14.3558 4.25002 14.02 4.5858 14.02 5.00002C14.02 5.41423 14.3558 5.75002 14.77 5.75002H16.13V7.12002C16.13 7.53423 16.4658 7.87002 16.88 7.87002C17.2942 7.87002 17.63 7.53423 17.63 7.12002V5.75002H19C19.4142 5.75002 19.75 5.41423 19.75 5.00002C19.75 4.5858 19.4142 4.25002 19 4.25002Z" fill="white"/>
</svg>
