<svg width="1440" height="215" viewBox="0 0 1440 215" fill="none" xmlns="http://www.w3.org/2000/svg">
<mask id="mask0_1_315" style="mask-type:alpha" maskUnits="userSpaceOnUse" x="0" y="0" width="1440" height="215">
<rect width="1440" height="215" fill="#004195"/>
</mask>
<g mask="url(#mask0_1_315)">
<rect width="1440" height="215" fill="#004195"/>
<path d="M19.0409 -116.332C-94.6259 -58.7715 -28.9324 57.7153 18.1227 108.764C159.7 227.745 203.264 82.4883 142.214 -12.8183C81.1633 -108.125 292.756 -65.064 282.347 -205.64C270.276 -368.644 161.124 -188.283 19.0409 -116.332Z" stroke="#4082D8"/>
<path opacity="0.95875" d="M23.3296 -112.067C-92.2768 -58.508 -30.6887 60.2005 14.5562 112.86C151.895 236.71 200.502 93.0619 142.815 -4.31727C85.1278 -101.696 295.089 -51.2773 289.592 -192.131C283.218 -355.457 167.838 -179.015 23.3296 -112.067Z" stroke="#4082D8"/>
<path opacity="0.9175" d="M27.467 -107.654C-89.9382 -58.1627 -32.5304 62.6229 10.8491 116.829C143.782 245.397 197.372 103.533 143.119 4.19961C88.8656 -95.1335 296.939 -37.4175 296.361 -178.377C295.691 -341.826 174.223 -169.519 27.467 -107.654Z" stroke="#4082D8"/>
<path opacity="0.87625" d="M31.4478 -103.1C-87.613 -57.7359 -34.4556 64.9795 7.00569 120.667C135.371 253.795 193.879 113.888 143.126 12.7219C92.372 -88.4441 298.305 -23.5016 302.647 -164.396C307.681 -327.768 180.274 -159.805 31.4478 -103.1Z" stroke="#4082D8"/>
<path opacity="0.835" d="M35.2673 -98.4096C-85.3042 -57.2283 -36.4619 67.2676 3.0307 124.368C126.672 261.895 190.027 124.115 142.835 21.2393C95.6429 -81.6364 299.184 -9.54645 308.44 -150.203C319.173 -313.301 185.982 -149.886 35.2673 -98.4096Z" stroke="#4082D8"/>
<path opacity="0.79375" d="M38.9208 -93.5888C-83.0145 -56.6405 -38.5468 69.4842 -1.07102 127.928C117.695 269.687 185.82 134.201 142.247 29.7413C98.6742 -74.7187 299.575 4.43083 313.735 -135.817C330.153 -298.441 191.34 -139.774 38.9208 -93.5888Z" stroke="#4082D8"/>
<path opacity="0.7525" d="M42.4037 -88.6434C-80.7467 -55.973 -40.7078 71.6267 -5.29449 131.343C108.452 277.16 181.264 144.135 141.363 38.2176C101.462 -67.6994 299.479 18.4132 318.524 -121.255C340.608 -283.207 196.342 -129.481 42.4037 -88.6434Z" stroke="#4082D8"/>
<path opacity="0.71125" d="M45.712 -83.5794C-78.5036 -55.2269 -42.9422 73.6925 -9.63457 134.608C98.9535 284.306 176.364 153.903 140.184 46.6579C104.004 -60.5871 298.894 32.3838 322.802 -106.535C350.524 -267.617 200.982 -119.02 45.712 -83.5794Z" stroke="#4082D8"/>
<path opacity="0.67" d="M48.8415 -78.4031C-76.2879 -54.4029 -45.2474 75.679 -14.086 137.72C89.2116 291.116 171.126 163.494 138.71 55.0519C106.295 -53.3904 297.822 46.3254 326.564 -91.6744C359.891 -251.691 205.253 -108.403 48.8415 -78.4031Z" stroke="#4082D8"/>
<path opacity="0.62875" d="M51.7885 -73.1206C-74.1023 -53.502 -47.6205 77.5839 -18.6432 140.675C79.2379 297.583 165.556 172.897 136.945 63.3895C108.334 -46.1181 296.265 60.2212 329.805 -76.6915C368.696 -235.447 209.152 -97.6439 51.7885 -73.1206Z" stroke="#4082D8"/>
<path opacity="0.5875" d="M54.5493 -67.7386C-71.9495 -52.5254 -50.0586 79.4048 -23.3009 143.468C69.0447 303.697 159.662 182.1 134.89 71.6603C110.118 -38.7791 294.223 74.0541 332.521 -61.6047C376.929 -218.906 212.673 -86.7551 54.5493 -67.7386Z" stroke="#4082D8"/>
<path opacity="0.54625" d="M57.1198 -62.2635C-69.8329 -51.4744 -52.5597 81.1395 -28.054 146.098C58.6434 309.452 153.449 191.091 132.546 79.8543C111.644 -31.3823 291.699 87.8073 334.708 -46.4323C384.579 -202.088 215.811 -75.75 57.1198 -62.2635Z" stroke="#4082D8"/>
<path opacity="0.505" d="M59.4985 -56.702C-67.7534 -50.35 -55.1189 82.7859 -32.8951 148.56C48.0484 314.84 146.927 199.86 129.919 87.9615C112.912 -23.9368 288.697 101.464 336.365 -31.1927C391.638 -185.014 218.563 -64.642 59.4985 -56.702Z" stroke="#4082D8"/>
<path opacity="0.46375" d="M61.6824 -51.0609C-65.7136 -49.1538 -57.7332 84.342 -37.8184 150.851C37.2728 319.855 140.104 208.396 127.012 95.9722C113.92 -16.4515 285.222 115.008 337.49 -15.9046C398.098 -167.703 220.928 -53.4447 61.6824 -51.0609Z" stroke="#4082D8"/>
<path opacity="0.4225" d="M63.6665 -45.347C-63.7185 -47.8871 -60.4018 85.8058 -42.8204 152.97C26.3269 324.491 132.985 216.689 123.825 103.876C114.664 -8.93564 281.274 128.422 338.079 -0.586598C403.947 -150.177 222.898 -42.1719 63.6665 -45.347Z" stroke="#4082D8"/>
<path opacity="0.38125" d="M65.4517 -39.5673C-61.7671 -46.5516 -63.1183 87.1757 -47.8915 154.912C15.2277 328.742 125.583 224.728 120.365 111.665C115.148 -1.39833 276.862 141.69 338.135 14.7427C409.184 -132.458 224.475 -30.837 65.4517 -39.5673Z" stroke="#4082D8"/>
<path opacity="0.34" d="M67.0323 -33.7289C-59.8652 -45.1488 -65.8826 88.4499 -53.0291 156.677C3.98508 332.604 117.903 232.504 116.635 119.327C115.366 6.15118 271.988 154.796 337.654 30.0645C413.797 -114.567 225.654 -19.4541 67.0323 -33.7289Z" stroke="#4082D8"/>
<path opacity="0.29875" d="M68.4091 -27.8389C-58.0126 -43.6804 -68.6888 89.6268 -58.2242 158.261C-7.38454 336.07 109.958 240.007 112.64 126.855C115.321 13.7038 266.661 167.724 336.64 45.3603C417.784 -96.5256 226.436 -8.03691 68.4091 -27.8389Z" stroke="#4082D8"/>
<path opacity="0.2575" d="M69.5795 -21.9043C-56.2123 -42.1483 -71.5344 90.7051 -63.4714 159.662C-18.8682 339.138 101.755 247.228 108.384 134.239C115.013 21.2502 260.885 180.459 335.092 60.6114C421.138 -78.3563 226.819 3.40062 69.5795 -21.9043Z" stroke="#4082D8"/>
<path opacity="0.21625" d="M70.5429 -15.9326C-54.4658 -40.5543 -74.415 91.6835 -68.7636 160.88C-30.4511 341.803 93.3063 254.159 103.875 141.47C114.443 28.7813 254.67 192.984 333.014 75.7991C423.858 -60.0809 226.804 14.8446 70.5429 -15.9326Z" stroke="#4082D8"/>
<path opacity="0.175" d="M71.2956 -9.93087C-52.7776 -38.9003 -77.3298 92.5607 -74.0967 161.912C-42.1217 344.062 84.6191 260.791 99.1138 148.539C113.609 36.2878 248.019 205.284 330.406 90.9051C425.936 -41.7218 226.387 26.2809 71.2956 -9.93087Z" stroke="#4082D8"/>
<path opacity="0.13375" d="M71.8392 -3.90652C-51.1474 -37.1884 -80.2725 93.3357 -79.4617 162.758C-53.8631 345.913 75.7066 267.115 94.11 155.438C112.513 43.7607 240.944 217.345 327.272 105.911C427.373 -23.3013 225.573 37.6958 71.8392 -3.90652Z" stroke="#4082D8"/>
<path opacity="0.0925" d="M72.1723 2.13313C-49.5779 -35.4207 -83.2404 94.0074 -84.853 163.416C-65.662 347.352 66.5788 273.125 88.8685 162.158C111.158 51.1909 233.453 229.151 323.617 120.798C428.166 -4.84188 224.36 49.0754 72.1723 2.13313Z" stroke="#4082D8"/>
<path opacity="0.05125" d="M72.2944 8.18073C-48.071 -33.5992 -86.2301 94.5753 -90.2639 163.885C-77.5039 348.379 57.2468 278.812 83.3956 168.691C109.544 58.5692 225.554 240.689 319.445 135.549C428.315 13.634 222.751 60.4056 72.2944 8.18073Z" stroke="#4082D8"/>
<path opacity="0.01" d="M72.2053 14.2289C-46.6286 -31.7263 -89.2377 95.0384 -95.6879 164.165C-89.3744 348.992 47.722 284.17 77.6981 175.028C107.674 65.8867 217.257 251.944 314.76 150.145C427.819 32.1038 220.748 71.6729 72.2053 14.2289Z" stroke="#4082D8"/>
<path d="M1497.68 99.4308C1463.21 -16.4102 1446.2 -158.113 1305.61 -149.481C994.639 -130.389 1037.1 162.693 1129.03 136.999C1299.9 89.2472 1224.66 152.17 1362.86 262.534C1501.06 372.898 1540.77 244.232 1497.68 99.4308Z" stroke="#0053BD"/>
<path d="M1488.48 100.251C1456.56 -13.5622 1442.11 -152.396 1304.49 -146.122C1000.09 -132.244 1037.1 155.017 1127.4 131.308C1295.22 87.2441 1220.67 147.617 1354.12 257.673C1487.57 367.728 1528.38 242.517 1488.48 100.251Z" stroke="#0053BD"/>
<path d="M1479.46 100.947C1450.01 -10.787 1438.03 -146.708 1303.42 -142.695C1005.68 -133.818 1037.43 147.524 1126.05 125.741C1290.77 85.2574 1216.97 143.118 1345.71 252.744C1474.45 362.369 1516.27 240.614 1479.46 100.947Z" stroke="#0053BD"/>
<path d="M1470.63 101.524C1443.58 -8.08159 1433.96 -141.047 1302.4 -139.198C1011.41 -135.111 1038.09 140.22 1125 120.305C1286.53 83.2924 1213.55 138.681 1337.63 247.755C1461.7 356.829 1504.44 238.532 1470.63 101.524Z" stroke="#0053BD"/>
<path d="M1461.98 101.987C1437.26 -5.44367 1429.92 -135.413 1301.44 -135.633C1017.26 -136.119 1039.07 133.113 1124.23 115.006C1282.52 81.3536 1210.41 134.309 1329.87 242.714C1449.34 351.118 1492.88 236.275 1461.98 101.987Z" stroke="#0053BD"/>
<path d="M1453.53 102.339C1431.06 -2.87026 1425.89 -129.806 1300.52 -131.996C1023.23 -136.84 1040.37 126.209 1123.75 109.85C1278.72 79.4461 1207.55 130.011 1322.45 237.628C1437.36 345.245 1481.62 233.852 1453.53 102.339Z" stroke="#0053BD"/>
<path d="M1445.26 102.587C1424.96 -0.357913 1421.88 -124.224 1299.65 -128.287C1029.31 -137.272 1041.98 119.516 1123.55 104.844C1275.14 77.5757 1204.96 125.792 1315.36 232.506C1425.76 339.219 1470.63 231.269 1445.26 102.587Z" stroke="#0053BD"/>
<path d="M1437.19 102.734C1418.99 2.09503 1417.89 -118.669 1298.83 -124.505C1035.5 -137.414 1043.91 113.038 1123.63 99.9924C1271.78 75.7459 1202.64 121.659 1308.6 227.354C1414.55 333.049 1459.94 228.533 1437.19 102.734Z" stroke="#0053BD"/>
<path d="M1429.32 102.785C1413.14 4.49198 1413.91 -113.138 1298.05 -120.65C1041.78 -137.263 1046.13 106.785 1123.97 95.3024C1268.64 73.9622 1200.59 117.616 1302.16 222.18C1403.73 326.744 1449.54 225.651 1429.32 102.785Z" stroke="#0053BD"/>
<path d="M1421.64 102.745C1407.4 6.83573 1409.96 -107.633 1297.31 -116.72C1048.16 -136.819 1048.65 100.76 1124.58 90.7794C1265.7 72.2294 1198.81 113.671 1296.06 216.992C1393.3 320.314 1439.44 222.631 1421.64 102.745Z" stroke="#0053BD"/>
<path d="M1414.16 102.618C1401.78 9.12943 1406.02 -102.151 1296.62 -112.714C1054.62 -136.079 1051.46 94.9723 1125.45 86.4296C1262.98 70.5527 1197.29 109.829 1290.28 211.798C1383.27 313.768 1429.63 219.48 1414.16 102.618Z" stroke="#0053BD"/>
<path d="M1406.88 102.41C1396.28 11.3755 1402.11 -96.6929 1295.96 -108.633C1061.16 -135.042 1054.55 89.4261 1126.58 82.2582C1260.46 68.9362 1196.03 106.095 1284.83 206.605C1373.63 307.115 1420.12 216.203 1406.88 102.41Z" stroke="#0053BD"/>
<path d="M1399.8 102.125C1390.91 13.5769 1398.22 -91.2579 1295.34 -104.475C1067.78 -133.708 1057.92 84.1278 1127.97 78.2706C1258.16 67.3847 1195.03 102.477 1279.71 201.421C1364.39 300.365 1410.92 212.81 1399.8 102.125Z" stroke="#0053BD"/>
<path d="M1392.93 101.767C1385.65 15.7363 1394.35 -85.8458 1294.75 -100.239C1074.45 -132.076 1061.56 79.0831 1129.6 74.4722C1256.06 65.9027 1194.28 98.9784 1274.91 196.253C1355.54 293.527 1402.02 209.306 1392.93 101.767Z" stroke="#0053BD"/>
<path d="M1386.26 101.343C1380.52 17.8573 1390.5 -80.4553 1294.2 -95.9255C1081.19 -130.143 1065.46 74.2982 1131.48 70.8688C1254.16 64.4953 1193.79 95.6062 1270.44 191.108C1347.1 286.61 1393.43 205.7 1386.26 101.343Z" stroke="#0053BD"/>
<path d="M1379.8 100.856C1375.52 19.9424 1386.68 -75.0863 1293.68 -91.533C1087.97 -127.911 1069.63 69.7784 1133.59 67.4655C1252.47 63.1668 1193.54 92.3656 1266.3 185.995C1339.05 279.624 1385.15 201.998 1379.8 100.856Z" stroke="#0053BD"/>
<path d="M1373.54 100.311C1370.63 21.9941 1382.87 -69.7386 1293.18 -87.0618C1094.79 -125.378 1074.04 65.5286 1135.94 64.2666C1250.97 61.9212 1193.54 89.2614 1262.47 180.92C1331.41 272.578 1377.17 198.208 1373.54 100.311Z" stroke="#0053BD"/>
<path d="M1367.49 99.7147C1365.87 24.0163 1379.09 -64.4107 1292.71 -82.5103C1101.65 -122.544 1078.7 61.5551 1138.51 61.2783C1249.67 60.7639 1193.77 86.3 1258.97 175.891C1324.17 265.482 1369.5 194.338 1367.49 99.7147Z" stroke="#0053BD"/>
<path d="M1361.64 99.0702C1361.24 26.0113 1375.34 -59.1026 1292.27 -77.8787C1108.54 -119.409 1083.6 57.8624 1141.31 58.5048C1248.56 59.6987 1194.24 83.4862 1255.79 170.916C1317.33 258.345 1362.15 190.394 1361.64 99.0702Z" stroke="#0053BD"/>
<path d="M1356.01 98.3827C1356.73 27.9819 1371.61 -53.814 1291.86 -73.1668C1115.45 -115.972 1088.72 54.4552 1144.32 55.9506C1247.65 58.7297 1194.95 80.8249 1252.92 166.001C1310.89 251.176 1355.11 186.384 1356.01 98.3827Z" stroke="#0053BD"/>
<path d="M1350.59 97.6579C1352.34 29.9319 1367.9 -48.5433 1291.46 -68.3732C1122.37 -112.234 1094.07 51.3394 1147.55 53.6213C1246.92 57.8622 1195.88 78.3221 1250.37 161.154C1304.86 243.986 1348.39 182.315 1350.59 97.6579Z" stroke="#0053BD"/>
<path d="M1345.37 96.8998C1348.09 31.8631 1364.22 -43.2911 1291.08 -63.4988C1129.31 -108.195 1099.64 48.5184 1150.98 51.5201C1246.39 57.099 1197.04 75.9817 1248.13 156.382C1299.23 236.782 1341.98 178.196 1345.37 96.8998Z" stroke="#0053BD"/>
<path d="M1340.37 96.1141C1343.96 33.7795 1360.57 -38.0558 1290.72 -58.5424C1136.24 -103.856 1105.42 45.9976 1154.61 49.6526C1246.03 56.4455 1198.42 73.8096 1246.21 151.693C1294 229.576 1335.89 174.032 1340.37 96.1141Z" stroke="#0053BD"/>
<path d="M1335.58 95.3055C1339.95 35.6836 1356.94 -32.8372 1290.38 -53.504C1143.16 -99.2159 1111.4 43.7811 1158.44 48.0225C1245.86 55.9052 1200.01 71.8103 1244.59 147.093C1289.17 222.375 1330.11 169.833 1335.58 95.3055Z" stroke="#0053BD"/>
<path d="M1331 94.4784C1336.07 37.578 1353.33 -27.6351 1290.05 -48.3838C1150.08 -94.2768 1117.57 41.8727 1162.45 46.6336C1245.87 55.4819 1201.82 69.988 1243.28 142.589C1284.74 215.189 1324.65 165.604 1331 94.4784Z" stroke="#0053BD"/>
<path d="M1326.62 93.6387C1332.32 39.4664 1349.76 -22.448 1289.73 -43.1808C1156.97 -89.0387 1123.93 40.2771 1166.65 45.4907C1246.04 55.1802 1203.83 68.3484 1242.27 138.189C1280.71 208.029 1319.5 161.354 1326.62 93.6387Z" stroke="#0053BD"/>
<path d="M1322.46 92.7908C1328.69 41.3513 1346.21 -17.2759 1289.43 -37.8955C1163.83 -83.503 1130.47 38.9978 1171.02 44.5971C1246.4 55.0036 1206.05 66.8953 1241.56 133.899C1277.08 200.902 1314.68 157.09 1322.46 92.7908Z" stroke="#0053BD"/>
<path d="M1318.52 91.9396C1325.19 43.2356 1342.68 -12.1182 1289.13 -32.5277C1170.66 -77.6707 1137.18 38.0385 1175.57 43.9566C1246.92 54.9558 1208.46 65.6332 1241.15 129.726C1273.84 193.819 1310.17 152.82 1318.52 91.9396Z" stroke="#0053BD"/>
<path d="M1314.78 91.0909C1321.82 45.1231 1339.19 -6.97318 1288.83 -27.0766C1177.45 -71.5423 1144.06 37.4035 1180.28 43.5738C1247.6 55.0415 1211.07 64.5674 1241.04 125.678C1271 186.788 1305.97 148.551 1314.78 91.0909Z" stroke="#0053BD"/>
<path d="M1311.25 90.2486C1318.57 47.0158 1335.72 -1.84124 1288.54 -21.5429C1184.19 -65.1201 1151.09 37.0954 1185.15 43.4511C1248.45 55.2634 1213.87 63.7012 1241.21 121.76C1268.55 179.82 1302.09 144.29 1311.25 90.2486Z" stroke="#0053BD"/>
<path d="M1307.93 89.4178C1315.45 48.9167 1332.28 3.27824 1288.25 -15.9268C1190.87 -58.4056 1158.26 37.1174 1190.17 43.592C1249.46 55.6252 1216.84 63.0388 1241.67 117.98C1266.5 172.921 1298.53 140.044 1307.93 89.4178Z" stroke="#0053BD"/>
<path d="M1304.82 88.6038C1312.45 50.8293 1328.87 8.38651 1287.97 -10.2278C1197.49 -51.4 1165.58 37.473 1195.33 44.0001C1250.62 56.131 1220 62.5846 1242.42 114.344C1264.83 166.103 1295.28 135.822 1304.82 88.6038Z" stroke="#0053BD"/>
<path d="M1301.92 87.8115C1309.58 52.7562 1325.48 13.4841 1287.68 -4.44611C1204.05 -44.1051 1173.04 38.165 1200.64 44.6784C1251.93 56.784 1223.33 62.3425 1243.44 110.859C1263.55 159.375 1292.35 131.631 1301.92 87.8115Z" stroke="#0053BD"/>
<path d="M1299.23 87.0451C1306.83 54.7 1322.13 18.5712 1287.38 1.41763C1210.53 -36.5235 1180.61 39.1957 1206.07 45.6295C1253.39 57.5872 1226.83 62.3159 1244.75 107.53C1262.66 152.743 1289.73 127.476 1299.23 87.0451Z" stroke="#0053BD"/>
<path d="M1296.74 86.3103C1304.2 56.6643 1318.8 23.6492 1287.08 7.36401C1216.92 -28.6565 1188.3 40.5683 1211.63 46.8569C1255 58.5446 1230.49 62.5092 1246.32 104.364C1262.15 146.22 1287.41 123.368 1296.74 86.3103Z" stroke="#0053BD"/>
<path d="M1294.46 85.6116C1301.7 58.6516 1315.51 28.7184 1286.78 13.3924C1223.23 -20.5066 1196.1 42.2848 1217.32 48.3629C1256.74 59.6591 1234.31 62.9256 1248.16 101.369C1262.01 139.812 1285.41 119.312 1294.46 85.6116Z" stroke="#0053BD"/>
<path d="M1292.39 84.9536C1299.32 60.6646 1312.24 33.7794 1286.46 19.5023C1229.44 -12.0765 1204 44.3474 1223.11 50.1497C1258.63 60.9337 1238.28 63.5684 1250.27 98.5484C1262.25 133.528 1283.72 115.315 1292.39 84.9536Z" stroke="#0053BD"/>
<path d="M1290.51 84.3416C1297.06 62.7066 1309 38.8333 1286.13 25.6941C1235.55 -3.36812 1211.99 46.7584 1229.01 52.2204C1260.64 62.3719 1242.4 64.4416 1252.63 95.9101C1262.87 127.379 1282.33 111.385 1290.51 84.3416Z" stroke="#0053BD"/>
<path d="M1288.85 83.7799C1294.92 64.7801 1305.79 43.8805 1285.79 31.9668C1241.55 5.6155 1220.07 49.5194 1235.01 54.5769C1262.79 63.9763 1246.66 65.548 1255.25 93.4593C1263.85 121.371 1281.25 107.53 1288.85 83.7799Z" stroke="#0053BD"/>
<path d="M1287.38 83.2737C1292.91 66.8882 1302.61 48.9219 1285.43 38.3205C1247.44 14.8719 1228.21 52.6324 1241.1 57.2214C1265.06 65.7502 1251.05 66.891 1258.12 91.2024C1265.2 115.514 1280.47 103.755 1287.38 83.2737Z" stroke="#0053BD"/>
<path d="M1286.11 82.8273C1291.01 69.0336 1299.46 53.958 1285.06 44.7545C1253.21 24.3979 1236.43 56.0986 1247.28 60.1558C1267.45 67.6961 1255.57 68.4734 1261.24 89.1447C1266.91 109.816 1279.99 100.069 1286.11 82.8273Z" stroke="#0053BD"/>
<path d="M594.303 -248.094C598.341 -127.301 578.947 14.0955 717.149 41.3169C1022.83 101.527 1055.9 -192.762 960.461 -191.166C783.077 -188.198 871.788 -230.037 766.009 -371.777C660.231 -513.517 589.255 -399.085 594.303 -248.094Z" stroke="#0053BD"/>
<path d="M603.412 -246.559C605.5 -128.372 584.355 9.60107 719.085 38.3509C1017.09 101.941 1053.96 -185.336 960.606 -185.245C787.094 -185.077 874.49 -224.624 773.232 -364.863C671.974 -505.101 600.803 -394.292 603.412 -246.559Z" stroke="#0053BD"/>
<path d="M612.314 -244.95C612.534 -129.401 589.742 5.12996 720.986 35.3058C1011.28 102.05 1051.75 -178.17 960.498 -179.52C790.901 -182.028 876.933 -219.335 780.122 -357.966C683.311 -496.597 612.039 -389.387 612.314 -244.95Z" stroke="#0053BD"/>
<path d="M621.006 -243.274C619.442 -130.391 595.104 0.68106 722.853 32.1804C1005.41 101.852 1049.26 -171.271 960.14 -173.994C794.499 -179.056 879.119 -214.177 786.678 -351.095C694.237 -488.014 622.961 -384.378 621.006 -243.274Z" stroke="#0053BD"/>
<path d="M629.489 -241.534C626.225 -131.344 600.446 -3.74533 724.69 28.975C999.5 101.348 1046.52 -164.643 959.541 -168.674C797.893 -176.164 881.053 -209.153 792.904 -344.256C704.755 -479.36 633.569 -379.271 629.489 -241.534Z" stroke="#0053BD"/>
<path d="M637.759 -239.736C632.879 -132.264 605.762 -8.15077 726.496 25.6881C993.541 100.535 1043.51 -158.293 958.702 -163.564C801.082 -173.359 882.736 -204.27 798.798 -337.458C714.86 -470.646 643.858 -374.076 637.759 -239.736Z" stroke="#0053BD"/>
<path d="M645.817 -237.884C639.407 -133.153 611.055 -12.5358 728.275 22.3193C987.548 99.4138 1040.26 -152.226 957.631 -158.669C804.07 -170.644 884.175 -199.533 804.365 -330.708C724.556 -461.882 653.83 -368.798 645.817 -237.884Z" stroke="#0053BD"/>
<path d="M653.661 -235.985C645.805 -134.015 616.321 -16.9007 730.026 18.8685C981.524 97.9849 1036.76 -146.446 956.331 -153.994C806.858 -168.024 885.37 -194.947 809.604 -324.012C733.838 -453.077 663.481 -363.446 653.661 -235.985Z" stroke="#0053BD"/>
<path d="M661.294 -234.041C652.078 -134.852 621.565 -21.2455 731.755 15.336C975.481 96.2489 1033.02 -140.958 954.812 -149.544C809.452 -165.501 886.33 -190.518 814.521 -317.378C742.712 -444.239 672.814 -358.027 661.294 -234.041Z" stroke="#0053BD"/>
<path d="M668.711 -232.06C658.221 -135.669 626.782 -25.572 733.462 11.72C969.422 94.2047 1029.06 -135.767 953.076 -145.323C811.853 -163.083 887.056 -186.25 819.115 -310.815C751.173 -435.38 681.824 -352.549 668.711 -232.06Z" stroke="#0053BD"/>
<path d="M675.915 -230.045C664.236 -136.466 631.975 -29.8799 735.15 8.02143C963.356 91.8538 1024.88 -130.878 951.132 -141.335C814.063 -160.771 887.554 -182.148 823.39 -304.328C759.226 -426.508 690.515 -347.018 675.915 -230.045Z" stroke="#0053BD"/>
<path d="M682.906 -228.001C670.124 -137.248 637.143 -34.1703 736.82 4.23944C957.292 89.1962 1020.49 -126.294 948.983 -137.585C816.088 -158.571 887.828 -178.218 827.349 -297.925C766.87 -417.633 698.884 -341.443 682.906 -228.001Z" stroke="#0053BD"/>
<path d="M689.68 -225.935C675.882 -138.018 642.283 -38.4439 738.473 0.373667C951.232 86.2324 1015.89 -122.021 946.635 -134.078C817.926 -156.487 887.88 -174.464 830.992 -291.614C774.103 -408.764 706.929 -335.832 689.68 -225.935Z" stroke="#0053BD"/>
<path d="M696.24 -223.85C681.51 -138.778 647.396 -42.7009 740.112 -3.57558C945.187 82.9639 1011.09 -118.061 944.095 -130.816C819.583 -154.521 887.717 -170.891 834.323 -285.401C780.929 -399.91 714.652 -330.19 696.24 -223.85Z" stroke="#0053BD"/>
<path d="M702.584 -221.752C687.01 -139.531 652.482 -46.9424 741.739 -7.60896C939.162 79.391 1006.1 -114.42 941.368 -127.805C821.062 -152.68 887.342 -167.503 837.345 -279.293C787.348 -391.082 722.052 -324.527 702.584 -221.752Z" stroke="#0053BD"/>
<path d="M708.715 -219.645C692.382 -140.282 657.54 -51.169 743.355 -11.7263C933.165 75.5152 1000.93 -111.101 938.462 -125.047C822.366 -150.966 886.762 -164.305 840.062 -273.297C793.362 -382.289 729.13 -318.85 708.715 -219.645Z" stroke="#0053BD"/>
<path d="M714.632 -217.535C697.627 -141.031 662.573 -55.3806 744.965 -15.9271C927.204 71.3383 995.583 -108.106 935.383 -122.546C823.499 -149.382 885.981 -161.301 842.478 -267.419C798.975 -373.538 735.888 -313.165 714.632 -217.535Z" stroke="#0053BD"/>
<path d="M720.335 -215.427C702.744 -141.783 667.577 -59.5787 746.568 -20.2122C921.284 66.8609 990.07 -105.441 932.137 -120.306C824.464 -147.933 885.004 -158.495 844.595 -261.668C804.185 -364.84 742.324 -307.481 720.335 -215.427Z" stroke="#0053BD"/>
<path d="M725.823 -213.325C707.731 -142.54 672.553 -63.7641 748.166 -24.5815C915.413 62.0846 984.398 -103.107 928.728 -118.33C825.264 -146.623 883.834 -155.893 846.415 -256.049C808.995 -356.205 748.438 -301.806 725.823 -213.325Z" stroke="#0053BD"/>
<path d="M731.099 -211.235C712.592 -143.306 677.5 -67.9369 749.762 -29.0346C909.596 57.0116 978.575 -101.108 925.166 -116.622C825.902 -145.455 882.478 -153.497 847.943 -250.569C813.408 -347.641 754.233 -296.145 731.099 -211.235Z" stroke="#0053BD"/>
<path d="M736.164 -209.161C717.327 -144.083 682.42 -72.0982 751.36 -33.5718C903.844 51.6431 972.611 -99.4476 921.457 -115.184C826.384 -144.432 880.943 -151.311 849.185 -245.235C817.428 -339.158 759.71 -290.508 736.164 -209.161Z" stroke="#0053BD"/>
<path d="M741.016 -207.108C721.935 -144.875 687.309 -76.2483 752.957 -38.1923C898.159 45.9819 966.51 -98.1271 917.604 -114.02C826.711 -143.558 879.23 -149.34 850.142 -240.052C821.054 -330.763 764.868 -284.901 741.016 -207.108Z" stroke="#0053BD"/>
<path d="M745.657 -205.082C726.416 -145.683 692.17 -80.3884 754.558 -42.8967C892.55 40.0293 960.283 -97.1501 913.617 -113.132C826.888 -142.836 877.346 -147.588 850.818 -235.028C824.29 -322.468 769.709 -279.331 745.657 -205.082Z" stroke="#0053BD"/>
<path d="M750.09 -203.087C730.774 -146.512 697.003 -84.5185 756.165 -47.6841C887.025 33.7883 953.939 -96.5182 909.504 -112.523C826.919 -142.269 875.298 -146.057 851.22 -230.168C827.141 -314.279 774.236 -273.806 750.09 -203.087Z" stroke="#0053BD"/>
<path d="M754.314 -201.128C735.005 -147.363 701.805 -88.6398 757.779 -52.5545C881.587 27.261 947.483 -96.2339 905.267 -112.196C826.807 -141.861 873.089 -144.751 851.348 -225.479C829.608 -306.207 778.449 -268.334 754.314 -201.128Z" stroke="#0053BD"/>
<path d="M462.614 211.469C372.588 292.108 251.723 368.006 319.568 491.447C469.632 764.481 716.51 600.923 654.017 528.767C537.871 394.662 626.899 435.824 667.674 263.728C708.45 91.6332 575.147 110.671 462.614 211.469Z" stroke="#0053BD"/>
<path d="M467.285 219.439C378.005 296.909 258.64 369.267 323.085 491.027C465.627 760.343 709.571 604.203 649.571 532.678C538.057 399.745 624.483 441.37 667.01 273.705C709.536 106.04 578.885 122.602 467.285 219.439Z" stroke="#0053BD"/>
<path d="M471.767 227.298C383.31 301.643 265.526 370.527 326.64 490.531C461.816 755.96 702.655 607.105 645.111 536.271C538.163 404.622 621.997 446.638 666.145 283.415C710.293 120.192 582.337 134.367 471.767 227.298Z" stroke="#0053BD"/>
<path d="M476.061 235.038C388.504 306.303 272.381 371.783 330.236 489.956C458.203 751.335 695.77 609.628 640.645 539.544C538.195 409.289 619.444 451.626 665.085 292.852C710.726 134.079 585.508 145.957 476.061 235.038Z" stroke="#0053BD"/>
<path d="M480.172 242.659C393.588 310.892 279.203 373.037 333.872 489.306C454.793 746.476 688.924 611.775 636.181 542.499C538.156 413.747 616.834 456.333 663.838 302.016C710.842 147.699 588.402 157.368 480.172 242.659Z" stroke="#0053BD"/>
<path d="M484.102 250.154C398.565 315.404 285.993 374.285 337.551 488.581C451.591 741.386 682.125 613.547 631.724 545.136C538.051 417.993 614.17 460.759 662.409 310.9C710.648 161.041 591.023 168.593 484.102 250.154Z" stroke="#0053BD"/>
<path d="M487.855 257.522C403.437 319.838 292.753 375.529 341.276 487.782C448.603 736.071 675.383 614.946 627.283 547.458C537.888 422.027 611.461 464.903 660.806 319.502C710.151 174.101 593.377 179.627 487.855 257.522Z" stroke="#0053BD"/>
<path d="M491.434 264.756C408.206 324.191 299.481 376.765 345.047 486.91C445.831 730.535 668.705 615.974 622.865 549.462C537.669 425.847 608.713 468.763 659.036 327.817C709.359 186.871 595.469 190.462 491.434 264.756Z" stroke="#0053BD"/>
<path d="M494.844 271.856C412.874 328.463 306.179 377.996 348.866 485.968C443.283 724.787 662.101 616.635 618.477 551.154C537.4 429.455 605.933 472.343 657.106 335.845C708.279 199.348 597.305 201.097 494.844 271.856Z" stroke="#0053BD"/>
<path d="M498.086 278.815C417.443 332.649 312.845 379.219 352.734 484.956C440.961 718.829 655.578 616.93 614.126 552.533C537.086 432.848 603.126 475.639 655.022 343.581C706.918 211.523 598.889 211.523 498.086 278.815Z" stroke="#0053BD"/>
<path d="M501.166 285.633C421.917 336.75 319.482 380.436 356.653 483.876C438.87 712.669 649.146 616.863 609.821 553.602C536.733 436.028 600.301 478.654 652.793 351.023C705.285 223.393 600.227 221.736 501.166 285.633Z" stroke="#0053BD"/>
<g opacity="0.3">
<circle cx="1256.45" cy="107.448" r="333.913" transform="rotate(95.8959 1256.45 107.448)" fill="url(#paint0_linear_1_315)" style="mix-blend-mode:soft-light"/>
<circle cx="1256.45" cy="107.448" r="333.913" transform="rotate(95.8959 1256.45 107.448)" fill="url(#paint1_linear_1_315)" style="mix-blend-mode:soft-light"/>
</g>
<g opacity="0.3">
<circle cx="109.446" cy="93.4473" r="333.913" transform="rotate(-93.0179 109.446 93.4473)" fill="url(#paint2_linear_1_315)" style="mix-blend-mode:soft-light"/>
<circle cx="109.446" cy="93.4473" r="333.913" transform="rotate(-93.0179 109.446 93.4473)" fill="url(#paint3_linear_1_315)" style="mix-blend-mode:soft-light"/>
</g>
</g>
<defs>
<linearGradient id="paint0_linear_1_315" x1="1256.45" y1="-226.466" x2="1256.45" y2="441.361" gradientUnits="userSpaceOnUse">
<stop/>
<stop offset="1" stop-opacity="0"/>
</linearGradient>
<linearGradient id="paint1_linear_1_315" x1="1256.45" y1="-226.466" x2="1256.45" y2="441.361" gradientUnits="userSpaceOnUse">
<stop/>
<stop offset="1" stop-opacity="0"/>
</linearGradient>
<linearGradient id="paint2_linear_1_315" x1="109.446" y1="-240.466" x2="109.446" y2="427.361" gradientUnits="userSpaceOnUse">
<stop/>
<stop offset="1" stop-opacity="0"/>
</linearGradient>
<linearGradient id="paint3_linear_1_315" x1="109.446" y1="-240.466" x2="109.446" y2="427.361" gradientUnits="userSpaceOnUse">
<stop/>
<stop offset="1" stop-opacity="0"/>
</linearGradient>
</defs>
</svg>
