<svg width="271" height="270" viewBox="0 0 271 270" fill="none" xmlns="http://www.w3.org/2000/svg">
<path d="M225.106 0.192592C222.765 0.229679 220.531 1.17965 218.881 2.83989L200.925 20.7929C199.23 22.4773 198.278 24.7678 198.277 27.157V59.3289L193.368 64.238C172.293 46.2007 145.426 36.0987 117.495 36.0987C53.1433 36.0987 0.783569 88.4512 0.783569 152.793C0.783569 217.136 53.1433 269.488 117.495 269.488C181.846 269.488 234.188 217.136 234.188 152.793C234.188 131.376 228.307 110.387 217.162 92.0967C215.577 89.1871 212.519 87.3872 209.205 87.4139C205.892 87.4408 202.862 89.2899 201.325 92.2244C199.787 95.1593 199.99 98.7021 201.855 101.441C211.285 116.919 216.233 134.67 216.233 152.793C216.233 207.434 172.142 251.535 117.495 251.535C62.8469 251.535 18.7391 207.433 18.7391 152.793C18.7391 98.1536 62.8469 54.0692 117.495 54.0692C140.667 54.0689 162.969 62.2624 180.637 76.9664L167.89 89.7124C153.643 78.3341 135.906 72.0223 117.495 72.0223C72.9773 72.0223 36.695 108.282 36.6947 152.793C36.6947 197.305 72.9768 233.565 117.495 233.565C162.013 233.565 198.277 197.305 198.277 152.793C198.277 141.346 195.882 130.024 191.176 119.587C189.124 115.069 183.796 113.071 179.278 115.124C174.759 117.177 172.761 122.504 174.814 127.022C178.476 135.138 180.304 143.89 180.304 152.793C180.304 187.603 152.309 215.682 117.495 215.682C82.6804 215.682 54.6506 187.603 54.6506 152.793C54.6506 117.984 82.6807 89.9754 117.495 89.9754C131.121 89.9754 144.256 94.4735 155.054 102.528L142.219 115.362C134.932 110.558 126.355 107.928 117.495 107.928C92.8098 107.928 72.6234 128.112 72.6234 152.793C72.6234 177.475 92.8098 197.729 117.495 197.729C142.18 197.729 162.349 177.475 162.349 152.793C162.652 149.408 161.018 146.141 158.125 144.354C155.233 142.567 151.579 142.567 148.687 144.354C145.795 146.141 144.159 149.408 144.463 152.793C144.463 167.773 132.476 179.758 117.495 179.758C102.514 179.758 90.579 167.773 90.579 152.793C90.579 137.814 102.514 125.899 117.495 125.899C121.521 125.899 125.418 126.875 128.997 128.564L111.13 146.429C107.612 149.939 107.608 155.635 111.119 159.15C114.631 162.666 120.328 162.67 123.844 159.159L147.672 135.331C148.964 134.564 150.044 133.485 150.811 132.193L173.063 109.944C174.355 109.178 175.434 108.099 176.201 106.806L199.417 83.5935C199.844 83.2391 200.237 82.8459 200.592 82.4189L210.99 72.0223H243.201C245.567 72.0035 247.829 71.0519 249.497 69.3748L267.47 51.4043C270.951 47.903 270.951 42.2477 267.469 38.7461L250.513 21.7748C249.962 21.0085 249.293 20.334 248.532 19.776L231.611 2.83989C229.892 1.11071 227.543 0.155244 225.106 0.192592ZM225.246 21.8624L230.506 27.1222L216.233 41.3933V30.8739L225.246 21.8624ZM243.201 39.8155L248.444 45.0575L239.501 54.0692H228.945L243.201 39.8155Z" fill="#10C95E"/>
</svg>
