<svg width="215" height="215" viewBox="0 0 215 215" fill="none" xmlns="http://www.w3.org/2000/svg">
<path d="M161.751 11.3982L162.991 13.8746L172.348 38.7575C173.083 40.7171 174.629 42.2632 176.589 42.9984L200.613 52.0114C211.156 55.9667 216.821 67.2321 214.012 77.8907L213.336 80.012L202.159 104.73C201.293 106.635 201.293 108.822 202.159 110.728L212.773 134.088C217.431 144.34 213.472 156.312 203.948 161.862L201.472 163.102L176.589 172.459C174.629 173.194 173.083 174.741 172.348 176.7L163.335 200.724C159.38 211.267 148.114 216.932 137.456 214.123L135.335 213.447L110.616 202.27C108.711 201.404 106.524 201.404 104.619 202.27L81.2581 212.885C71.0067 217.543 59.0349 213.583 53.4846 204.059L52.2441 201.583L42.8873 176.7C42.1522 174.741 40.606 173.194 38.6464 172.459L14.6223 163.446C4.07978 159.491 -1.58546 148.226 1.22382 137.567L1.89974 135.446L13.0764 110.728C13.9421 108.822 13.9421 106.635 13.0764 104.73L2.46193 81.3692C-2.19602 71.1178 1.7639 59.146 11.2872 53.5957L13.7635 52.3552L38.6464 42.9984C40.606 42.2632 42.1522 40.7171 42.8873 38.7575L51.9004 14.7334C55.8556 4.19086 67.121 -1.47438 77.7796 1.33491L79.9009 2.01082L104.619 13.1874C106.524 14.0532 108.711 14.0532 110.616 13.1874L133.977 2.57301C144.229 -2.08494 156.2 1.87498 161.751 11.3982ZM142.741 70.4918L91.0329 129.587L72.1643 110.719C69.3334 107.888 64.7435 107.888 61.9125 110.719C59.0816 113.55 59.0816 118.14 61.9125 120.971L86.2601 145.318C89.2253 148.283 94.0802 148.122 96.8415 144.966L153.652 80.0389C156.289 77.0259 155.984 72.4462 152.971 69.8098C149.958 67.1735 145.378 67.4788 142.741 70.4918Z" fill="#10C95E"/>
</svg>
