<svg width="31" height="30" viewBox="0 0 31 30" fill="none" xmlns="http://www.w3.org/2000/svg">
<path d="M15.6561 0.234375C7.4346 0.234375 0.772949 6.89602 0.772949 15.1175C0.772949 23.3391 7.4346 30.0007 15.6561 30.0007C23.8776 30.0007 30.5393 23.3391 30.5393 15.1175C30.5393 6.89602 23.8776 0.234375 15.6561 0.234375ZM16.6579 16.4055C16.6579 16.9565 16.2071 17.4073 15.6561 17.4073H8.78696C8.236 17.4073 7.78521 16.9565 7.78521 16.4055C7.78521 15.8545 8.236 15.4038 8.78696 15.4038H14.6544V5.95867C14.6544 5.4077 15.1051 4.95692 15.6561 4.95692C16.2071 4.95692 16.6579 5.4077 16.6579 5.95867V16.4055Z" fill="black"/>
</svg>
