<svg width="24" height="28" viewBox="0 0 24 28" fill="none" xmlns="http://www.w3.org/2000/svg">
<path d="M23.1546 9.3057H0.637283C0.285343 9.3057 0 9.02036 0 8.66842V6.75657C0 5.3487 1.14127 4.20744 2.54913 4.20744H5.09826V1.44588C5.09826 1.09394 5.38361 0.808594 5.73555 0.808594H7.85982C8.21176 0.808594 8.4971 1.09394 8.4971 1.44588V4.20744H15.2948V1.44588C15.2948 1.09394 15.5801 0.808594 15.9321 0.808594H18.0563C18.4083 0.808594 18.6936 1.09394 18.6936 1.44588V4.20744H21.2428C22.6506 4.20744 23.7919 5.3487 23.7919 6.75657V8.66842C23.7919 9.02036 23.5066 9.3057 23.1546 9.3057ZM0.637283 11.0051H23.1546C23.5066 11.0051 23.7919 11.2905 23.7919 11.6424V25.4502C23.7919 26.8581 22.6506 27.9993 21.2428 27.9993H2.54913C1.14127 27.9993 0 26.8581 0 25.4502V11.6424C0 11.2905 0.285343 11.0051 0.637283 11.0051ZM18.3376 16.1006L16.8416 14.5924C16.5938 14.3426 16.1903 14.3409 15.9404 14.5888L10.3091 20.1748L7.86726 17.7132C7.61941 17.4633 7.21585 17.4617 6.96598 17.7096L5.4579 19.2056C5.20803 19.4535 5.20639 19.857 5.45429 20.1068L9.84098 24.529C10.0888 24.7789 10.4923 24.7805 10.7422 24.5326L18.334 17.0018C18.5839 16.7539 18.5855 16.3504 18.3376 16.1006Z" fill="black"/>
</svg>
