<svg width="40" height="26" viewBox="0 0 40 26" fill="none" xmlns="http://www.w3.org/2000/svg">
<path d="M27.2727 10.9994C30.2726 10.9994 32.7273 8.58855 32.7273 5.6423C32.7273 2.69614 30.2726 0.285156 27.2727 0.285156C24.2728 0.285156 21.8182 2.69614 21.8182 5.6423C21.8182 8.58855 24.2728 10.9994 27.2727 10.9994ZM12.7273 10.9994C15.7272 10.9994 18.1818 8.58855 18.1818 5.6423C18.1818 2.69614 15.7272 0.285156 12.7273 0.285156C9.72741 0.285156 7.27268 2.69614 7.27268 5.6423C7.27268 8.58855 9.72741 10.9994 12.7273 10.9994ZM12.7273 14.928C8.45429 14.928 0 16.9814 0 21.178V25.9994H25.7143V21.178C25.7143 16.9814 17.0001 14.928 12.7273 14.928ZM27.2727 15.9104C26.7276 15.9104 26.3508 15.9104 25.7143 15.9994C27.8059 17.5175 28.5714 18.4994 28.5714 21.178V25.9994H40V21.178C40 16.9814 31.5457 15.9104 27.2727 15.9104Z" fill="#050505"/>
</svg>
