<svg width="229" height="184" viewBox="0 0 229 184" fill="none" xmlns="http://www.w3.org/2000/svg">
<path d="M80.1858 92.1117C105.442 92.1117 125.916 71.6378 125.916 46.382C125.916 21.1262 105.442 0.652339 80.1858 0.652344C54.93 0.652344 34.4562 21.1262 34.4562 46.382C34.4562 71.6378 54.9301 92.1117 80.1858 92.1117ZM114.483 114.977C114.509 111.158 115.505 107.408 117.377 104.08C115.662 103.901 113.983 103.544 112.197 103.544H106.23C89.7037 111.165 70.668 111.165 54.1414 103.544H48.1751C21.6697 103.544 0.170769 125.033 0.158936 151.55V166.422C0.158936 175.893 7.83663 183.571 17.3076 183.571H117.663C115.608 180.11 114.511 176.164 114.483 172.139L114.483 114.977ZM217.375 103.544H205.942V74.9631C205.942 59.1782 193.146 46.382 177.361 46.382C161.577 46.382 148.78 59.1782 148.78 74.9631V103.544H137.348C131.034 103.544 125.916 108.663 125.916 114.977V172.139C125.916 178.453 131.034 183.571 137.348 183.571H217.375C223.689 183.571 228.807 178.453 228.807 172.139V114.977C228.807 108.663 223.689 103.544 217.375 103.544ZM177.361 154.99C171.047 154.99 165.929 149.871 165.929 143.558C165.929 137.244 171.047 132.125 177.361 132.125C183.675 132.125 188.794 137.244 188.794 143.558C188.794 149.871 183.675 154.99 177.361 154.99ZM188.794 103.544H165.929V74.9631C165.929 68.6491 171.047 63.5306 177.361 63.5306C183.675 63.5306 188.794 68.6491 188.794 74.9631V103.544Z" fill="#004195"/>
</svg>
