<svg width="20" height="20" viewBox="0 0 20 20" fill="none" xmlns="http://www.w3.org/2000/svg">
<path d="M19.3856 15.7509C19.6192 15.9853 19.7944 16.2715 19.8969 16.5863C19.9994 16.901 20.0263 17.2355 19.9754 17.5626C19.9246 17.8897 19.7975 18.2002 19.6043 18.469C19.4111 18.7378 19.1574 18.9574 18.8636 19.1099C17.1847 20.0072 15.2285 20.2365 13.3876 19.7519C8.50158 18.5219 1.47858 11.4989 0.24858 6.61286C-0.236096 4.77192 -0.00676131 2.81579 0.89058 1.13686C1.04308 0.843067 1.26262 0.589311 1.53143 0.396146C1.80024 0.20298 2.11076 0.0758336 2.43785 0.0250026C2.76494 -0.0258284 3.09941 0.00108454 3.41416 0.103562C3.72892 0.20604 4.01511 0.381202 4.24958 0.614864L6.33458 2.69886C6.63526 2.99652 6.83871 3.37828 6.91815 3.79385C6.99759 4.20941 6.94927 4.63929 6.77958 5.02686C6.59388 5.4617 6.33021 5.85891 6.00158 6.19886C3.61758 8.58286 11.4186 16.3839 13.8016 13.9989C14.1416 13.6691 14.5392 13.4044 14.9746 13.2179C15.3621 13.0479 15.792 12.9994 16.2077 13.0789C16.6233 13.1583 17.0051 13.3619 17.3026 13.6629L19.3856 15.7509Z" fill="white"/>
</svg>
