<svg width="33" height="38" viewBox="0 0 33 38" fill="none" xmlns="http://www.w3.org/2000/svg">
<path d="M9.40324 13.1975H12.239C12.3471 11.2367 12.7134 9.47238 13.2699 8.08968C11.2597 9.05017 9.78627 10.9327 9.40324 13.1975ZM9.40324 15.519C9.787 17.7838 11.2597 19.6664 13.2699 20.6268C12.7127 19.2441 12.3471 17.4799 12.239 15.519H9.40324ZM16.25 21.2275C16.8079 20.6871 17.7568 18.7305 17.9497 15.519H14.5496C14.7432 18.7298 15.6921 20.6871 16.25 21.2275ZM14.5503 13.1975H17.9504C17.7575 9.98672 16.8086 8.02946 16.2507 7.48901C15.6921 8.02946 14.7432 9.98672 14.5503 13.1975ZM19.2301 20.6268C21.2403 19.6664 22.7137 17.7838 23.0968 15.519H20.261C20.1529 17.4799 19.7873 19.2441 19.2301 20.6268ZM30.1786 0.429688H4.64286C2.0784 0.429688 0 2.50809 0 5.07254V32.9297C0 35.4941 2.0784 37.5725 4.64286 37.5725H30.1786C31.4604 37.5725 32.5 36.533 32.5 35.2511V2.75112C32.5 1.46925 31.4604 0.429688 30.1786 0.429688ZM24.375 30.6083H8.125C7.48661 30.6083 6.96429 30.0859 6.96429 29.4475C6.96429 28.8092 7.48661 28.2868 8.125 28.2868H24.375C25.0134 28.2868 25.5357 28.8092 25.5357 29.4475C25.5357 30.0859 25.0134 30.6083 24.375 30.6083ZM16.25 23.644C11.1218 23.644 6.96429 19.4864 6.96429 14.3583C6.96429 9.23008 11.1218 5.07254 16.25 5.07254C21.3782 5.07254 25.5357 9.23008 25.5357 14.3583C25.5357 19.4864 21.3782 23.644 16.25 23.644ZM19.2301 8.08968C19.7873 9.47238 20.1529 11.2367 20.261 13.1975H23.0968C22.7137 10.9327 21.2403 9.05017 19.2301 8.08968Z" fill="white"/>
</svg>
