<svg width="33" height="38" viewBox="0 0 33 38" fill="none" xmlns="http://www.w3.org/2000/svg">
<path d="M9.40324 13.1956H12.239C12.3471 11.2347 12.7134 9.47042 13.2699 8.08772C11.2597 9.04821 9.78627 10.9307 9.40324 13.1956ZM9.40324 15.517C9.787 17.7819 11.2597 19.6644 13.2699 20.6249C12.7127 19.2422 12.3471 17.4779 12.239 15.517H9.40324ZM16.25 21.2256C16.8079 20.6851 17.7568 18.7286 17.9497 15.517H14.5496C14.7432 18.7278 15.6921 20.6851 16.25 21.2256ZM14.5503 13.1956H17.9504C17.7575 9.98477 16.8086 8.02751 16.2507 7.48705C15.6921 8.02751 14.7432 9.98477 14.5503 13.1956ZM19.2301 20.6249C21.2403 19.6644 22.7137 17.7819 23.0968 15.517H20.261C20.1529 17.4779 19.7873 19.2422 19.2301 20.6249ZM30.1786 0.427734H4.64286C2.0784 0.427734 0 2.50614 0 5.07059V32.9277C0 35.4922 2.0784 37.5706 4.64286 37.5706H30.1786C31.4604 37.5706 32.5 36.531 32.5 35.2492V2.74916C32.5 1.4673 31.4604 0.427734 30.1786 0.427734ZM24.375 30.6063H8.125C7.48661 30.6063 6.96429 30.084 6.96429 29.4456C6.96429 28.8072 7.48661 28.2849 8.125 28.2849H24.375C25.0134 28.2849 25.5357 28.8072 25.5357 29.4456C25.5357 30.084 25.0134 30.6063 24.375 30.6063ZM16.25 23.642C11.1218 23.642 6.96429 19.4845 6.96429 14.3563C6.96429 9.22813 11.1218 5.07059 16.25 5.07059C21.3782 5.07059 25.5357 9.22813 25.5357 14.3563C25.5357 19.4845 21.3782 23.642 16.25 23.642ZM19.2301 8.08772C19.7873 9.47042 20.1529 11.2347 20.261 13.1956H23.0968C22.7137 10.9307 21.2403 9.04821 19.2301 8.08772Z" fill="white"/>
</svg>
