<?xml version="1.0" standalone="no"?>
<!DOCTYPE svg PUBLIC "-//W3C//DTD SVG 20010904//EN"
 "http://www.w3.org/TR/2001/REC-SVG-20010904/DTD/svg10.dtd">
<svg version="1.0" xmlns="http://www.w3.org/2000/svg"
 width="1280.000000pt" height="720.000000pt" viewBox="0 0 1280.000000 720.000000"
 preserveAspectRatio="xMidYMid meet">

<g transform="translate(0.000000,720.000000) scale(0.100000,-0.100000)"
fill="#000000" stroke="none">
<path d="M4939 6824 c-209 -149 -259 -189 -259 -209 0 -16 32 -76 128 -242 45
-78 82 -144 82 -147 0 -2 -12 2 -27 10 -16 7 -38 14 -49 14 -12 0 -52 11 -88
25 -37 14 -82 25 -100 25 -60 0 -389 -69 -405 -85 -14 -13 -13 -30 3 -157 11
-79 21 -166 24 -194 l4 -50 -66 -12 c-36 -7 -73 -15 -82 -19 -12 -4 -15 -3
-10 5 4 7 2 12 -5 12 -7 0 -3 9 9 20 26 25 27 29 7 57 -9 13 -23 20 -33 18
-80 -19 -98 -26 -112 -43 -9 -13 -50 -29 -110 -45 -52 -14 -183 -48 -290 -77
-247 -66 -277 -71 -296 -52 -20 20 -25 11 -11 -18 23 -46 67 -56 152 -34 12 3
8 -2 -11 -14 -17 -11 -33 -29 -36 -39 -3 -11 5 -59 18 -109 24 -92 30 -126 13
-86 -8 21 -11 22 -23 9 -13 -13 -13 -21 1 -66 11 -34 14 -54 7 -61 -7 -7 -44
4 -111 31 l-101 41 0 241 0 242 50 -128 c27 -71 51 -127 53 -125 5 4 -30 110
-45 138 -9 18 -9 24 0 30 9 6 2 43 -29 148 -27 93 -41 161 -42 203 -2 101 -16
140 -18 48 -1 -59 -5 -82 -20 -100 l-19 -24 -419 -2 c-417 -2 -418 -2 -421
-23 -2 -11 4 -126 12 -255 9 -128 16 -261 16 -295 0 -61 0 -61 -36 -76 -82
-34 -240 -116 -258 -133 -19 -20 -40 -101 -25 -101 4 0 108 25 230 55 185 46
236 55 310 55 74 0 87 2 83 15 -5 13 17 15 167 15 l173 0 -39 -40 c-21 -22
-37 -41 -34 -43 2 -2 38 -11 81 -21 92 -21 135 -56 86 -70 -13 -4 -45 -13 -73
-20 -212 -60 -421 -119 -481 -137 -59 -18 -77 -20 -105 -10 -19 6 -124 31
-234 56 -264 60 -275 63 -275 80 0 7 12 24 28 36 15 12 20 20 11 16 -13 -4
-20 4 -29 38 -7 26 -20 47 -33 53 -33 17 -129 37 -307 66 -14 3 -25 5 -25 6 0
1 -8 3 -18 5 -30 6 -47 26 -47 56 0 52 2 53 297 133 l152 41 -80 139 c-80 140
-105 171 -124 156 -5 -4 -98 -52 -204 -105 -173 -86 -199 -97 -235 -92 -34 5
-61 -5 -220 -82 -100 -48 -189 -95 -199 -106 -12 -12 -16 -26 -12 -42 4 -19
116 -217 131 -232 2 -2 19 4 39 13 25 12 40 14 53 7 14 -9 12 -10 -14 -11 -17
0 -49 -12 -70 -27 -46 -31 -92 -43 -122 -32 -13 5 -22 4 -22 -1 0 -6 -5 -10
-11 -10 -6 0 -27 -12 -47 -27 -53 -39 -62 -49 -24 -27 25 14 35 16 40 7 6 -9
16 -5 36 14 16 15 27 22 25 16 -5 -13 -123 -107 -271 -217 -112 -83 -122 -97
-134 -180 -4 -29 -10 -43 -14 -36 -5 7 -15 10 -25 7 -9 -4 -13 -12 -9 -18 4
-8 3 -9 -4 -5 -7 4 -17 4 -23 0 -8 -5 -8 -8 0 -13 7 -5 2 -12 -14 -21 -22 -12
-27 -11 -45 5 -11 10 -20 13 -20 7 0 -20 -22 -13 -27 8 -8 30 -23 14 -18 -20
2 -21 0 -27 -10 -24 -8 3 -11 12 -8 21 5 12 -2 14 -39 10 -28 -3 -51 0 -63 9
-13 9 -22 10 -31 4 -8 -7 -13 -6 -17 4 -3 8 1 20 9 26 8 7 14 19 14 27 0 11
-3 11 -14 1 -8 -7 -12 -16 -9 -20 2 -5 0 -8 -6 -8 -5 0 -13 5 -16 10 -16 26
-22 2 -24 -95 -1 -58 0 -105 3 -105 2 0 20 7 40 15 35 15 47 14 164 -5 122
-21 188 -44 164 -59 -17 -10 -8 -42 39 -132 l42 -81 46 5 c25 2 79 0 119 -6
l72 -10 53 36 c28 19 85 58 126 86 92 64 120 66 173 14 25 -24 41 -34 46 -27
42 64 178 224 200 233 15 7 146 26 292 41 146 16 334 36 418 45 179 20 216 16
241 -25 10 -17 36 -126 60 -247 23 -120 48 -235 54 -256 11 -41 49 -76 108
-101 19 -8 68 -45 107 -81 l72 -67 50 21 c27 11 66 21 87 21 22 0 117 -22 213
-49 l175 -48 13 27 c8 16 62 63 125 109 62 44 195 141 297 216 102 74 195 138
208 141 31 9 66 -2 98 -29 l27 -24 23 -294 c13 -162 28 -311 34 -332 9 -29 22
-45 58 -68 25 -16 41 -29 36 -29 -6 0 -27 -24 -47 -53 -21 -30 -47 -63 -60
-75 l-23 -22 -49 102 c-67 137 -86 158 -138 158 -48 0 -157 -29 -157 -41 0 -5
-3 -8 -7 -7 -12 4 -103 -44 -103 -54 0 -4 -7 -8 -15 -8 -8 0 -39 -15 -68 -34
-64 -41 -134 -80 -322 -180 -21 -12 -45 -27 -53 -33 -7 -7 -19 -13 -27 -13 -7
0 -15 -3 -17 -8 -9 -20 -147 -71 -208 -76 -67 -5 -87 -1 -334 64 -65 17 -124
29 -130 27 -6 -2 -17 2 -24 10 -7 7 -22 13 -31 13 -10 0 -35 7 -55 15 -20 9
-41 13 -46 10 -4 -3 -15 2 -24 10 -10 10 -17 12 -21 5 -5 -8 -11 -7 -20 0 -8
7 -19 9 -25 5 -5 -3 -10 -1 -10 6 0 7 -2 10 -6 7 -3 -3 -25 0 -50 8 l-45 13 7
-57 c7 -61 9 -67 27 -67 7 -1 11 -7 9 -14 -2 -8 3 -11 12 -8 9 4 18 2 21 -3 3
-4 -1 -11 -7 -13 -8 -3 -6 -6 5 -6 9 -1 17 -6 17 -11 0 -18 52 -33 62 -18 5 9
8 7 9 -7 1 -11 1 -23 1 -26 -1 -3 6 -6 13 -6 11 0 12 4 4 13 -14 17 9 30 24
15 9 -9 7 -10 -8 -5 -18 7 -18 6 -6 -9 7 -9 11 -23 8 -30 -4 -10 2 -13 20 -9
20 4 24 2 18 -9 -7 -11 -6 -12 7 -2 8 7 18 10 22 6 4 -4 -4 -13 -16 -20 l-23
-12 27 -1 c17 0 27 -5 25 -12 -1 -8 8 -13 24 -12 18 0 25 -4 22 -13 -3 -7 -1
-13 5 -13 5 0 12 7 16 15 3 8 11 15 18 15 10 0 10 -2 1 -8 -6 -4 -17 -21 -23
-37 l-10 -30 18 23 c17 22 20 23 35 7 23 -22 21 -28 -3 -15 -13 7 -20 7 -20 1
0 -14 36 -32 45 -23 4 4 5 -3 2 -16 -3 -14 -1 -20 6 -15 6 4 8 0 4 -10 -3 -10
-2 -17 3 -17 6 0 10 5 10 12 0 6 6 3 14 -7 8 -11 12 -23 10 -27 -3 -5 -1 -8 5
-8 5 0 12 6 14 13 3 6 4 -4 2 -23 -3 -29 -2 -32 8 -20 12 15 37 25 37 14 0 -3
-10 -14 -22 -23 l-21 -18 24 -6 c13 -4 29 -18 36 -32 7 -16 7 -23 1 -18 -7 3
-8 1 -4 -5 4 -7 15 -12 24 -12 15 0 15 -2 2 -10 -13 -8 -13 -10 1 -10 9 0 20
-7 23 -16 3 -8 10 -12 16 -9 6 3 7 -1 4 -9 -3 -9 -12 -16 -20 -16 -8 0 -11 -6
-8 -15 4 -8 17 -15 31 -15 22 0 24 2 13 15 -7 9 -8 15 -2 15 16 0 22 -28 7
-40 -17 -14 -13 -39 8 -55 21 -15 22 -29 3 -22 -10 4 -12 0 -9 -14 3 -10 10
-19 15 -19 6 0 8 -7 4 -15 -3 -8 -1 -15 4 -15 5 0 14 -10 21 -22 10 -18 9 -20
-7 -14 -17 7 -17 6 0 -13 20 -22 14 -41 -12 -41 -14 0 -15 -2 -3 -9 10 -7 19
-4 27 7 10 14 15 15 25 4 11 -10 10 -12 -4 -12 -9 0 -17 -7 -17 -16 0 -10 -6
-14 -17 -10 -20 5 -62 13 -113 20 -19 3 -49 10 -67 15 -17 5 -34 7 -36 5 -3
-3 -33 4 -68 14 -174 53 -215 65 -228 65 -24 0 -49 78 -75 232 -35 206 -36
209 -30 132 l5 -68 -26 7 c-15 4 -25 2 -25 -5 0 -6 -11 -11 -25 -11 -17 0 -23
-4 -19 -15 4 -10 0 -13 -14 -10 -12 2 -23 -3 -26 -12 -5 -13 -9 -13 -23 -2 -9
8 -14 9 -10 3 4 -8 -8 -14 -38 -19 -28 -4 -43 -10 -39 -17 4 -7 0 -7 -12 0
-11 5 -29 8 -42 7 -12 -1 -22 2 -22 6 0 11 -60 42 -60 32 0 -5 -4 -3 -8 2 -4
6 -23 22 -42 35 -19 13 -38 29 -42 35 -4 5 -8 6 -8 1 0 -5 -9 -1 -19 8 -15 14
-24 15 -40 6 -12 -6 -21 -8 -21 -6 0 14 75 40 300 106 135 40 246 73 247 74 1
1 -11 87 -27 191 -31 200 -36 261 -20 285 6 9 5 20 -3 30 -11 13 -10 13 6 1 9
-7 18 -11 18 -7 1 3 2 10 3 15 0 5 5 13 10 18 5 5 6 2 1 -6 -5 -9 -3 -12 6 -9
8 3 13 11 11 17 -1 7 2 10 7 6 6 -3 93 36 195 87 173 86 186 95 192 124 3 16
1 46 -4 65 -10 33 -10 33 -11 6 -1 -15 -10 -48 -21 -73 -20 -43 -28 -48 -142
-105 -93 -45 -124 -56 -131 -47 -6 9 -7 8 -3 -4 4 -13 0 -18 -14 -18 -11 0
-20 -4 -20 -10 0 -5 -5 -10 -10 -10 -7 0 -7 7 0 23 l11 22 -20 -22 c-22 -26
-36 -30 -28 -9 3 8 -2 16 -14 19 -10 3 -19 1 -19 -4 0 -13 -28 -11 -32 3 -3 7
-7 5 -11 -6 -4 -9 -3 -15 2 -11 5 3 12 1 16 -5 3 -5 -1 -10 -10 -10 -9 0 -13
-4 -10 -10 3 -6 -1 -7 -9 -4 -9 3 -14 10 -11 14 3 4 -2 10 -10 13 -9 4 -12 1
-8 -9 4 -12 0 -15 -15 -12 -12 2 -27 -5 -34 -15 -13 -18 -15 -18 -38 3 -18 15
-20 20 -7 16 15 -5 16 -2 7 14 -5 10 -16 22 -23 26 -8 5 -7 2 2 -9 12 -15 9
-21 -11 -18 -3 0 -3 -13 2 -30 8 -26 7 -30 -7 -25 -10 4 -14 2 -10 -8 4 -10 0
-14 -14 -13 -14 1 -18 7 -14 22 3 11 2 14 -1 8 -9 -20 -24 -15 -17 5 6 16 6
16 -10 0 -18 -18 -23 -33 -8 -23 5 3 12 1 16 -5 3 -5 1 -10 -4 -10 -6 0 -11
-8 -11 -17 0 -15 -2 -14 -17 4 l-17 21 -30 -22 c-17 -11 -34 -25 -37 -29 -3
-4 -13 -5 -22 -1 -9 3 -17 2 -17 -3 0 -5 -6 -10 -12 -11 -7 -1 -31 -3 -53 -5
-22 -2 -47 -7 -55 -10 -8 -3 -31 -8 -50 -11 -93 -15 -120 -17 -120 -8 0 5 -9
12 -21 15 -12 3 -19 9 -16 14 2 4 0 19 -5 33 -7 18 -11 21 -17 11 -6 -9 -10
-5 -15 14 -4 15 -5 30 -1 33 3 3 5 -2 5 -11 0 -9 4 -17 10 -17 6 0 6 9 1 23
-5 12 -9 26 -9 30 -1 15 -12 21 -12 7 0 -7 -3 -10 -6 -7 -4 4 -2 12 4 20 8 10
8 20 -3 39 -12 24 -11 27 3 31 15 4 15 5 0 6 -17 1 -20 10 -21 69 -1 12 -5 22
-9 22 -4 0 -8 5 -8 11 0 5 6 7 13 3 9 -6 9 -4 0 7 -7 7 -13 25 -13 40 0 15 -5
31 -10 34 -6 4 -8 10 -5 15 3 5 1 11 -5 15 -5 3 -10 21 -10 38 0 18 -4 46 -9
64 -6 21 -5 35 2 42 8 8 8 11 -2 11 -8 0 -10 7 -6 20 4 11 2 20 -4 20 -6 0
-11 10 -11 23 -1 27 -53 81 -72 74 -9 -4 -8 -6 3 -6 11 -1 21 -23 34 -79 9
-43 16 -85 14 -94 -4 -14 -28 -11 -199 22 -183 36 -479 91 -562 105 -21 3 -38
11 -39 18 -1 34 -22 -53 -50 -215 -17 -100 -34 -191 -39 -202 -5 -12 -44 -40
-94 -66 l-86 -45 0 -42 c0 -24 2 -43 4 -43 2 0 23 7 46 15 23 8 56 15 72 15
l30 0 -7 -47 c-8 -56 -11 -63 -31 -63 -8 0 -14 -7 -14 -15 0 -8 -5 -15 -10
-15 -10 0 -30 -38 -36 -68 -1 -8 -11 -20 -21 -29 -10 -8 -13 -12 -7 -9 7 3 12
-4 12 -19 0 -13 -7 -26 -15 -29 -9 -4 -11 -2 -7 6 4 7 3 8 -4 4 -7 -4 -12 -16
-12 -26 0 -23 28 -36 256 -120 192 -70 203 -76 302 -142 41 -28 72 -43 73 -36
0 7 4 3 9 -9 5 -11 54 -53 108 -92 86 -61 112 -86 112 -107 0 -26 -200 34
-745 225 -49 17 -95 31 -102 31 -10 0 -13 -85 -13 -427 l0 -428 28 39 c24 35
65 58 387 216 198 98 377 183 398 190 67 21 97 8 213 -98 59 -53 131 -118 160
-145 l52 -47 214 41 c134 26 230 39 259 37 38 -4 74 -23 200 -105 85 -55 200
-130 256 -166 56 -36 109 -76 117 -89 19 -30 34 -124 18 -114 -6 3 -18 -4 -26
-16 -9 -12 -16 -17 -16 -9 0 8 -12 3 -30 -13 -19 -15 -37 -23 -47 -19 -9 4
-14 2 -10 -3 3 -6 -10 -9 -31 -9 -20 0 -39 -2 -42 -6 -3 -4 -19 -10 -35 -13
-17 -2 -32 -5 -35 -6 -3 -1 -9 -2 -13 -1 -5 1 -27 -4 -50 -10 -23 -6 -51 -13
-62 -14 -11 -1 -20 -4 -20 -5 0 -4 -78 -18 -122 -22 -7 -1 -13 -6 -13 -11 0
-5 -6 -5 -13 2 -9 7 -17 7 -24 0 -5 -5 -21 -11 -34 -13 -13 -2 -42 -8 -64 -14
-38 -10 -116 -24 -142 -25 -7 0 -13 -3 -13 -7 0 -3 -17 -7 -37 -9 -21 -1 -48
-3 -60 -4 -11 -1 -19 -5 -17 -8 2 -4 -11 -9 -29 -12 -32 -5 -67 -13 -77 -18
-3 -1 -9 -3 -15 -3 -5 -1 -19 -7 -30 -13 -11 -6 -24 -11 -29 -12 -10 0 -17
-20 -20 -62 -2 -14 -6 -31 -10 -38 -4 -6 -3 -18 3 -25 7 -9 7 -16 -1 -24 -7
-7 -8 -15 -1 -24 5 -7 7 -24 2 -38 -4 -14 -7 -19 -8 -11 -1 8 -4 11 -7 8 -4
-4 -1 -14 7 -23 11 -14 11 -18 1 -22 -9 -3 -10 -8 -2 -17 11 -13 3 -48 -9 -40
-4 2 -8 -2 -8 -10 0 -8 4 -12 8 -9 4 2 7 -9 7 -26 -1 -16 -5 -30 -10 -30 -5 0
-2 -7 6 -16 20 -19 20 -25 2 -18 -10 4 -12 -4 -9 -35 2 -26 0 -41 -7 -41 -6 0
-8 -5 -5 -10 4 -6 11 -8 16 -5 5 4 9 -1 9 -9 0 -8 -5 -18 -10 -21 -6 -4 -10
-12 -9 -18 4 -30 -2 -48 -13 -41 -7 4 -8 3 -4 -5 4 -6 12 -9 17 -6 5 4 9 2 9
-4 0 -5 -5 -13 -10 -16 -8 -5 -8 -11 0 -20 8 -9 8 -15 0 -20 -7 -4 -7 -13 1
-27 6 -12 7 -18 1 -14 -5 3 -12 0 -15 -8 -3 -8 1 -17 10 -20 12 -5 13 -9 3
-21 -10 -12 -10 -15 1 -15 10 0 10 -3 1 -12 -15 -15 -16 -32 -2 -23 15 9 12
-5 -5 -22 -19 -18 -35 -9 -104 56 -24 22 -45 41 -47 41 -2 0 -20 17 -41 38
-20 20 -43 36 -50 34 -7 -2 -12 1 -11 5 2 5 -25 36 -59 69 -35 33 -63 58 -63
55 0 -3 -14 9 -30 27 -17 18 -30 30 -30 27 0 -3 -11 6 -24 20 -17 18 -26 22
-29 13 -3 -7 -6 127 -6 297 -1 171 -5 316 -10 324 -13 21 -89 0 -221 -61 -63
-29 -173 -80 -245 -114 l-130 -61 -3 -447 -2 -448 52 5 c29 4 141 9 248 12
285 9 305 16 370 131 26 46 39 58 87 80 57 25 57 25 83 6 24 -19 25 -24 22
-107 -2 -57 1 -85 7 -80 15 8 49 -11 96 -55 22 -21 61 -57 88 -80 26 -23 47
-51 47 -61 0 -35 -72 -69 -192 -91 -80 -14 -78 -8 -48 -158 10 -52 17 -96 16
-97 -1 -1 -129 -9 -285 -17 -291 -17 -348 -25 -377 -58 -17 -17 25 -18 1494
-18 832 0 1512 2 1512 5 0 3 -76 111 -170 241 -93 129 -170 237 -170 240 0 2
17 4 38 4 20 0 120 9 222 20 102 11 195 20 206 20 20 0 22 -6 26 -82 4 -80 8
-90 93 -265 l88 -183 361 1 c212 0 351 4 336 9 -59 20 -146 43 -154 41 -26 -6
9 120 82 299 94 230 101 249 81 234 -22 -18 -356 -119 -455 -139 -55 -11 -83
25 -204 265 -126 250 -186 384 -199 440 -8 35 -6 41 15 55 19 12 271 88 450
134 35 9 41 15 38 34 -9 68 -11 107 -5 107 4 0 19 -25 34 -56 l28 -56 37 8
c20 4 49 8 64 7 16 0 25 4 21 10 -4 6 3 8 17 4 12 -3 75 1 138 9 64 8 133 14
152 14 51 0 117 -47 159 -112 33 -53 34 -54 85 -55 38 -1 170 -43 520 -167
258 -91 475 -166 482 -166 7 0 16 9 19 20 4 11 18 26 33 34 38 20 913 216 962
216 33 0 48 -7 84 -40 23 -22 46 -37 49 -33 4 3 7 152 7 330 0 177 4 323 9
323 4 0 21 -4 37 -10 16 -5 48 -14 72 -20 l42 -11 0 -352 c0 -315 2 -356 18
-387 9 -19 29 -41 43 -47 18 -9 131 -17 330 -25 167 -6 308 -14 312 -18 5 -4
4 -170 -2 -370 -11 -405 -11 -405 54 -484 l37 -46 410 0 c225 0 408 4 406 8
-1 4 -83 83 -181 175 -113 106 -182 165 -190 160 -7 -4 -5 3 4 17 8 14 35 35
60 47 24 12 229 79 454 149 455 140 471 142 540 89 l37 -27 -4 82 -3 83 98
-104 c309 -326 310 -327 305 -359 -4 -28 3 -37 91 -109 87 -71 155 -135 124
-117 -8 4 -13 2 -13 -7 0 -8 -8 -17 -17 -21 -10 -3 -56 -19 -103 -35 l-85 -31
866 0 867 0 13 87 c20 141 12 140 124 19 l99 -106 578 0 578 0 0 1165 c0 1128
-1 1165 -18 1154 -21 -13 -108 -4 -117 12 -4 5 -11 7 -16 4 -5 -4 -9 14 -9 39
0 25 3 46 8 46 18 0 108 -32 129 -45 l23 -15 0 644 0 645 -72 15 c-40 9 -113
24 -162 34 l-89 19 161 134 162 134 0 585 -1 585 -147 95 c-81 52 -151 93
-157 90 -5 -2 -119 -7 -251 -10 -269 -6 -276 -7 -288 -74 l-6 -34 -56 21 c-30
11 -50 23 -44 27 7 5 9 37 4 101 -10 156 -3 192 40 209 26 10 546 -21 577 -34
9 -4 38 -35 64 -70 l48 -63 80 26 c57 18 73 27 55 29 -20 2 -24 8 -21 25 5 27
-67 142 -94 151 -31 10 -373 36 -448 34 -70 -1 -70 -1 40 -14 109 -13 109 -13
-90 -7 -110 4 -222 7 -250 9 -27 1 -57 -2 -66 -7 -9 -4 -29 -5 -45 0 -29 7
-29 9 -25 69 1 34 1 62 -2 62 -3 0 -36 -10 -73 -22 -90 -28 -84 -28 -118 1
l-29 26 18 -28 c21 -32 25 -27 -64 -79 -54 -31 -121 -47 -121 -29 0 6 -7 7
-17 4 -11 -4 -14 -3 -9 5 6 10 -17 57 -35 72 -3 3 -12 20 -20 38 -8 17 -17 32
-21 32 -5 0 -8 7 -8 15 0 8 -4 15 -9 15 -5 0 -19 19 -31 43 l-21 42 6 -35 c4
-19 8 -42 11 -50 5 -19 -5 -34 -32 -48 -19 -10 -486 -142 -503 -142 -3 0 35
-23 84 -51 102 -57 142 -94 125 -114 -13 -15 -84 -45 -275 -115 -77 -28 -148
-56 -157 -61 -10 -5 -25 -9 -33 -9 -8 0 -23 -4 -33 -9 -20 -10 -40 -18 -146
-60 -91 -35 -83 -38 -158 52 -37 44 -39 49 -29 79 9 25 8 35 -5 49 -14 16 -13
24 13 101 l28 83 150 52 c83 28 154 53 158 55 5 2 -12 93 -37 203 -57 245 -58
268 -13 295 17 11 36 21 41 23 5 2 11 31 14 65 5 70 -6 92 -47 92 -14 -1 -57
2 -96 5 -38 3 -113 7 -165 9 -52 2 -102 6 -112 10 -19 8 -65 -13 -91 -42 -18
-19 -17 -20 110 -28 70 -4 131 -9 136 -10 4 -1 38 -2 75 -3 75 -1 117 -20 95
-42 -9 -9 -44 -12 -115 -10 -56 1 -104 4 -107 5 -3 2 -60 7 -126 11 -66 4
-123 9 -127 11 -5 3 -8 -11 -8 -30 0 -20 -4 -36 -8 -36 -4 0 -4 43 1 97 7 80
5 99 -7 111 -10 11 -60 19 -168 28 -243 21 -259 20 -338 -22 -78 -41 -75 -35
-85 -184 l-7 -95 33 -24 c34 -25 127 -38 108 -15 -7 8 -1 19 17 33 30 23 42
25 132 11 52 -7 72 -5 119 11 67 23 87 23 173 6 36 -8 93 -12 128 -9 56 3 63
2 60 -14 -2 -14 16 -22 109 -44 113 -27 143 -41 143 -66 0 -18 -26 -29 -210
-89 -150 -48 -223 -86 -214 -107 2 -7 52 -42 109 -77 150 -91 152 -93 85 -86
-30 4 -68 9 -85 11 -16 3 -59 9 -95 14 -36 4 -124 16 -197 26 -127 17 -134 17
-173 -1 -51 -23 -45 -25 -254 114 -117 78 -166 106 -170 96 -4 -13 -35 -2 -95
32 -10 6 23 33 40 33 24 0 24 0 -2 54 -25 50 -20 75 13 77 17 1 18 2 6 6 -13
3 -18 14 -18 38 0 18 -7 38 -17 46 -10 9 -14 9 -10 2 9 -15 -68 -57 -85 -47
-6 4 -8 3 -5 -3 4 -6 -4 -13 -18 -16 -14 -2 -28 0 -32 6 -4 6 -1 7 7 2 8 -5
11 -4 6 3 -3 6 -16 9 -27 7 -27 -5 -50 5 -42 19 3 7 1 6 -7 -1 -12 -11 -11
-15 5 -27 11 -8 22 -13 26 -11 3 2 6 -2 6 -10 0 -11 -4 -12 -14 -3 -15 12 -62
-7 -64 -26 0 -6 -2 -19 -4 -29 -2 -9 1 -15 6 -11 5 3 9 -2 9 -10 0 -9 -7 -16
-15 -16 -8 0 -15 -5 -15 -11 0 -6 7 -8 16 -5 14 5 15 4 4 -9 -21 -25 -27 -17
-26 32 1 30 -4 48 -13 51 -9 3 -11 -2 -7 -19 3 -13 3 -18 0 -11 -8 17 -21 15
-21 -3 0 -8 5 -15 12 -15 6 0 11 -9 11 -20 0 -17 -2 -18 -17 -5 -14 13 -18 13
-32 -3 -10 -10 -17 -23 -17 -29 0 -6 -3 -13 -7 -16 -5 -2 -2 -2 5 -1 6 2 12
-1 12 -6 0 -15 19 -12 36 4 8 8 10 17 5 21 -5 3 -12 1 -16 -5 -7 -11 -25 -4
-25 10 0 5 8 7 18 4 13 -5 14 -4 3 4 -7 5 -9 12 -4 15 12 8 40 -25 40 -46 0
-9 -6 -17 -13 -17 -7 0 -16 -5 -20 -12 -5 -8 0 -9 14 -6 12 4 20 2 17 -2 -3
-5 3 -11 12 -13 17 -4 17 -5 0 -6 -11 -1 -15 -6 -11 -13 4 -7 3 -8 -5 -4 -6 4
-8 12 -5 18 5 7 1 9 -9 5 -10 -3 -17 -3 -17 1 0 4 -8 12 -19 19 -14 9 -18 9
-17 0 0 -7 -3 -12 -9 -12 -5 0 -9 6 -7 13 2 6 -2 12 -8 12 -6 0 -9 -4 -5 -9 3
-5 -2 -16 -10 -24 -20 -20 -19 -33 1 -16 13 10 17 10 24 -1 5 -8 6 -18 3 -23
-3 -5 3 -6 14 -3 14 5 19 1 19 -14 0 -11 -4 -20 -8 -20 -4 0 -8 5 -8 10 0 6
-7 10 -15 10 -16 0 -21 -15 -7 -23 4 -2 1 -2 -5 -1 -7 2 -13 -2 -13 -8 0 -6
-7 -5 -17 3 -16 13 -17 12 -5 -3 8 -10 12 -23 9 -30 -2 -7 4 -24 14 -37 10
-13 16 -28 12 -34 -3 -6 -1 -7 6 -3 6 4 8 13 4 19 -3 7 3 4 15 -6 20 -19 21
-18 15 5 -6 21 -5 22 10 9 13 -10 14 -17 6 -27 -6 -7 -8 -18 -4 -24 4 -7 0
-10 -11 -8 -22 4 -26 -23 -5 -30 8 -3 11 0 7 7 -4 6 -2 11 3 11 6 0 11 -4 11
-9 0 -5 10 -7 23 -5 21 4 21 4 1 -5 -12 -5 -24 -17 -28 -27 -6 -16 -5 -16 15
2 l22 19 -14 -22 c-16 -26 -29 -29 -48 -10 -11 10 -13 10 -7 0 4 -7 2 -13 -3
-13 -6 0 -11 4 -11 8 0 5 -7 9 -15 9 -8 0 -15 -4 -15 -9 0 -4 -8 -4 -17 2 -36
20 -94 39 -87 29 3 -6 -8 -4 -24 5 -17 9 -40 16 -51 16 -11 0 -23 5 -26 10 -4
6 -15 8 -26 5 -11 -4 -19 -2 -19 4 0 6 -8 11 -18 11 -10 0 -23 5 -29 11 -7 7
-20 12 -30 14 -10 1 -31 7 -48 14 -30 13 -65 15 -117 8 -21 -3 -28 0 -28 13 0
9 35 122 79 251 140 417 141 419 186 419 12 0 60 -13 108 -29 l87 -30 0 73 c0
43 -5 77 -12 84 -8 8 -48 12 -114 12 l-102 0 -46 -132 c-80 -234 -157 -442
-172 -465 -9 -14 -25 -23 -40 -23 -39 0 -187 36 -394 95 -102 29 -199 56 -217
60 -38 8 -41 15 -49 118 -7 92 1 126 116 502 53 171 65 225 40 186 -4 -8 -15
-11 -25 -7 -10 3 -23 2 -30 -4 -7 -6 -17 -10 -21 -9 -5 1 -11 0 -14 -1 -3 -1
-16 -4 -30 -6 -41 -6 -75 -12 -75 -14 0 -2 -11 -4 -25 -6 -52 -7 -66 -10 -77
-17 -6 -4 -18 -4 -26 -1 -8 3 -18 1 -22 -5 -3 -6 -17 -11 -30 -11 -36 0 -45
-28 -45 -133 0 -52 -3 -121 -6 -154 l-7 -60 -106 -18 c-150 -26 -152 -26 -92
-55 l51 -23 74 20 73 20 15 -52 15 -52 -28 16 c-26 15 -35 13 -236 -56 -114
-39 -252 -87 -305 -106 -54 -19 -98 -34 -98 -32 0 2 32 70 71 150 49 102 77
149 90 152 11 3 18 10 16 16 -5 17 -97 77 -118 77 -10 0 -52 -28 -93 -62 -41
-35 -110 -91 -153 -126 -74 -60 -75 -60 -20 -10 56 53 57 54 37 71 -25 21 -37
21 -57 2 -8 -8 -19 -13 -24 -10 -5 4 -9 1 -9 -5 0 -6 -4 -8 -10 -5 -5 3 -10 2
-10 -4 0 -10 -38 -27 -52 -23 -23 6 -1 -46 47 -113 56 -78 65 -106 43 -125 -7
-5 -52 -41 -99 -78 -84 -66 -86 -69 -74 -93 7 -13 22 -25 32 -25 10 -1 39 -5
66 -9 50 -8 63 4 25 23 -13 6 -18 11 -11 11 9 1 133 -54 174 -76 3 -2 15 18
27 44 12 29 22 42 25 33 3 -8 14 -53 25 -100 11 -47 23 -92 27 -101 5 -13 -7
-10 -51 12 -61 31 -78 31 -49 -1 16 -18 16 -21 2 -44 -9 -13 -26 -27 -37 -31
-11 -3 -20 -11 -20 -16 0 -5 -8 -9 -17 -10 -15 0 -15 -2 2 -9 34 -13 50 -38
36 -54 -10 -12 -66 -190 -162 -514 -21 -70 -16 -68 -304 -94 -77 -7 -131 -14
-120 -16 11 -1 127 -11 258 -21 131 -10 242 -22 248 -28 8 -8 7 -17 -1 -33
-18 -33 -82 -220 -89 -260 -7 -34 -7 -33 -25 35 -9 38 -22 73 -28 76 -6 4 -27
-3 -47 -15 -20 -13 -61 -37 -91 -53 -30 -17 -83 -47 -117 -66 -35 -20 -63 -33
-63 -29 0 4 -4 2 -8 -3 -4 -6 -41 -30 -82 -53 -41 -24 -86 -50 -100 -58 -117
-69 -164 -83 -240 -74 -13 2 -578 -152 -715 -194 -27 -9 -65 -16 -82 -16 -26
0 -198 64 -348 129 -11 5 -57 24 -103 43 -55 22 -81 38 -80 47 5 24 57 48 171
78 l108 28 4 95 c2 52 7 172 10 267 6 143 10 174 24 187 15 13 62 16 297 18
l279 3 15 42 c13 39 13 44 -5 63 -10 12 -45 37 -77 56 -32 20 -58 39 -58 43 0
9 78 74 107 89 28 16 45 8 61 -27 13 -29 95 -111 191 -191 88 -72 203 -178
218 -200 11 -16 18 -18 34 -10 11 6 17 15 14 20 -3 5 14 71 39 147 24 76 63
199 86 273 51 163 61 184 97 198 15 7 127 23 248 37 276 31 367 44 374 51 3 3
-7 4 -24 2 -29 -3 -32 0 -92 122 -34 69 -62 118 -62 110 -1 -8 3 -22 9 -30 5
-9 5 -19 -2 -27 -8 -10 -6 -13 5 -13 8 0 17 -6 20 -14 4 -9 0 -13 -11 -11 -9
2 -20 4 -24 4 -4 1 -5 13 -2 28 5 24 3 25 -12 12 -12 -9 -15 -10 -10 -1 5 9
-2 11 -29 7 -31 -4 -65 -18 -160 -68 -77 -40 -118 -56 -129 -50 -5 3 -6 1 -2
-5 4 -7 2 -12 -4 -12 -6 0 -35 -11 -63 -24 -29 -13 -86 -40 -128 -59 -91 -42
-125 -49 -166 -32 -23 10 -33 23 -42 58 -7 25 -10 54 -6 66 4 14 51 43 147 92
77 39 136 74 131 78 -5 3 -62 72 -127 153 -129 162 -171 208 -191 208 -7 0
-36 -25 -64 -56 -76 -83 -62 -47 16 42 42 47 136 130 245 216 98 76 180 143
183 147 5 9 -116 236 -138 259 -14 13 -243 82 -275 82 -10 0 -111 -66 -223
-146z m3311 -318 c0 -2 -7 -6 -15 -10 -8 -3 -15 -1 -15 4 0 6 7 10 15 10 8 0
15 -2 15 -4z m-1230 -36 c0 -5 -7 -7 -15 -4 -8 4 -15 8 -15 10 0 2 7 4 15 4 8
0 15 -4 15 -10z m148 -229 c42 -21 88 -48 102 -59 25 -21 25 -21 5 -36 -11 -8
-30 -16 -41 -16 -12 0 -33 -9 -47 -20 -18 -14 -26 -16 -30 -7 -3 6 -21 49 -41
95 -19 45 -33 82 -30 82 2 0 39 -17 82 -39z m1549 -96 c0 -8 -7 -15 -15 -15
-12 0 -12 3 -2 15 7 8 13 15 15 15 1 0 2 -7 2 -15z m31 -46 c3 -12 2 -12 -6 0
-6 8 -15 10 -22 6 -9 -5 -11 -4 -6 4 10 15 28 10 34 -10z m-85 -94 c4 -8 2
-17 -2 -20 -5 -2 -11 4 -14 15 -6 23 8 27 16 5z m-978 -113 c99 -49 236 -124
305 -167 107 -67 132 -79 171 -80 37 -1 61 -10 113 -44 l66 -43 -32 -38 c-43
-49 -56 -54 -86 -33 -40 29 -66 45 -144 92 -40 24 -75 47 -78 51 -3 4 -15 10
-27 14 -13 4 -23 12 -23 17 0 6 -5 7 -10 4 -6 -4 -17 -1 -25 5 -8 7 -26 9 -39
6 -25 -6 -66 -54 -70 -82 -1 -9 -9 -20 -17 -25 -8 -5 -9 -9 -4 -9 7 0 7 -3 0
-8 -6 -4 -19 -25 -30 -47 -11 -22 -23 -42 -26 -45 -4 -3 -28 -50 -54 -105 -26
-55 -51 -102 -56 -105 -4 -3 -10 -22 -14 -43 -4 -20 -10 -37 -14 -37 -8 0 -51
-94 -51 -110 0 -6 -7 -10 -15 -10 -8 0 -15 -4 -15 -8 0 -15 -74 -35 -127 -35
-49 0 -61 6 -205 100 l-153 99 1 40 c0 31 26 82 127 257 101 174 126 224 121
244 -5 19 -3 24 10 21 12 -2 33 23 72 87 62 102 85 125 123 125 14 0 107 -40
206 -88z m-3114 -50 c-123 -118 -125 -121 -80 -184 l20 -28 -23 -1 c-15 0 -18
-3 -8 -6 23 -8 40 -34 40 -60 0 -18 -6 -23 -27 -23 -16 0 -48 -9 -72 -20 -24
-11 -44 -20 -46 -20 -2 0 -22 60 -45 133 -23 72 -48 142 -56 154 -13 21 -12
24 26 43 32 16 59 20 140 20 l100 0 68 50 c37 27 69 49 72 50 3 0 -46 -49
-109 -108z m4029 93 c0 -2 -9 -3 -19 -2 -11 0 -18 5 -15 9 4 6 34 0 34 -7z m3
-50 c-7 -21 -13 -19 -13 6 0 11 4 18 10 14 5 -3 7 -12 3 -20z m-55 -48 c13 4
12 2 -3 -10 -25 -19 -35 -14 -27 16 5 17 7 18 10 5 2 -11 9 -15 20 -11z m38
11 c5 -7 9 -21 9 -32 2 -18 1 -18 -11 -1 -7 10 -11 21 -9 26 3 4 -5 10 -17 12
-23 4 -23 4 -1 6 12 0 25 -5 29 -11z m-26 -38 c0 -5 -5 -10 -11 -10 -5 0 -7 5
-4 10 3 6 8 10 11 10 2 0 4 -4 4 -10z m65 -9 c3 -5 2 -12 -3 -15 -5 -3 -9 1
-9 9 0 17 3 19 12 6z m-2572 -27 c9 -16 8 -17 -5 -7 -8 7 -17 10 -20 7 -3 -2
-8 2 -11 10 -8 21 23 13 36 -10z m2473 -217 c54 -29 107 -56 116 -60 40 -15
129 -78 123 -87 -16 -26 -85 5 -298 132 -26 15 -51 28 -56 28 -5 0 -11 6 -14
13 -3 9 -8 9 -21 -2 -9 -8 -19 -11 -22 -8 -6 6 44 36 62 37 6 0 55 -24 110
-53z m-4183 -51 c53 -32 97 -61 97 -63 0 -4 -76 36 -147 79 -18 11 -33 17 -33
14 0 -11 55 -56 68 -56 8 0 12 -6 9 -14 -3 -8 2 -20 11 -28 11 -9 14 -10 8 0
-11 19 11 14 26 -6 23 -31 88 -73 101 -66 6 4 9 3 4 -1 -4 -5 36 -34 88 -65
108 -64 149 -96 140 -110 -11 -17 -28 -8 -440 236 -129 77 -156 89 -193 88
-41 -1 -42 0 -29 20 18 26 55 35 132 32 53 -2 71 -9 158 -60z m7352 -120 c6
-4 1 -4 -10 2 -11 6 -29 21 -40 34 -19 22 -19 22 10 -2 17 -14 35 -29 40 -34z
m-5170 -66 c15 -47 37 -98 48 -115 20 -29 20 -29 1 -13 -19 17 -20 16 -22 -17
-2 -19 -7 -45 -12 -57 -6 -17 -7 -10 -3 23 5 43 2 50 -62 143 -36 54 -65 100
-63 102 11 11 74 32 79 26 3 -4 19 -45 34 -92z m-1850 -15 c11 -9 2 -7 -20 6
-22 12 -44 26 -50 32 -16 15 48 -20 70 -38z m4515 -22 c14 -9 133 -96 264
-192 l239 -175 96 33 c53 18 167 60 254 92 207 77 218 77 356 0 58 -32 133
-73 166 -91 226 -122 257 -144 268 -188 4 -18 -2 -26 -36 -46 -23 -13 -67 -32
-97 -42 -30 -11 -56 -22 -58 -26 -2 -5 -12 -8 -23 -8 -10 0 -38 -9 -61 -20
-51 -23 -219 -91 -233 -94 -11 -2 -109 -47 -163 -74 -43 -22 -76 -67 -67 -90
11 -27 14 -72 4 -66 -13 7 -7 -19 6 -28 7 -5 7 -8 0 -8 -6 0 -10 -38 -10 -96
1 -52 -2 -97 -6 -99 -9 -6 2 -59 15 -67 8 -5 7 -8 -2 -8 -10 0 -12 -12 -8 -46
3 -25 8 -50 11 -55 4 -5 1 -9 -5 -9 -6 0 -8 -10 -4 -25 4 -18 1 -32 -11 -45
-10 -11 -16 -20 -12 -20 3 0 85 87 182 193 196 212 239 253 272 262 43 10 37
14 751 -453 81 -53 82 -59 76 -284 -8 -243 -14 -298 -36 -312 -28 -17 -80 8
-263 129 -154 101 -233 152 -329 210 -18 11 -68 43 -112 70 -62 39 -88 50
-120 50 -45 0 -39 4 -190 -128 -43 -37 -115 -93 -159 -123 -86 -58 -115 -63
-115 -18 0 36 0 38 -16 55 -8 9 -11 18 -8 21 8 8 -61 -7 -76 -17 -10 -6 -12 1
-7 31 4 21 7 91 7 154 0 63 4 111 8 105 4 -5 16 -18 28 -27 20 -17 21 -17 43
6 19 20 20 24 6 30 -11 4 -14 2 -8 -7 4 -6 -4 -4 -17 5 -14 9 -24 21 -23 26 1
6 -4 13 -13 16 -10 4 -13 2 -8 -7 5 -8 4 -9 -4 -2 -7 7 -12 101 -14 270 -2
205 -6 265 -18 285 -13 23 -14 24 -18 5 -12 -65 -84 -364 -93 -387 -18 -44
-23 -45 -644 -22 -88 3 -225 6 -305 7 l-145 2 3 23 c4 29 135 371 153 400 21
33 54 42 157 43 l97 0 150 193 c82 107 156 208 164 225 25 54 2 82 -205 251
l-187 153 41 39 c45 42 74 47 112 21z m1696 -32 c-3 -4 4 -25 14 -47 26 -49
26 -49 -10 -64 -42 -17 -142 -119 -216 -218 -6 -8 -16 -12 -21 -9 -6 4 7 25
30 49 78 84 137 159 143 182 9 37 1 71 -16 68 -8 -1 -2 9 13 23 26 23 75 36
63 16z m-3917 -28 c78 -46 275 -175 306 -201 41 -34 56 -57 67 -104 5 -22 18
-60 29 -85 11 -24 17 -48 14 -53 -3 -5 0 -7 8 -4 8 3 18 1 21 -4 3 -5 -33 -15
-80 -22 -47 -7 -83 -14 -81 -17 3 -2 88 7 189 21 299 41 290 41 334 18 59 -31
164 -111 171 -130 4 -9 40 -49 81 -88 41 -39 72 -76 68 -82 -17 -27 -189 -102
-271 -118 -11 -2 -31 -6 -45 -9 -14 -2 -47 -7 -75 -11 -27 -3 -53 -8 -56 -10
-4 -2 -28 -6 -54 -9 -27 -4 -71 -10 -98 -16 -34 -6 -62 -5 -87 2 -28 8 -67 8
-151 0 -63 -6 -161 -16 -219 -22 -58 -5 -141 -16 -185 -24 -44 -7 -102 -17
-129 -20 -56 -8 -289 -91 -294 -106 -2 -5 -7 -7 -12 -4 -7 4 -139 -41 -150
-51 -2 -3 2 -9 10 -14 9 -6 10 -10 3 -10 -6 0 -15 5 -18 10 -3 6 -11 10 -16
10 -6 0 -8 -4 -4 -9 3 -5 1 -12 -5 -16 -5 -3 -10 -1 -10 4 0 6 -5 11 -11 11
-5 0 -7 -4 -4 -10 3 -5 0 -7 -8 -5 -7 3 -30 -1 -50 -10 -20 -8 -40 -15 -44
-15 -42 2 553 218 632 230 154 22 155 23 154 74 -1 34 -2 37 -8 14 -4 -21 -10
-25 -20 -18 -13 7 -13 11 0 26 13 16 12 16 -8 4 -12 -8 -19 -19 -16 -25 4 -5
-5 1 -19 13 -25 23 -28 23 -101 12 -89 -15 -84 -17 -209 88 -51 43 -107 88
-125 101 -38 29 -46 55 -28 91 15 29 417 534 468 588 39 40 74 42 136 5z
m-3515 -19 c3 -8 2 -12 -4 -9 -6 3 -10 10 -10 16 0 14 7 11 14 -7z m8737 5
c-25 -10 -184 -23 -166 -14 9 5 137 21 175 23 8 0 4 -4 -9 -9z m287 -11 c6 -6
12 -16 12 -23 0 -9 -20 -6 -75 8 -41 11 -75 23 -75 26 0 10 124 0 138 -11z
m-10958 -349 c0 -18 -5 -29 -14 -29 -20 0 -30 38 -16 55 17 21 30 9 30 -26z
m10243 -205 c131 -67 635 -358 657 -380 17 -16 21 -27 14 -32 -6 -4 -75 -90
-153 -192 -78 -102 -150 -195 -159 -207 -133 -171 -178 -223 -190 -223 -18 0
-220 89 -332 146 -47 24 -139 77 -205 118 -66 41 -146 87 -177 103 -67 32 -67
38 -9 118 79 107 84 115 64 108 -10 -4 -34 -15 -53 -26 l-35 -19 26 28 c14 16
92 104 173 197 82 92 150 167 152 167 13 0 -3 -26 -61 -103 -36 -48 -65 -88
-65 -90 0 -3 40 37 89 87 74 75 92 99 100 136 11 51 49 90 87 90 14 0 48 -12
77 -26z m-11659 -72 c2 -4 -4 -8 -14 -8 -10 0 -16 4 -14 8 3 4 9 8 14 8 5 0
11 -4 14 -8z m165 -3 c-10 -6 -6 -9 15 -9 28 0 28 -1 11 -14 -17 -12 -63 -11
-50 2 2 3 1 10 -4 16 -6 7 -1 12 16 13 19 1 22 -1 12 -8z m-71 -31 c-2 -6 -10
-13 -16 -14 -7 -1 -8 0 -2 3 5 2 8 9 4 14 -3 5 0 9 6 9 7 0 10 -5 8 -12z
m5879 -20 c-3 -7 -5 -2 -5 12 0 14 2 19 5 13 2 -7 2 -19 0 -25z m-5820 -3 c0
-8 -4 -12 -9 -9 -5 3 -6 10 -3 15 9 13 12 11 12 -6z m5830 -37 c-3 -8 -6 -5
-6 6 -1 11 2 17 5 13 3 -3 4 -12 1 -19z m10 -40 c-3 -8 -6 -5 -6 6 -1 11 2 17
5 13 3 -3 4 -12 1 -19z m-2828 -32 c12 -11 21 -31 21 -46 0 -22 -16 -39 -92
-96 -51 -38 -97 -71 -103 -73 -5 -2 -21 -15 -34 -28 -14 -12 -29 -23 -33 -23
-4 0 -20 -12 -35 -26 -28 -25 -28 -28 -30 -151 -1 -69 -4 -127 -6 -129 -6 -6
-67 17 -65 24 5 16 -13 92 -21 92 -5 0 -7 8 -4 19 2 10 -2 25 -11 33 -8 9 -12
18 -9 22 4 3 1 6 -6 6 -7 0 -10 4 -7 9 6 10 -27 51 -41 51 -19 0 -45 38 -41
61 5 35 55 63 198 109 95 31 130 47 130 59 0 9 7 25 15 35 8 11 15 33 15 49
l0 29 69 -4 c50 -2 75 -9 90 -22z m2838 -8 c-3 -8 -6 -5 -6 6 -1 11 2 17 5 13
3 -3 4 -12 1 -19z m2316 -52 l37 -30 -44 -28 c-24 -16 -53 -30 -65 -31 -12 -1
-21 -5 -21 -10 0 -4 -4 -5 -10 -2 -5 3 -10 2 -10 -4 0 -5 -10 -12 -22 -16 -33
-9 -72 -28 -80 -40 -4 -5 -8 1 -8 15 0 18 23 48 82 107 45 45 86 79 92 76 6
-4 28 -20 49 -37z m-2306 2 c-3 -7 -5 -2 -5 12 0 14 2 19 5 13 2 -7 2 -19 0
-25z m1230 -54 c-3 -3 -12 -4 -19 -1 -8 3 -5 6 6 6 11 1 17 -2 13 -5z m-1210
-26 c-3 -8 -6 -5 -6 6 -1 11 2 17 5 13 3 -3 4 -12 1 -19z m1098 12 c3 5 18 9
33 9 17 -1 21 -3 10 -6 -10 -2 -18 -9 -18 -14 0 -6 -4 -8 -9 -5 -5 3 -32 -4
-60 -16 -28 -11 -55 -17 -59 -13 -4 4 -1 10 6 12 17 7 15 23 -4 23 -11 0 -14
-8 -12 -26 3 -24 -2 -28 -42 -40 -25 -7 -61 -22 -80 -32 -19 -11 -53 -25 -75
-31 -50 -15 -88 -33 -97 -46 -4 -5 -50 -10 -104 -11 -53 -1 -91 2 -84 6 7 5
10 17 6 31 l-7 24 14 -23 c11 -20 15 -21 25 -9 7 7 9 16 7 19 -3 3 4 8 15 11
17 4 19 3 9 -9 -19 -23 -2 -16 21 8 17 19 20 19 20 4 0 -9 4 -15 9 -11 6 3 15
-3 21 -12 10 -16 11 -16 6 -1 -7 23 9 31 35 18 24 -13 41 -4 19 10 -9 6 -10
10 -3 10 6 0 15 -5 19 -11 5 -8 10 -6 16 5 5 9 13 14 19 11 5 -3 6 1 3 9 -7
19 21 22 32 4 4 -6 3 -8 -3 -5 -5 3 -10 0 -10 -8 0 -21 27 3 27 24 1 13 3 13
15 -3 8 -11 15 -14 15 -8 0 7 7 12 16 12 11 0 14 6 9 23 -4 12 -3 17 2 11 9
-14 65 -16 57 -3 -3 5 -2 9 3 8 18 -3 33 2 33 11 0 5 -6 8 -12 6 -7 -1 -10 -1
-5 1 4 3 5 8 2 13 -3 5 3 7 12 6 10 -2 26 2 35 8 13 8 21 7 29 -1 9 -9 15 -8
26 3 10 10 19 11 33 4 13 -7 21 -7 25 0z m-275 -24 c0 -3 -4 -8 -10 -11 -5 -3
-10 -1 -10 4 0 6 5 11 10 11 6 0 10 -2 10 -4z m25 -6 c3 -5 1 -10 -4 -10 -6 0
-11 5 -11 10 0 6 2 10 4 10 3 0 8 -4 11 -10z m-838 -22 c-3 -8 -6 -5 -6 6 -1
11 2 17 5 13 3 -3 4 -12 1 -19z m788 -19 c-4 -5 -12 -9 -18 -8 -9 0 -8 2 1 6
6 2 9 10 6 15 -4 7 -2 8 5 4 6 -4 9 -12 6 -17z m45 6 c0 -8 -4 -15 -10 -15 -5
0 -7 7 -4 15 4 8 8 15 10 15 2 0 4 -7 4 -15z m-219 -28 c-10 -9 -11 -8 -5 6 3
10 9 15 12 12 3 -3 0 -11 -7 -18z m103 -13 c3 -7 -2 -10 -15 -7 -22 6 -26 20
-4 20 8 0 16 -6 19 -13z m-399 -54 c3 -5 1 -10 -4 -10 -6 0 -11 5 -11 10 0 6
2 10 4 10 3 0 8 -4 11 -10z m143 -26 c7 4 12 3 12 -3 0 -10 -48 -21 -82 -19
-20 1 -24 23 -6 34 6 4 8 3 5 -3 -4 -6 4 -13 17 -15 19 -4 22 -1 18 16 -4 20
-4 20 10 2 8 -10 20 -16 26 -12z m-98 -9 c0 -9 -9 -15 -22 -15 -21 0 -21 0 -2
15 24 18 24 18 24 0z m-90 -5 c0 -17 -41 -33 -54 -20 -8 8 -7 10 5 5 10 -4 23
0 30 9 17 18 19 19 19 6z m35 -11 c-4 -5 -12 -9 -18 -8 -9 0 -8 2 1 6 6 2 9
10 6 15 -4 7 -2 8 5 4 6 -4 9 -12 6 -17z m-105 -8 c0 -5 -11 -8 -25 -8 -13 0
-22 3 -19 8 3 5 14 9 25 9 10 0 19 -4 19 -9z m-346 -510 l29 -43 -31 -102
c-16 -55 -51 -176 -77 -268 l-48 -167 -44 47 c-64 67 -75 86 -67 116 3 14 11
26 16 26 5 0 16 7 24 15 9 8 13 15 10 15 -3 0 2 9 11 19 9 11 21 17 26 14 6
-3 7 -1 3 5 -3 6 1 18 10 26 9 9 17 22 18 29 1 6 6 18 10 26 5 8 10 33 11 57
2 34 -2 47 -22 66 -14 13 -28 21 -31 18 -4 -3 -8 5 -10 18 -2 13 -8 20 -15 16
-7 -3 16 22 50 56 39 38 69 60 80 58 10 -2 30 -23 47 -47z m-4016 -21 c-7 -10
-14 -17 -17 -15 -4 4 18 35 25 35 2 0 -1 -9 -8 -20z m-318 -90 c0 -5 -4 -10
-10 -10 -5 0 -10 5 -10 10 0 6 5 10 10 10 6 0 10 -4 10 -10z m-30 -14 c0 -3
-4 -8 -10 -11 -5 -3 -10 -1 -10 4 0 6 5 11 10 11 6 0 10 -2 10 -4z m7080 -120
c0 -41 -1 -43 -25 -38 -14 2 -25 10 -25 17 0 12 37 65 46 65 2 0 4 -20 4 -44z
m-8593 -18 c-3 -8 -6 -5 -6 6 -1 11 2 17 5 13 3 -3 4 -12 1 -19z m8043 10 c0
-7 4 -7 13 -1 8 7 38 5 87 -3 41 -8 83 -12 92 -10 10 2 20 1 23 -4 2 -4 24
-10 47 -14 24 -4 59 -14 78 -23 43 -19 87 -70 73 -84 -10 -10 -314 -13 -403
-4 -25 2 -94 7 -155 10 -205 10 -370 27 -383 39 -10 10 -9 18 8 39 44 56 89
65 338 65 121 1 182 -3 182 -10z m-7985 -66 c-3 -3 -11 0 -18 7 -9 10 -8 11 6
5 10 -3 15 -9 12 -12z m1924 -85 c0 -8 -2 -8 -6 1 -4 10 -8 10 -21 0 -15 -12
-16 -11 -3 4 14 19 32 15 30 -5z m5473 -126 c296 -60 337 -71 365 -95 l26 -22
-228 -167 c-196 -144 -232 -167 -264 -167 -51 0 -171 26 -626 136 -180 43
-263 60 -277 56 -12 -3 -10 24 4 53 14 31 211 155 246 155 13 0 52 -7 86 -16
92 -24 171 -15 297 33 59 22 119 47 135 56 16 8 32 15 36 16 4 1 94 -17 200
-38z m-5298 11 c3 -5 -1 -9 -9 -9 -8 0 -12 4 -9 9 3 4 7 8 9 8 2 0 6 -4 9 -8z
m8072 -39 c28 -14 124 -139 124 -161 0 -34 -66 -44 -430 -67 -135 -9 -270 -17
-300 -20 -30 -2 -98 -6 -150 -10 -52 -3 -126 -11 -163 -17 -82 -12 -93 -6
-102 60 -7 53 5 96 32 110 10 5 77 12 148 16 117 6 194 14 280 30 17 3 62 10
100 16 39 5 95 16 125 24 46 12 50 14 25 16 -56 5 53 16 170 17 82 1 118 -2
141 -14z m-6689 -35 c-3 -7 -5 -2 -5 12 0 14 2 19 5 13 2 -7 2 -19 0 -25z
m7933 17 c146 -11 746 -65 785 -71 51 -8 91 -28 100 -51 4 -10 35 -102 70
-205 75 -220 75 -218 -33 -218 -57 0 -255 16 -428 34 -259 28 -526 47 -604 44
l-95 -3 -12 60 c-26 126 -37 291 -24 350 11 47 16 56 39 61 15 3 32 7 37 9 6
2 28 2 50 0 22 -3 74 -7 115 -10z m-7913 -245 l0 -55 -7 65 c-4 36 -8 88 -7
115 l0 50 7 -60 c4 -33 8 -85 7 -115z m938 88 c24 -21 105 -196 151 -326 11
-31 25 -52 34 -52 8 0 78 -7 155 -15 77 -8 147 -15 155 -15 13 0 15 -23 15
-142 0 -79 4 -231 8 -338 5 -107 4 -190 0 -183 -4 6 -23 13 -42 15 -34 4 -34
5 -100 166 -49 120 -67 156 -71 140 -4 -17 -24 -30 -75 -51 -39 -16 -218 -89
-400 -162 -181 -74 -370 -150 -418 -170 -48 -19 -108 -38 -132 -42 -41 -5 -45
-4 -63 26 -27 44 -170 529 -186 632 -14 89 -29 129 -47 129 -21 0 13 41 50 60
38 19 801 324 851 340 47 15 88 11 115 -12z m-1965 -303 c0 -1 -9 -5 -19 -8
-13 -3 -18 -1 -14 9 4 10 33 10 33 -1z m8330 -98 c0 -14 -4 -16 -18 -8 -14 7
-17 18 -14 48 l5 38 13 -30 c7 -16 13 -38 14 -48z m-8340 59 c0 -3 -4 -8 -10
-11 -5 -3 -10 -1 -10 4 0 6 5 11 10 11 6 0 10 -2 10 -4z m3790 -86 c21 -12 10
-19 -36 -22 -21 -2 -42 -7 -46 -13 -8 -11 20 -45 37 -45 7 0 15 -7 19 -15 3
-8 12 -15 20 -15 8 0 32 -12 53 -26 l38 -25 6 23 c9 31 8 -151 -1 -232 -5 -46
-8 -55 -10 -30 -1 19 -4 27 -7 18 -3 -11 -12 -15 -29 -12 -13 2 -24 1 -24 -4
0 -16 -72 -32 -87 -20 -10 8 -13 4 -15 -18 -3 -54 -15 201 -17 349 l-1 148 43
-26 c23 -14 49 -30 57 -35z m-2937 -130 c38 -36 75 -77 83 -92 15 -29 19 -52
5 -30 -6 11 -124 -25 -538 -162 -292 -97 -541 -176 -553 -176 -25 0 -146 113
-225 210 -105 130 -189 225 -197 223 -11 -4 -10 12 4 41 12 28 80 66 116 66
13 0 38 -7 57 -14 19 -8 35 -12 35 -8 0 3 5 1 12 -6 7 -7 20 -12 30 -12 10 0
18 -4 18 -10 0 -5 3 -9 8 -8 14 5 102 -25 102 -34 0 -6 7 -8 15 -4 8 3 15 1
15 -4 0 -5 7 -7 15 -4 8 4 15 1 15 -5 0 -6 3 -10 8 -9 4 1 20 -4 35 -10 16 -7
33 -10 38 -6 5 3 9 -1 9 -9 0 -8 6 -15 13 -14 35 1 48 -4 41 -15 -5 -9 -2 -9
9 1 9 7 17 9 17 4 0 -10 55 -27 151 -47 80 -17 135 -9 211 31 29 15 60 28 68
29 8 2 23 12 32 24 9 11 20 20 24 19 6 -2 35 16 58 36 6 6 28 19 48 29 21 11
35 24 31 30 -3 6 -2 8 2 3 5 -4 15 -1 24 7 24 21 54 24 76 7 11 -8 51 -45 88
-81z m4829 -173 c48 -50 78 -90 78 -104 0 -12 6 -24 13 -26 6 -3 0 -6 -14 -6
-14 -1 -29 2 -33 6 -7 8 -28 12 -99 20 -33 3 -54 0 -71 -10 -13 -9 -54 -68
-91 -132 -37 -64 -68 -115 -70 -113 -1 2 -5 43 -9 91 l-7 88 31 10 c40 14 60
55 60 122 0 30 3 75 6 100 l7 46 61 -5 61 -5 77 -82z m4365 20 c26 -11 26 -9
1 -102 -10 -39 -10 -39 -27 -19 -9 11 -23 18 -30 16 -8 -3 -11 0 -8 6 4 5 0
15 -7 21 -8 7 -13 23 -11 36 1 14 -2 22 -6 19 -5 -3 -9 -17 -10 -32 -1 -15 -5
-38 -10 -52 -6 -18 -7 -11 -3 25 10 105 12 108 51 100 19 -3 46 -11 60 -18z
m-1478 -13 c2 -2 17 -106 32 -231 36 -285 42 -296 182 -311 l62 -7 -3 -70 c-3
-71 -13 -95 -41 -95 -34 0 -80 -39 -91 -77 -22 -78 -98 -667 -87 -681 6 -7 -4
-5 -21 5 -18 10 -32 22 -32 26 0 5 -4 5 -10 2 -5 -3 -10 -1 -10 5 0 6 -4 8
-10 5 -5 -3 -10 -2 -10 2 0 5 -16 15 -35 22 -19 7 -35 17 -35 22 0 6 -4 7 -10
4 -5 -3 -10 -2 -10 3 0 6 -11 13 -25 16 -14 4 -25 11 -25 17 0 6 -4 7 -10 4
-5 -3 -10 -1 -10 4 0 6 -3 10 -7 9 -13 -3 -63 24 -63 34 0 4 -4 7 -8 5 -12 -3
-82 36 -82 46 0 4 -4 5 -10 2 -5 -3 -10 -1 -10 4 0 6 -3 10 -7 9 -10 -3 -76
32 -84 44 -3 5 -10 10 -15 10 -5 0 -8 5 -6 10 2 6 13 95 25 198 l21 188 124
83 c77 52 130 95 139 113 9 17 30 146 51 312 l36 283 45 -6 c25 -3 48 -7 50
-9z m1358 -146 c-3 -8 -6 -5 -6 6 -1 11 2 17 5 13 3 -3 4 -12 1 -19z m93 5 c0
-10 -4 -14 -8 -8 -4 6 -11 13 -16 18 -5 4 -2 7 7 7 10 0 17 -8 17 -17z m-4137
-13 c10 0 15 -4 12 -10 -3 -6 1 -7 9 -4 23 9 396 -58 389 -69 -3 -6 -1 -7 6
-3 6 4 37 4 69 0 49 -7 53 -9 27 -14 l-30 -6 37 -12 c44 -15 55 -43 51 -121
-4 -68 -25 -155 -60 -246 -40 -104 -57 -125 -101 -125 -47 0 -667 120 -826
159 -66 17 -124 35 -129 40 -5 5 -7 18 -3 28 4 10 7 19 7 20 0 1 24 26 54 57
29 30 51 56 49 59 -3 3 4 8 15 12 12 3 19 10 16 15 -3 5 3 13 12 19 10 6 15
11 11 11 -5 0 1 9 12 20 12 12 25 18 30 15 6 -3 7 1 4 9 -4 11 0 16 10 16 9 0
16 4 16 9 0 5 9 13 20 16 11 4 18 10 15 15 -4 7 34 23 60 25 6 0 25 11 43 23
22 16 48 24 82 25 52 2 66 13 28 20 -13 2 -7 3 12 1 19 -2 43 -4 53 -4z
m-4793 -68 c0 -7 -4 -10 -10 -7 -5 3 -10 16 -10 28 0 18 2 19 10 7 5 -8 10
-21 10 -28z m4256 0 c14 -35 1 -72 -25 -72 -28 0 -32 23 -10 59 11 18 14 29 8
25 -8 -4 -9 -3 -5 4 11 19 21 14 32 -16z m1111 -38 c-3 -3 -12 -4 -19 -1 -8 3
-5 6 6 6 11 1 17 -2 13 -5z m250 -81 c-4 -3 3 -17 15 -31 13 -13 22 -27 21
-30 -2 -4 0 -15 3 -25 10 -33 -5 -30 -53 9 -26 21 -52 38 -58 36 -5 -1 3 9 18
23 15 14 35 25 44 25 9 0 13 -3 10 -7z m3388 -150 c-3 -16 -12 -109 -20 -207
-8 -99 -17 -182 -20 -185 -3 -2 -15 5 -26 16 l-21 21 27 163 c24 144 45 219
60 219 2 0 2 -12 0 -27z m-3495 -111 c0 -11 -9 -142 -21 -293 -11 -151 -18
-291 -14 -312 5 -35 4 -37 -13 -28 -39 21 -43 36 -33 103 6 34 18 169 27 298
10 145 21 238 28 242 18 12 26 9 26 -10z m525 -7 c36 -5 104 -10 439 -30 256
-16 265 -16 366 10 3 1 12 4 20 8 8 3 32 10 53 16 35 9 41 7 70 -21 18 -17 24
-25 14 -18 -15 11 -17 10 -11 -3 7 -19 -3 -22 -236 -72 -498 -108 -549 -119
-616 -135 -28 -7 -64 -10 -80 -6 -38 10 -229 204 -236 241 l-6 27 97 -6 c53
-4 110 -9 126 -11z m784 -471 c2 -2 -5 -4 -16 -4 -12 0 -24 -7 -27 -16 -4 -12
-2 -15 9 -10 8 3 14 2 14 -2 -3 -20 2 -33 11 -27 5 3 18 1 27 -5 16 -9 15 -10
-4 -5 -19 5 -23 2 -24 -17 0 -13 -3 -17 -6 -10 -2 6 -9 10 -13 7 -5 -3 -12 0
-16 6 -4 7 -3 9 4 5 15 -9 23 7 12 24 -12 19 -20 10 -24 -26 -4 -28 -2 -30 29
-29 21 1 31 -3 29 -10 -3 -6 -19 -11 -37 -11 -25 1 -32 -3 -31 -16 3 -42 4
-44 13 -29 7 10 13 11 31 1 20 -11 22 -10 17 5 -8 19 10 41 33 40 9 0 15 -9
14 -23 -1 -17 2 -20 9 -13 12 12 37 -3 37 -22 0 -6 -7 -2 -15 9 -14 18 -15 17
-10 -13 3 -19 1 -33 -5 -33 -10 0 -14 15 -10 35 1 5 -2 6 -7 2 -4 -5 -8 -14
-8 -20 0 -7 -4 -12 -10 -12 -5 0 -9 5 -7 10 2 6 0 7 -4 2 -4 -4 -16 0 -26 10
-10 9 -18 11 -18 6 0 -6 7 -13 15 -17 8 -3 12 -12 9 -21 -5 -11 -2 -14 12 -9
18 5 18 5 2 -6 -15 -9 -15 -14 -5 -24 6 -8 15 -12 20 -9 14 8 7 -5 -10 -18 -9
-8 -14 -9 -10 -2 4 6 3 13 -3 15 -6 2 -12 14 -15 27 -2 14 -9 29 -15 35 -8 8
-9 6 -4 -8 6 -15 4 -17 -7 -11 -8 4 -11 5 -7 0 4 -4 3 -14 -3 -21 -7 -8 -7
-14 1 -19 6 -4 9 -2 8 3 -2 6 2 10 7 11 6 1 10 -3 9 -9 -1 -5 -2 -17 -2 -26
-1 -8 -6 -12 -12 -9 -5 3 -10 0 -10 -7 0 -9 -3 -9 -10 2 -7 11 -10 7 -10 -17
0 -38 15 -52 23 -21 4 12 9 19 13 15 4 -4 13 1 21 11 12 15 12 14 2 -9 -16
-38 -44 -52 -64 -32 -9 8 -14 22 -11 29 3 7 0 16 -6 20 -6 4 -8 3 -4 -4 3 -6
2 -13 -4 -17 -5 -3 -10 -11 -10 -16 0 -6 5 -7 10 -4 6 3 10 2 10 -3 0 -6 -13
-15 -30 -21 -18 -6 -30 -6 -30 0 0 5 8 9 18 9 12 0 18 9 19 28 2 24 -2 28 -25
29 -17 1 -21 -1 -12 -5 32 -15 21 -49 -14 -43 -5 1 -6 -5 -2 -14 4 -10 2 -14
-5 -9 -6 4 -15 0 -20 -7 -8 -12 -11 -12 -18 1 -6 8 -14 11 -18 6 -4 -5 -3 -11
4 -13 8 -3 9 -13 3 -34 -5 -16 -7 -29 -5 -29 2 0 10 -3 19 -6 9 -3 16 -1 16 6
0 6 -3 9 -7 7 -5 -3 -8 6 -8 19 0 13 5 22 10 20 6 -1 9 -10 7 -20 -2 -9 2 -16
8 -16 6 0 8 5 5 10 -3 6 -1 10 4 10 6 0 11 -12 11 -27 0 -22 -2 -25 -11 -13
-8 13 -9 13 -7 -2 2 -9 -6 -23 -16 -31 -18 -14 -18 -14 6 -19 21 -4 25 -1 24
16 -1 14 4 20 14 17 8 -2 20 -4 27 -4 7 0 9 -5 6 -10 -4 -6 1 -8 11 -4 11 5
15 3 10 -5 -5 -8 -2 -9 9 -5 9 3 19 2 22 -4 4 -5 11 -6 17 -3 6 4 0 13 -16 21
-15 8 -24 18 -21 23 3 5 1 11 -5 15 -5 3 -10 11 -10 16 0 6 5 7 10 4 6 -3 10
1 10 10 0 9 -4 13 -10 10 -5 -3 -10 -1 -10 5 0 7 7 9 16 6 8 -3 12 -2 9 4 -8
13 16 13 35 -1 12 -8 12 -9 -5 -7 -12 2 -21 -4 -23 -15 -5 -25 6 -67 18 -67 5
0 6 7 3 17 -4 11 -3 14 5 9 7 -4 12 -2 12 5 0 22 11 2 15 -27 2 -16 2 -23 -1
-16 -3 6 -10 12 -15 12 -6 0 -8 -4 -5 -9 3 -5 -1 -14 -10 -21 -8 -7 -12 -20
-9 -28 4 -12 2 -12 -8 -4 -8 7 -17 9 -20 5 -4 -3 -7 -1 -7 5 0 7 7 12 16 12 8
0 12 4 9 10 -4 6 -13 5 -25 -2 -10 -7 -17 -15 -14 -19 2 -4 0 -10 -5 -14 -6
-3 -8 6 -5 21 4 20 1 25 -10 21 -10 -4 -13 -1 -9 9 3 7 0 14 -6 14 -6 0 -11
-12 -11 -26 0 -14 4 -23 10 -19 6 3 10 -1 10 -9 0 -20 -16 -21 -28 -1 -7 14
-22 18 -73 24 -3 1 -11 12 -17 25 -14 31 -51 32 -45 1 2 -11 -4 -6 -15 14 -12
21 -22 30 -26 22 -4 -6 -3 -11 2 -11 5 0 15 -13 22 -30 12 -28 33 -43 28 -19
-2 6 5 13 15 14 13 3 17 -2 15 -18 -2 -12 -7 -25 -13 -29 -6 -5 -5 -8 3 -8 7
0 15 7 18 15 8 19 43 14 59 -9 7 -9 22 -18 33 -19 17 -1 19 -4 10 -15 -8 -9
-8 -16 -1 -20 13 -9 13 -42 0 -42 -5 0 -7 7 -4 14 4 10 1 13 -8 10 -18 -7 -8
-31 16 -37 10 -3 17 -1 13 4 -9 15 6 10 23 -7 14 -13 14 -17 2 -25 -8 -5 -12
-9 -9 -10 3 0 12 -2 22 -4 13 -2 15 3 12 24 -5 23 -3 24 8 10 7 -9 23 -23 36
-31 19 -13 20 -16 7 -22 -9 -3 -13 -2 -10 3 6 11 -13 26 -22 17 -10 -10 18
-35 33 -29 17 6 18 -4 1 -21 -10 -10 -15 -10 -24 -1 -7 7 -9 16 -5 20 4 4 -3
5 -14 1 -15 -4 -24 -2 -28 9 -3 8 -12 15 -21 15 -8 0 -14 5 -12 11 1 6 -4 14
-11 16 -8 3 -10 -1 -5 -14 4 -13 0 -11 -18 8 -14 14 -31 23 -38 21 -8 -3 -11
0 -7 6 7 11 -15 22 -45 22 -11 0 -18 4 -14 9 7 12 -29 33 -39 24 -3 -3 -6 -1
-6 5 0 7 -9 12 -21 12 -11 0 -17 4 -14 10 3 5 -3 10 -14 10 -12 0 -21 5 -21
10 0 6 -7 10 -16 10 -8 0 -12 4 -9 10 3 5 0 7 -8 4 -8 -3 -20 2 -27 11 -7 8
-19 15 -28 15 -9 0 -25 8 -36 19 -12 10 -41 29 -66 42 -25 13 -54 31 -65 40
-11 9 -37 23 -57 30 -21 7 -38 17 -38 21 0 4 -8 8 -18 8 -10 0 -27 7 -38 15
-12 8 -23 13 -26 12 -2 -1 6 6 17 16 12 10 100 55 196 99 96 43 243 111 328
150 85 39 169 74 185 78 28 7 74 3 85 -6z m131 -70 c0 -2 -9 0 -20 6 -11 6
-20 13 -20 16 0 2 9 0 20 -6 11 -6 20 -13 20 -16z m-54 -29 c-2 -7 -2 -16 2
-20 4 -4 7 -12 7 -18 0 -18 31 -20 48 -3 13 14 16 14 21 0 10 -25 7 -52 -6
-60 -7 -5 -8 -2 -3 7 5 8 5 11 1 7 -4 -3 -7 -10 -7 -15 1 -10 24 -11 31 -1 3
4 12 3 20 -2 13 -9 13 -10 0 -10 -13 0 -13 -1 0 -10 12 -8 11 -10 -7 -10 -16
0 -21 -4 -16 -15 3 -10 0 -15 -8 -13 -8 2 -13 -3 -11 -9 1 -7 -2 -13 -7 -13
-12 0 -20 38 -16 72 3 23 -5 33 -46 63 -51 36 -62 61 -31 68 23 5 34 -2 28
-18z m44 -9 c0 -12 -13 -36 -19 -36 -4 0 -7 9 -8 20 -1 11 4 20 13 20 8 0 14
-2 14 -4z m-137 -41 c-3 -9 -8 -14 -10 -11 -3 3 -2 9 2 15 9 16 15 13 8 -4z
m-7764 -112 c7 -60 19 -134 26 -166 11 -50 11 -57 -2 -53 -22 9 -91 -9 -337
-90 -125 -41 -230 -74 -231 -72 -5 5 -25 144 -25 170 0 20 9 26 68 42 190 54
340 107 358 127 11 12 21 42 24 72 5 50 5 50 50 62 25 7 48 13 51 14 3 0 12
-47 18 -106z m8010 69 c-1 -15 -2 -15 -6 1 -2 9 -9 14 -15 11 -7 -4 -8 -2 -4
5 10 15 26 4 25 -17z m-119 -32 c0 -13 -7 -20 -20 -20 -23 0 -26 10 -8 28 18
18 28 15 28 -8z m-45 -20 c18 -20 17 -20 -19 -20 -24 0 -35 4 -30 11 3 6 15 8
26 6 16 -4 17 -3 7 9 -18 22 -5 17 16 -6z m35 -36 c-1 -4 4 -11 12 -16 11 -8
10 -9 -1 -6 -8 2 -15 15 -17 29 -1 13 0 18 2 12 3 -7 5 -15 4 -19z m-8548 -21
c20 -23 29 -97 16 -133 -8 -24 -18 -31 -61 -39 -73 -15 -183 -32 -241 -37 -28
-3 -53 -7 -56 -9 -15 -9 -147 -16 -167 -8 -33 12 -11 34 82 81 65 33 291 132
355 155 30 11 57 7 72 -10z m8605 1 c-3 -3 -12 -4 -19 -1 -8 3 -5 6 6 6 11 1
17 -2 13 -5z m29 -19 c1 -14 -2 -25 -6 -25 -6 0 -7 36 -1 48 4 7 6 -1 7 -23z
m-146 7 c0 -5 -7 -9 -15 -9 -8 0 -12 4 -9 9 3 4 9 8 15 8 5 0 9 -4 9 -8z m80
-22 c0 -3 -8 -6 -18 -6 -10 0 -18 8 -18 17 0 13 4 14 18 5 10 -6 18 -13 18
-16z m98 -5 c-3 -3 -9 2 -12 12 -6 14 -5 15 5 6 7 -7 10 -15 7 -18z m-182 -10
c-3 -9 0 -15 8 -15 15 0 16 -24 1 -37 -4 -4 -5 -3 -2 3 4 7 0 14 -8 17 -9 4
-12 1 -8 -9 3 -7 0 -14 -6 -14 -15 0 -14 -16 3 -33 8 -7 11 -19 7 -26 -12 -19
-45 24 -38 49 4 16 2 20 -9 16 -8 -3 -14 -1 -14 5 0 7 10 9 25 5 14 -4 24 -3
23 1 -3 11 12 53 19 53 3 0 3 -7 -1 -15z m74 -13 c0 -4 -9 -8 -19 -8 -11 0
-17 4 -15 8 3 4 12 8 20 8 8 0 14 -4 14 -8z m38 -37 c-3 -3 -9 2 -12 12 -6 14
-5 15 5 6 7 -7 10 -15 7 -18z m-223 4 c-4 -5 -14 -9 -24 -9 -15 0 -18 -7 -16
-40 2 -33 -1 -40 -16 -40 -14 0 -19 7 -19 25 0 14 -8 29 -20 35 -25 14 -17 30
12 25 11 -3 27 -1 34 3 20 11 55 12 49 1z m265 -32 c11 -5 9 -6 -4 -4 -11 1
-21 9 -23 17 -3 10 -2 11 4 4 4 -6 15 -14 23 -17z m-120 1 c0 -5 5 -6 10 -3 6
3 10 2 10 -4 0 -18 -15 -19 -32 -1 -15 14 -15 17 -3 17 8 0 15 -4 15 -9z m60
-2 c0 -3 -4 -8 -10 -11 -5 -3 -10 -1 -10 4 0 6 5 11 10 11 6 0 10 -2 10 -4z
m-170 -21 c0 -8 -2 -15 -4 -15 -2 0 -6 7 -10 15 -3 8 -1 15 4 15 6 0 10 -7 10
-15z m115 -23 c16 -20 16 -22 2 -16 -12 4 -17 1 -18 -12 0 -18 -1 -17 -8 1 -6
15 -3 66 3 53 1 -2 10 -13 21 -26z m41 -50 c1 -7 0 -8 -3 -2 -2 5 -9 8 -14 4
-5 -3 -9 0 -9 6 0 15 23 7 26 -8z m-96 -52 c0 -5 -2 -10 -4 -10 -3 0 -8 5 -11
10 -3 6 -1 10 4 10 6 0 11 -4 11 -10z m30 0 c0 -5 -4 -10 -10 -10 -5 0 -10 5
-10 10 0 6 5 10 10 10 6 0 10 -4 10 -10z m-80 -24 c0 -2 -8 -10 -17 -17 -16
-13 -17 -12 -4 4 13 16 21 21 21 13z m-54 -15 c-4 -5 0 -11 6 -14 7 -2 1 -4
-14 -3 -20 1 -24 4 -16 14 12 14 32 17 24 3z m8 -39 c3 -5 -1 -9 -9 -9 -8 0
-12 4 -9 9 3 4 7 8 9 8 2 0 6 -4 9 -8z m99 -99 c-7 -2 -13 -9 -13 -14 0 -6 5
-7 10 -4 15 9 12 -4 -4 -20 -18 -18 -24 -11 -18 20 2 15 11 25 21 24 10 0 11
-2 4 -6z"/>
<path d="M9488 4418 c-15 -15 -15 -17 -1 -22 20 -8 25 -3 21 21 -3 17 -4 17
-20 1z"/>
<path d="M7188 4723 c12 -2 30 -2 40 0 9 3 -1 5 -23 4 -22 0 -30 -2 -17 -4z"/>
<path d="M7128 4713 c6 -2 18 -2 25 0 6 3 1 5 -13 5 -14 0 -19 -2 -12 -5z"/>
<path d="M7063 4703 c9 -2 23 -2 30 0 6 3 -1 5 -18 5 -16 0 -22 -2 -12 -5z"/>
<path d="M6827 4365 c-4 -8 -2 -17 4 -20 5 -4 8 -1 7 7 -2 7 3 12 10 10 8 -1
11 2 7 8 -9 14 -22 12 -28 -5z"/>
<path d="M6730 4108 c0 -11 12 -10 30 2 12 7 10 9 -8 7 -12 0 -22 -5 -22 -9z"/>
<path d="M8508 1923 c7 -3 16 -2 19 1 4 3 -2 6 -13 5 -11 0 -14 -3 -6 -6z"/>
<path d="M8970 1846 c0 -2 9 -6 20 -9 11 -3 20 -1 20 4 0 5 -9 9 -20 9 -11 0
-20 -2 -20 -4z"/>
<path d="M10440 929 c-22 -18 -22 -19 -3 -10 12 6 25 16 28 21 9 15 3 12 -25
-11z"/>
<path d="M10440 906 c0 -2 9 -6 20 -9 11 -3 20 -1 20 4 0 5 -9 9 -20 9 -11 0
-20 -2 -20 -4z"/>
<path d="M10370 860 c0 -5 4 -10 9 -10 6 0 13 5 16 10 3 6 -1 10 -9 10 -9 0
-16 -4 -16 -10z"/>
<path d="M10430 860 c0 -5 5 -10 10 -10 6 0 10 5 10 10 0 6 -4 10 -10 10 -5 0
-10 -4 -10 -10z"/>
<path d="M10570 840 c0 -5 5 -10 11 -10 5 0 7 5 4 10 -3 6 -8 10 -11 10 -2 0
-4 -4 -4 -10z"/>
<path d="M10462 816 c7 -8 15 -12 17 -11 5 6 -10 25 -20 25 -5 0 -4 -6 3 -14z"/>
<path d="M10496 803 c-6 -14 -5 -15 5 -6 7 7 10 15 7 18 -3 3 -9 -2 -12 -12z"/>
<path d="M10324 795 c3 -23 12 -26 13 -5 1 11 -2 20 -7 20 -4 0 -7 -7 -6 -15z"/>
<path d="M10376 794 c-20 -19 -20 -21 -1 -21 8 0 13 3 10 5 -3 3 0 11 6 19 16
18 4 16 -15 -3z"/>
<path d="M10434 755 c-5 -12 -10 -13 -20 -4 -19 16 -18 4 2 -15 23 -23 37 -20
28 7 -6 22 -6 22 22 -3 l29 -25 -24 28 c-28 32 -30 32 -37 12z"/>
<path d="M10339 724 c6 -12 7 -24 4 -28 -3 -3 -1 -6 5 -6 16 0 15 12 -4 36
-15 18 -15 18 -5 -2z"/>
<path d="M10299 643 c0 -5 -2 -18 -3 -30 -3 -26 9 -31 18 -8 3 8 1 15 -4 15
-5 0 -7 7 -4 15 4 8 3 15 0 15 -3 0 -6 -3 -7 -7z"/>
<path d="M10260 571 c0 -6 4 -13 10 -16 6 -3 7 1 4 9 -7 18 -14 21 -14 7z"/>
<path d="M10299 580 c0 -3 -2 -13 -4 -22 -2 -10 1 -18 5 -18 15 0 19 15 9 30
-5 8 -9 13 -10 10z"/>
<path d="M10150 560 c0 -5 5 -10 11 -10 5 0 7 5 4 10 -3 6 -8 10 -11 10 -2 0
-4 -4 -4 -10z"/>
<path d="M10326 522 c-2 -4 -1 -13 3 -20 5 -9 12 -7 26 8 18 19 18 20 -3 20
-11 0 -23 -4 -26 -8z"/>
<path d="M10325 441 c-3 -6 2 -16 10 -23 9 -7 22 -19 30 -25 7 -7 19 -13 27
-13 7 0 1 8 -12 17 -34 23 -53 43 -43 43 5 0 14 -5 21 -12 8 -8 12 -8 12 -1 0
6 -7 14 -16 17 -20 8 -22 8 -29 -3z"/>
<path d="M10390 409 c0 -5 5 -7 10 -4 6 3 10 8 10 11 0 2 -4 4 -10 4 -5 0 -10
-5 -10 -11z"/>
<path d="M10612 914 c-7 -8 -8 -14 -3 -14 10 0 25 19 20 25 -2 1 -10 -3 -17
-11z"/>
<path d="M10691 856 c-8 -10 -9 -16 -1 -21 5 -3 10 -5 11 -3 4 18 7 38 4 38
-1 0 -8 -6 -14 -14z"/>
<path d="M10697 783 c-4 -3 -7 -11 -7 -17 0 -6 5 -5 12 2 6 6 9 14 7 17 -3 3
-9 2 -12 -2z"/>
<path d="M10560 581 c0 -6 4 -13 10 -16 6 -3 7 1 4 9 -7 18 -14 21 -14 7z"/>
<path d="M10401 605 c-1 -6 3 -15 8 -20 5 -6 11 -19 13 -30 3 -14 6 -10 9 13
4 24 2 32 -7 28 -7 -3 -15 0 -18 7 -2 7 -5 7 -5 2z"/>
<path d="M7606 6951 c-15 -6 -11 -9 21 -19 55 -16 62 -15 34 8 -25 22 -27 22
-55 11z"/>
<path d="M8140 6822 c0 -23 5 -42 10 -42 7 0 8 14 4 38 -9 51 -14 53 -14 4z"/>
<path d="M9044 6318 c8 -83 -3 -129 -34 -146 -22 -12 -17 -12 40 -6 109 11
118 25 45 66 -28 15 -30 21 -33 82 -2 38 -7 66 -13 66 -7 0 -9 -22 -5 -62z"/>
<path d="M8800 6312 c6 -13 14 -21 18 -18 3 4 -2 14 -12 24 -18 16 -18 16 -6
-6z"/>
<path d="M9070 6310 c0 -12 7 -20 18 -20 13 0 14 2 3 9 -7 5 -10 14 -7 20 4 6
2 11 -3 11 -6 0 -11 -9 -11 -20z"/>
<path d="M9094 6259 c-7 -12 17 -32 26 -22 3 3 -1 8 -8 10 -6 3 -10 9 -6 14 3
5 3 9 0 9 -3 0 -8 -5 -12 -11z"/>
<path d="M8656 6212 c-2 -4 4 -8 14 -8 10 0 16 4 14 8 -3 4 -9 8 -14 8 -5 0
-11 -4 -14 -8z"/>
<path d="M8660 6182 c0 -5 7 -9 15 -9 8 0 15 4 15 9 0 4 -7 8 -15 8 -8 0 -15
-4 -15 -8z"/>
<path d="M8640 6157 c0 -9 4 -18 9 -21 5 -4 8 1 7 9 -3 21 -16 31 -16 12z"/>
<path d="M8588 6123 c7 -3 16 -2 19 1 4 3 -2 6 -13 5 -11 0 -14 -3 -6 -6z"/>
<path d="M11549 6073 c-24 -25 -38 -50 -44 -78 -8 -32 -48 -125 -55 -130 -5
-3 -60 43 -122 102 l-113 107 130 -132 c71 -73 133 -132 136 -132 9 0 101 268
97 280 -2 6 -15 -2 -29 -17z"/>
<path d="M8530 6060 c-18 -12 -2 -12 25 0 13 6 15 9 5 9 -8 0 -22 -4 -30 -9z"/>
<path d="M8505 6009 c-4 -6 -5 -12 -2 -15 2 -3 7 2 10 11 7 17 1 20 -8 4z"/>
<path d="M8460 5955 c-11 -13 -10 -14 4 -9 9 3 16 10 16 15 0 13 -6 11 -20 -6z"/>
<path d="M8478 5933 c6 -2 10 -9 6 -14 -3 -5 5 -9 17 -9 22 0 22 0 3 15 -10 8
-23 14 -29 14 -5 0 -4 -3 3 -6z"/>
<path d="M8466 5888 c3 -5 10 -6 15 -3 13 9 11 12 -6 12 -8 0 -12 -4 -9 -9z"/>
<path d="M8487 5783 c3 -7 9 -10 14 -7 14 8 11 21 -5 21 -8 0 -12 -6 -9 -14z"/>
<path d="M5069 5040 c-1 -8 -4 -60 -8 -116 -5 -92 -5 -100 11 -96 31 8 35 25
27 110 -8 77 -26 140 -30 102z"/>
<path d="M5778 4923 c7 -3 16 -2 19 1 4 3 -2 6 -13 5 -11 0 -14 -3 -6 -6z"/>
<path d="M5848 4903 c7 -3 16 -2 19 1 4 3 -2 6 -13 5 -11 0 -14 -3 -6 -6z"/>
<path d="M14 4681 c4 -5 1 -12 -4 -14 -6 -3 -5 -4 2 -3 15 3 23 26 8 26 -6 0
-9 -4 -6 -9z"/>
<path d="M105 4650 c-3 -6 1 -7 9 -4 18 7 21 14 7 14 -6 0 -13 -4 -16 -10z"/>
<path d="M166 4628 c3 -5 10 -6 15 -3 13 9 11 12 -6 12 -8 0 -12 -4 -9 -9z"/>
<path d="M106 4621 c-4 -6 -2 -11 4 -11 6 0 9 -4 6 -8 -2 -4 4 -9 15 -9 10 -1
19 3 19 8 0 6 -4 8 -9 4 -6 -3 -14 2 -19 11 -6 11 -11 13 -16 5z"/>
<path d="M300 4601 c0 -6 4 -12 8 -15 5 -3 9 1 9 9 0 8 -4 15 -9 15 -4 0 -8
-4 -8 -9z"/>
<path d="M853 4143 c9 -2 23 -2 30 0 6 3 -1 5 -18 5 -16 0 -22 -2 -12 -5z"/>
<path d="M908 4133 c6 -2 18 -2 25 0 6 3 1 5 -13 5 -14 0 -19 -2 -12 -5z"/>
<path d="M963 4123 c9 -2 23 -2 30 0 6 3 -1 5 -18 5 -16 0 -22 -2 -12 -5z"/>
<path d="M1940 3586 c0 -2 7 -7 16 -10 8 -3 12 -2 9 4 -6 10 -25 14 -25 6z"/>
<path d="M1856 3561 c-3 -4 6 -6 19 -3 14 2 25 6 25 8 0 8 -39 4 -44 -5z"/>
<path d="M1653 3506 c-6 -8 -9 -17 -6 -20 12 -11 19 -6 20 14 2 23 2 23 -14 6z"/>
<path d="M1575 3450 c3 -5 8 -10 11 -10 2 0 4 5 4 10 0 6 -5 10 -11 10 -5 0
-7 -4 -4 -10z"/>
<path d="M2002 2910 c0 -14 2 -19 5 -12 2 6 2 18 0 25 -3 6 -5 1 -5 -13z"/>
<path d="M613 1850 c0 -47 2 -66 4 -42 2 23 2 61 0 85 -2 23 -4 4 -4 -43z"/>
<path d="M621 1174 c0 -11 3 -14 6 -6 3 7 2 16 -1 19 -3 4 -6 -2 -5 -13z"/>
<path d="M5764 767 c-6 -17 -51 -140 -99 -272 -48 -132 -102 -280 -120 -330
-18 -50 -40 -107 -48 -127 l-16 -38 48 0 47 0 18 55 c9 30 19 55 22 55 24 0
44 -26 50 -65 l6 -45 49 0 c33 0 49 4 49 13 -1 6 -7 61 -14 120 -11 97 -11
109 4 117 29 16 720 140 992 179 78 11 125 2 155 -31 12 -13 66 -106 121 -208
55 -102 107 -186 115 -188 12 -3 16 20 22 130 8 147 4 473 -6 483 -4 3 -35 -3
-70 -14 -35 -11 -118 -34 -184 -52 -66 -17 -210 -56 -320 -86 -386 -104 -424
-113 -477 -119 -63 -6 -73 1 -170 121 -35 44 -86 107 -112 139 -46 57 -48 62
-43 110 6 69 -4 98 -19 53z"/>
</g>
</svg>
