<?xml version="1.0" standalone="no"?>
<!DOCTYPE svg PUBLIC "-//W3C//DTD SVG 20010904//EN"
 "http://www.w3.org/TR/2001/REC-SVG-20010904/DTD/svg10.dtd">
<svg version="1.0" xmlns="http://www.w3.org/2000/svg"
 width="1300.000000pt" height="739.000000pt" viewBox="0 0 1300.000000 739.000000"
 preserveAspectRatio="xMidYMid meet">

<g transform="translate(0.000000,739.000000) scale(0.100000,-0.100000)"
fill="#000000" stroke="none">
<path d="M1099 7283 c107 -108 145 -164 199 -293 42 -99 48 -152 41 -320 -15
-332 -69 -481 -231 -638 -111 -108 -211 -169 -353 -217 -44 -14 -83 -30 -88
-34 -4 -4 -9 -52 -10 -107 -3 -104 -13 -136 -49 -155 -18 -10 -24 -8 -40 11
-16 20 -65 156 -72 203 -1 12 -9 23 -16 25 -12 4 -9 -37 8 -128 11 -61 11
-175 -1 -182 -9 -6 -8 -10 2 -17 12 -8 13 -15 3 -35 -7 -16 -8 -28 -2 -31 15
-9 12 -36 -5 -49 -13 -10 -13 -14 0 -40 19 -36 19 -46 -1 -46 -12 0 -14 -7 -9
-29 7 -33 14 -33 -120 3 -32 9 -90 16 -127 16 -46 0 -70 4 -72 13 -3 6 -12 48
-22 92 -10 44 -35 120 -56 169 -21 49 -38 97 -38 106 0 18 76 80 97 80 54 0
159 78 136 101 -4 4 -42 12 -84 17 -42 5 -97 19 -124 31 -26 11 -51 21 -56 21
-5 0 -9 -341 -9 -776 l0 -776 25 4 c30 6 45 -10 48 -50 2 -29 7 -32 72 -53 83
-27 186 -87 248 -146 73 -69 184 -225 232 -326 53 -110 75 -210 75 -337 0
-215 -40 -303 -286 -622 -87 -113 -205 -192 -352 -235 l-62 -18 0 -73 0 -73
43 6 c23 3 74 7 114 9 40 3 77 8 84 11 6 4 15 1 20 -6 13 -22 27 0 63 103 56
161 101 226 244 358 134 124 187 161 302 209 126 52 247 73 423 72 l137 0 0
27 c0 15 -5 59 -11 97 -11 79 5 203 28 212 7 3 13 10 13 17 1 26 50 45 146 55
97 11 253 7 264 -7 17 -23 39 2 85 94 76 154 189 281 335 377 104 69 102 63
30 71 -36 4 -104 16 -152 27 -48 10 -90 19 -92 19 -2 0 -7 -17 -11 -37 -6 -36
-27 -84 -46 -107 -5 -6 -26 -34 -47 -61 -94 -123 -281 -236 -452 -274 -57 -13
-322 -13 -419 -1 -128 17 -309 95 -411 178 -86 71 -230 222 -270 283 -61 95
-78 150 -85 285 -6 93 -4 134 9 189 34 147 124 354 207 477 22 31 39 62 39 68
0 18 86 100 132 124 24 13 72 39 108 59 36 20 99 48 140 63 41 14 77 28 79 30
2 2 -11 19 -30 38 -67 67 -79 85 -89 137 -9 47 -8 55 10 74 11 12 20 28 20 37
0 16 60 58 83 58 7 0 18 -28 25 -67 7 -37 15 -70 18 -73 3 -3 36 -7 72 -10 61
-5 68 -7 80 -32 12 -26 18 -28 68 -28 52 0 59 4 55 36 -3 22 27 31 179 53 134
20 159 27 182 48 l26 25 -62 59 c-119 111 -213 256 -246 380 -34 124 -31 326
5 474 33 134 125 304 219 404 90 95 242 190 380 236 104 35 271 51 383 36 85
-10 273 -66 379 -111 74 -32 208 -125 253 -176 43 -49 92 -141 115 -214 8 -25
26 -79 41 -120 51 -144 63 -315 24 -343 -9 -7 -19 -24 -22 -38 -6 -24 -11 -26
-58 -28 -28 0 -54 -3 -58 -6 -5 -2 -20 9 -35 25 -14 17 -34 30 -45 30 -19 0
-51 -29 -51 -48 0 -6 -9 -16 -20 -22 -11 -6 -19 -14 -18 -18 2 -11 -24 -65
-43 -87 -10 -11 -19 -24 -20 -30 -4 -26 -19 -55 -28 -55 -5 0 -14 -15 -20 -33
-12 -37 -76 -107 -97 -107 -32 0 -10 -20 60 -54 41 -20 78 -36 83 -36 23 -2
148 -99 151 -117 2 -12 10 -24 19 -27 13 -5 14 -4 3 9 -7 9 -11 18 -8 20 7 7
128 -121 128 -135 0 -8 -22 9 -50 37 -52 53 -73 59 -40 13 24 -34 25 -40 4
-40 -8 0 -12 5 -9 10 3 6 -2 13 -12 16 -42 13 -82 38 -76 47 4 6 0 8 -10 4
-12 -4 -15 -1 -11 11 4 12 0 11 -14 -6 -11 -12 -22 -28 -25 -35 -3 -9 -9 -9
-26 1 -28 16 -41 15 -41 -3 0 -8 7 -15 16 -15 13 0 14 -3 4 -15 -8 -10 -10
-38 -6 -92 3 -43 8 -116 11 -163 4 -47 10 -98 14 -115 4 -16 6 -55 4 -85 -5
-69 -5 -70 4 -160 6 -53 5 -83 -4 -100 -13 -27 -8 -44 10 -33 9 5 9 3 0 -8 -6
-8 -12 -32 -12 -54 1 -22 -6 -57 -15 -77 -20 -47 -21 -117 -2 -124 8 -3 12
-12 10 -19 -3 -8 -11 -12 -17 -9 -7 2 -17 -6 -23 -19 -10 -23 -10 -23 38 -17
27 4 51 3 54 -2 8 -12 21 -10 37 7 17 16 104 28 112 15 10 -17 -33 -97 -131
-244 -10 -16 -24 -37 -30 -47 -6 -11 -29 -35 -50 -54 -38 -33 -38 -34 -14 -36
14 -1 29 -1 33 0 4 1 10 -6 13 -14 5 -11 23 7 64 62 152 206 389 369 616 424
106 26 305 31 394 10 87 -21 219 -98 220 -128 0 -7 4 -13 9 -13 5 0 17 -18 27
-40 10 -22 22 -40 26 -40 11 0 39 -64 41 -94 1 -11 17 -52 35 -89 18 -37 30
-73 26 -79 -3 -5 -2 -20 4 -31 9 -19 21 -82 36 -182 8 -55 31 -131 42 -143 11
-10 11 -17 2 -32 -10 -16 -9 -22 5 -32 9 -7 18 -29 19 -49 2 -26 9 -39 26 -46
12 -6 20 -7 17 -3 -3 5 -1 11 5 15 5 3 10 -2 10 -11 0 -24 9 -13 13 17 2 13 8
24 13 24 15 1 49 23 49 32 0 4 3 7 7 6 5 -2 8 3 8 11 0 8 11 17 25 20 14 4 25
11 25 16 0 6 4 10 9 10 4 0 7 -12 5 -27 -2 -16 5 -39 14 -53 9 -14 15 -28 14
-32 -1 -5 5 -8 13 -8 8 0 15 -4 15 -10 0 -5 -4 -10 -8 -10 -14 0 -32 -84 -20
-97 7 -9 7 -13 -1 -13 -6 0 -11 -13 -11 -30 0 -22 -4 -28 -15 -24 -8 4 -15 1
-15 -5 0 -6 -7 -8 -15 -5 -12 5 -15 -3 -15 -41 0 -25 4 -44 9 -41 5 4 4 -8 -2
-25 -9 -24 -9 -33 -1 -36 18 -6 5 -41 -17 -48 -10 -4 -19 -11 -19 -16 0 -6 4
-7 10 -4 17 10 11 -13 -8 -32 -10 -10 -24 -30 -31 -44 -10 -20 -19 -25 -35
-22 -17 4 -18 3 -6 -6 13 -9 9 -16 -21 -45 -20 -19 -40 -32 -44 -28 -5 4 -5 2
-1 -5 10 -18 -158 -132 -241 -164 -26 -10 -27 -10 -9 9 22 25 3 41 -22 19 -9
-8 -28 -18 -40 -22 -27 -8 -62 -40 -62 -56 0 -6 -6 -9 -14 -6 -16 6 -66 -13
-66 -25 0 -5 -23 -8 -51 -8 -41 0 -57 -5 -90 -32 -59 -47 -99 -135 -99 -215 0
-35 5 -74 11 -86 16 -32 61 -77 70 -71 4 2 10 0 14 -6 3 -5 15 -10 27 -10 17
0 18 3 8 15 -7 8 -10 32 -8 55 2 23 -1 40 -7 40 -5 0 -3 5 5 10 12 8 10 14
-13 38 -22 23 -27 35 -21 56 9 38 38 50 98 41 28 -5 75 -7 105 -6 34 1 62 -4
77 -14 13 -8 29 -15 37 -15 37 0 116 -32 122 -49 8 -27 -4 -50 -31 -57 -26 -7
-31 -19 -11 -27 10 -4 12 -18 7 -59 -4 -29 -6 -55 -4 -57 2 -2 24 4 48 13 76
29 110 85 122 201 5 40 1 59 -18 95 -21 38 -33 49 -83 68 -74 30 -131 24 -179
-19 l-34 -29 -22 45 c-12 25 -21 48 -19 50 2 2 24 -1 49 -6 25 -5 160 -8 300
-8 140 0 275 -2 300 -6 61 -8 120 -26 120 -37 0 -4 7 -8 15 -8 8 0 15 -5 15
-11 0 -21 20 3 40 48 35 80 125 205 202 281 85 84 162 140 271 197 80 41 99
61 48 50 -17 -3 -32 -2 -36 4 -3 6 -14 11 -23 11 -25 1 -58 32 -82 79 -12 22
-26 41 -31 41 -12 0 -29 68 -29 118 0 24 -9 62 -20 84 -11 23 -20 43 -20 44 0
1 17 -2 37 -8 73 -20 206 13 261 65 68 63 81 163 33 264 -39 81 -85 113 -165
114 -37 1 -56 5 -56 13 0 7 25 43 55 81 30 38 55 76 55 85 -1 21 -17 90 -23
97 -3 3 -85 -21 -182 -53 l-177 -57 7 -56 c4 -31 9 -59 11 -63 3 -4 28 4 57
16 105 47 149 42 108 -10 -12 -15 -21 -31 -21 -37 0 -5 -16 -27 -35 -48 -19
-22 -35 -45 -35 -52 0 -6 15 -22 32 -34 l31 -22 34 29 c65 58 121 29 154 -80
23 -76 19 -103 -15 -126 -35 -22 -70 -5 -90 45 -9 23 -16 49 -16 57 0 13 -6
15 -27 10 -90 -20 -86 -21 -113 31 -28 53 -91 143 -101 143 -3 0 -14 19 -24
43 -30 69 -55 98 -100 117 -23 10 -54 31 -68 46 -142 153 -148 163 -137 205
27 99 217 252 388 313 87 31 248 59 300 52 61 -8 146 -33 213 -64 35 -16 75
-33 89 -37 24 -8 100 -52 110 -64 12 -15 97 -79 120 -91 25 -13 83 -71 100
-99 8 -14 9 -14 10 -1 0 9 6 5 15 -10 13 -23 14 -11 15 122 0 150 12 234 48
338 103 297 382 538 702 605 92 20 286 22 360 5 129 -30 230 -66 230 -82 0 -4
9 -17 19 -27 16 -16 19 -30 15 -68 -2 -26 1 -61 7 -76 9 -21 9 -31 0 -40 -15
-15 -14 -44 2 -54 21 -13 28 -42 15 -63 -10 -16 -9 -25 5 -49 9 -16 17 -43 17
-61 0 -18 9 -45 20 -60 17 -24 18 -29 5 -34 -8 -3 -15 -17 -15 -30 0 -17 5
-24 13 -20 9 3 12 -6 9 -37 -3 -22 0 -45 5 -50 5 -5 8 -49 7 -97 -1 -48 1
-108 5 -134 7 -41 6 -46 -11 -43 -17 4 -25 -15 -12 -28 5 -5 15 -111 15 -169
0 -10 3 -17 7 -17 21 3 32 -3 32 -18 0 -23 72 -103 93 -103 9 0 19 -4 22 -10
3 -5 12 -10 18 -10 7 0 6 4 -3 10 -8 5 -11 12 -7 17 13 12 27 -19 17 -38 -5
-9 -6 -19 -3 -23 3 -3 1 -6 -5 -6 -6 0 -9 -6 -7 -12 3 -7 -5 -29 -17 -48 -12
-19 -21 -44 -19 -55 1 -17 0 -17 -8 -5 -9 13 -11 12 -11 -5 -1 -22 -43 -75
-60 -75 -5 0 -10 -7 -10 -15 0 -8 -7 -15 -16 -15 -8 0 -13 -4 -9 -9 3 -5 -7
-16 -22 -24 -16 -8 -52 -28 -82 -45 -30 -17 -96 -43 -148 -58 -51 -16 -93 -31
-93 -34 0 -4 55 -11 123 -18 114 -11 223 -38 253 -63 20 -16 31 -3 43 49 29
138 126 307 245 427 162 164 307 238 561 286 66 13 122 25 125 27 3 2 -2 9
-11 16 -9 6 -29 43 -44 81 -16 39 -34 79 -42 91 -10 16 -10 21 -1 21 34 0 146
36 174 55 51 35 77 83 82 148 6 77 -11 122 -61 165 -36 31 -40 38 -29 53 32
43 44 88 40 143 -7 103 -66 145 -187 137 -115 -9 -191 -66 -216 -165 l-12 -46
-34 45 c-36 48 -193 163 -210 153 -16 -10 -10 16 11 44 39 56 177 148 299 200
67 28 81 42 74 71 -4 16 2 29 22 47 32 30 55 31 145 8 35 -9 73 -14 86 -11 12
3 24 3 26 -2 7 -16 86 -62 107 -62 51 0 265 -61 342 -98 70 -34 74 -25 22 49
-42 63 -95 190 -119 289 -24 100 -15 287 19 390 91 273 204 436 386 557 72 48
186 97 287 124 110 29 302 37 412 16 81 -16 236 -77 213 -85 -6 -2 -2 -12 11
-23 13 -10 19 -18 14 -19 -5 0 10 -13 32 -30 23 -16 48 -43 57 -60 8 -16 20
-30 24 -30 9 0 45 -36 89 -87 11 -13 25 -23 33 -23 7 0 22 -9 34 -20 22 -20
49 -30 94 -34 13 -2 29 -10 36 -19 7 -9 15 -14 18 -10 4 3 10 -8 13 -25 4 -18
10 -30 14 -27 3 2 14 -12 23 -31 19 -38 22 -58 7 -34 -7 11 -10 5 -10 -24 l0
-39 38 44 c134 157 229 236 361 298 l82 38 3 129 c2 108 6 139 26 189 26 68
109 200 182 293 l50 62 -396 0 c-310 0 -396 -3 -396 -12 -1 -7 -19 -26 -40
-43 -21 -16 -39 -35 -40 -40 0 -18 -73 -87 -130 -123 -30 -20 -61 -42 -68 -49
-7 -7 -25 -16 -39 -19 -18 -5 -21 -9 -11 -15 9 -6 6 -9 -12 -9 -14 0 -36 -7
-49 -16 -37 -26 -150 -64 -191 -64 -182 0 -428 141 -565 323 l-50 67 -452 0
c-249 0 -453 -2 -453 -4 0 -12 31 -59 51 -79 14 -12 32 -38 41 -57 16 -34 54
-67 65 -56 8 8 -8 27 -18 21 -5 -4 -9 -1 -9 4 0 13 2 14 36 1 20 -8 29 -8 35
2 4 7 11 9 15 5 4 -3 -4 -15 -17 -26 -24 -20 -17 -29 10 -12 15 10 51 -15 51
-35 0 -7 4 -14 8 -16 21 -8 86 -133 114 -218 29 -85 32 -108 32 -215 l1 -120
-58 -167 c-88 -257 -95 -269 -208 -385 -151 -154 -373 -257 -583 -270 -245
-14 -501 54 -680 182 -173 123 -316 346 -361 559 -20 100 -20 290 1 375 35
146 154 336 282 451 l67 60 -662 0 -661 0 -7 -36 c-3 -20 -18 -47 -32 -60 -13
-12 -22 -28 -18 -33 3 -6 1 -11 -4 -11 -6 0 -11 -11 -11 -24 0 -13 -7 -26 -15
-30 -8 -3 -15 -12 -15 -20 0 -9 -7 -12 -20 -9 -12 3 -20 2 -19 -3 6 -35 -5
-68 -30 -93 -16 -16 -31 -39 -33 -52 -2 -18 -8 -23 -25 -21 -17 2 -21 -1 -17
-12 4 -10 1 -16 -7 -16 -12 0 -12 -2 0 -9 9 -6 0 -11 -30 -16 -203 -35 -528
63 -698 210 -62 54 -166 174 -184 212 -8 18 -18 23 -49 23 -21 0 -38 -2 -38
-4 0 -2 16 -51 35 -109 28 -83 35 -120 35 -180 0 -81 -16 -138 -33 -115 -5 8
-7 1 -3 -21 5 -28 3 -32 -10 -27 -13 5 -15 2 -11 -14 3 -11 1 -20 -3 -20 -5 0
-11 -8 -14 -18 -4 -10 -22 -25 -41 -32 -39 -15 -46 -30 -15 -30 31 0 271 -96
324 -130 26 -17 49 -30 52 -30 3 0 16 -8 29 -19 19 -14 21 -21 12 -31 -10 -10
-8 -12 6 -7 12 5 33 -5 64 -28 53 -41 76 -44 90 -12 50 108 268 282 415 331
57 19 268 46 353 46 70 -1 163 -19 220 -44 48 -21 49 -22 116 -67 30 -20 64
-40 77 -44 46 -14 16 -13 -38 1 -88 23 -163 14 -211 -24 -50 -41 -16 -148 71
-224 75 -66 140 -84 289 -79 40 1 43 3 37 24 -17 58 -18 75 -5 80 8 2 7 3 -2
2 -9 -1 -21 6 -27 15 -9 15 -25 18 -96 17 -88 -1 -116 9 -116 43 0 23 21 28
85 19 95 -13 211 -83 315 -190 37 -38 86 -64 95 -50 9 16 -55 168 -99 234 -35
53 -8 38 41 -22 92 -113 139 -246 150 -416 4 -76 2 -97 -14 -133 l-20 -42 -7
110 c-7 127 -22 204 -40 219 -7 6 -27 14 -45 17 l-33 7 7 -82 c4 -44 5 -81 3
-81 -3 0 -17 17 -30 38 -62 93 -166 162 -242 162 -113 -1 -190 -84 -201 -218
-11 -122 46 -201 166 -226 35 -8 58 -15 50 -15 -10 -1 -12 -10 -8 -34 6 -40
-15 -72 -55 -81 -18 -4 -28 -13 -28 -24 0 -19 -18 -42 -32 -42 -4 0 -8 7 -8
15 0 19 -39 20 -75 1 -32 -17 -52 -12 -60 15 -4 10 -10 19 -14 19 -13 0 -86
75 -101 105 -8 16 -32 47 -52 68 -21 21 -38 46 -38 55 0 9 -22 40 -48 69 -26
28 -75 82 -109 120 -144 158 -184 198 -212 213 -17 8 -57 30 -91 48 -80 43
-209 55 -289 26 -52 -18 -58 -26 -41 -47 40 -50 63 -82 103 -149 26 -43 47
-82 47 -87 0 -4 11 -34 25 -65 25 -56 54 -207 49 -255 -1 -14 -5 -73 -9 -130
-5 -82 -11 -110 -27 -132 -13 -17 -19 -36 -15 -48 6 -25 -34 -135 -76 -206
-129 -219 -348 -374 -612 -430 -106 -23 -321 -24 -427 -1 -147 31 -225 62
-326 129 -93 61 -116 74 -137 75 -5 0 -12 8 -15 17 -10 27 -114 154 -133 160
-10 4 -24 -1 -33 -10 -26 -25 -30 -8 -5 19 l23 24 -38 69 c-20 37 -38 69 -40
71 -1 2 -21 -10 -45 -27 -46 -34 -72 -40 -63 -16 4 9 0 15 -10 15 -9 0 -16 5
-16 10 0 6 7 10 15 10 14 0 16 4 19 29 1 5 -18 23 -40 39 -42 31 -66 32 -126
7 -11 -4 -18 -3 -18 4 0 6 -7 11 -15 11 -8 0 -15 6 -15 13 0 8 -13 12 -36 12
-20 -1 -42 4 -49 12 -8 7 -18 13 -24 13 -17 0 -14 6 20 40 54 53 189 114 286
127 50 7 49 5 57 128 3 44 17 120 31 169 14 49 22 92 18 96 -4 4 -26 13 -48
20 -63 20 -165 74 -230 122 -159 117 -288 299 -357 503 -39 115 -35 335 8 483
l6 23 -763 -4 c-420 -3 -768 -5 -774 -6 -5 -1 -40 0 -77 2 -37 2 -65 1 -63 -3
3 -4 -40 -13 -96 -20 -108 -13 -206 -8 -284 15 -26 8 -69 15 -95 15 l-48 0
107 -107z m495 41 c7 -18 -29 -53 -55 -54 -20 0 -42 25 -46 51 -2 16 4 19 46
19 35 0 51 -4 55 -16z m7161 -24 c3 -5 1 -10 -4 -10 -6 0 -11 5 -11 10 0 6 2
10 4 10 3 0 8 -4 11 -10z m55 -27 c0 -19 -13 -9 -16 12 -1 8 2 13 7 9 5 -3 9
-12 9 -21z m30 -23 c0 -5 -4 -10 -10 -10 -5 0 -10 5 -10 10 0 6 5 10 10 10 6
0 10 -4 10 -10z m1950 -261 c0 -5 3 -8 8 -5 12 7 104 -63 97 -75 -4 -5 -11 -7
-16 -4 -5 4 -9 0 -9 -7 0 -8 -3 -9 -8 -3 -4 6 -32 18 -62 29 -30 10 -65 27
-78 37 -21 16 -22 18 -5 28 24 14 73 14 73 0z m48 -201 c-7 -13 -12 -26 -13
-29 0 -8 -32 -39 -40 -39 -3 0 -31 -11 -61 -25 -55 -25 -55 -25 -82 -6 -15 11
-40 33 -56 49 l-28 31 38 10 c94 26 113 29 182 30 73 1 73 1 60 -21z m-3989
-118 c29 -40 22 -38 -20 6 -18 19 -27 32 -18 29 9 -3 26 -19 38 -35z m-65
-430 c14 -5 26 -17 26 -25 0 -10 -5 -13 -12 -9 -7 4 -5 -2 6 -14 18 -20 18
-21 0 -21 -11 -1 -38 -4 -60 -7 -73 -10 -106 24 -64 66 22 22 64 26 104 10z
m-3594 -10 c0 -5 -5 -10 -11 -10 -5 0 -7 5 -4 10 3 6 8 10 11 10 2 0 4 -4 4
-10z m-1723 -432 c21 -7 38 -17 38 -23 0 -12 -117 -30 -139 -22 -10 4 -16 19
-16 38 0 31 1 31 39 25 22 -3 57 -12 78 -18z m-271 -29 c12 -20 -11 -29 -56
-20 l-45 8 35 11 c47 14 58 14 66 1z m2014 -264 c31 -44 30 -56 -1 -32 -9 7
-14 17 -12 23 2 6 -3 17 -12 24 -14 12 -21 30 -10 30 2 0 18 -20 35 -45z m820
-279 c0 -3 -4 -8 -10 -11 -5 -3 -10 -1 -10 4 0 6 5 11 10 11 6 0 10 -2 10 -4z
m4438 -21 c25 -55 7 -125 -32 -125 -28 0 -36 16 -36 75 0 24 3 50 6 59 10 26
49 19 62 -9z m-4428 -15 c0 -5 -4 -10 -9 -10 -6 0 -13 5 -16 10 -3 6 1 10 9
10 9 0 16 -4 16 -10z m30 -9 c0 -12 -20 -25 -27 -18 -7 7 6 27 18 27 5 0 9 -4
9 -9z m4225 -161 c3 -5 1 -10 -4 -10 -6 0 -11 5 -11 10 0 6 2 10 4 10 3 0 8
-4 11 -10z m195 -68 c31 -25 40 -114 15 -142 -38 -42 -77 -13 -90 68 -5 32 -3
49 9 67 20 30 36 31 66 7z m-2871 -48 c21 -5 31 -12 31 -25 0 -11 -4 -19 -10
-19 -25 0 -110 23 -110 29 0 21 31 26 89 15z m81 -28 c0 -11 -19 -15 -25 -6
-3 5 1 10 9 10 9 0 16 -2 16 -4z m-1019 -1463 c-8 -15 -10 -15 -11 -2 0 17 10
32 18 25 2 -3 -1 -13 -7 -23z m14 -53 c3 -5 1 -10 -4 -10 -6 0 -11 5 -11 10 0
6 2 10 4 10 3 0 8 -4 11 -10z"/>
<path d="M3349 7333 c-17 -83 -16 -171 4 -216 l17 -38 67 58 c57 49 68 63 69
91 0 20 9 40 22 53 12 11 22 28 22 37 0 18 18 42 32 42 4 0 5 -7 2 -15 -4 -8
-2 -15 3 -15 18 0 22 12 11 36 -10 21 -18 24 -65 24 -57 0 -62 -6 -43 -55 7
-17 6 -31 -1 -43 -13 -21 -64 -52 -86 -52 -16 0 -16 -3 3 113 6 35 5 37 -19
37 -23 0 -27 -6 -38 -57z"/>
<path d="M3780 7380 c0 -6 12 -15 26 -20 14 -6 23 -14 19 -19 -3 -6 3 -15 14
-20 18 -10 36 -54 32 -78 -1 -7 3 -13 9 -13 5 0 10 -7 10 -16 0 -14 9 -16 62
-11 97 9 160 63 183 160 l7 27 -81 0 c-80 0 -81 0 -81 -25 0 -15 -9 -31 -25
-41 -23 -15 -27 -15 -50 0 -14 10 -30 28 -35 42 -8 20 -16 24 -50 24 -22 0
-40 -5 -40 -10z"/>
<path d="M5306 7359 c-11 -58 -7 -67 39 -95 65 -38 77 -36 91 11 11 39 21 45
56 30 12 -5 21 2 32 24 31 59 28 61 -98 61 l-113 0 -7 -31z"/>
<path d="M5602 7374 c-52 -36 -67 -115 -32 -172 58 -96 259 -142 376 -86 78
37 111 145 59 194 -14 13 -25 26 -25 30 0 3 16 12 35 19 19 7 35 17 35 22 0 5
-87 9 -213 9 -176 0 -216 -3 -235 -16z m222 -73 c29 -32 -6 -111 -48 -111 -55
0 -70 25 -45 73 30 59 63 72 93 38z"/>
<path d="M11802 7368 c2 -18 8 -22 28 -19 14 2 75 12 135 21 l110 18 -138 1
c-138 1 -138 1 -135 -21z"/>
<path d="M12736 7368 c4 -13 9 -35 10 -50 1 -15 9 -47 19 -71 9 -24 15 -47 13
-53 -1 -5 6 -21 16 -36 12 -19 16 -39 13 -63 -3 -20 -1 -48 3 -63 26 -83 34
-124 36 -183 0 -37 4 -83 8 -103 4 -23 3 -36 -4 -36 -5 0 -10 -11 -10 -25 0
-37 -27 -85 -49 -85 -10 0 -21 -3 -24 -6 -10 -11 -171 -4 -178 7 -3 5 -39 14
-80 20 -41 5 -103 14 -139 19 -36 5 -92 12 -125 15 -33 4 -107 24 -165 45
-107 39 -180 58 -180 46 0 -9 51 -56 60 -56 10 0 80 -69 80 -79 0 -3 9 -12 20
-19 11 -7 20 -18 20 -26 0 -7 9 -24 19 -38 11 -13 23 -37 26 -51 4 -15 11 -27
16 -27 5 0 9 -9 9 -21 0 -11 5 -30 12 -42 18 -35 58 -217 61 -284 1 -18 9 -40
17 -50 11 -12 13 -27 9 -43 -4 -14 -7 -34 -7 -45 0 -15 2 -13 10 8 16 43 30
32 24 -20 -4 -25 -8 -49 -11 -51 -3 -3 0 -11 6 -18 6 -8 12 -34 13 -59 2 -25
8 -51 14 -57 7 -7 12 -18 12 -25 0 -15 47 -63 61 -63 6 0 7 -4 4 -10 -4 -6 7
-10 24 -10 23 0 43 12 78 45 26 25 57 48 69 51 13 3 25 16 28 30 7 27 24 32
32 9 6 -14 8 -13 20 2 12 16 13 15 13 -12 0 -16 -4 -48 -10 -70 -5 -22 -11
-49 -13 -60 -14 -88 -83 -232 -157 -331 -102 -136 -230 -236 -403 -314 -53
-24 -93 -47 -89 -50 37 -32 234 -37 350 -9 74 18 342 107 398 133 28 12 103
45 167 72 l118 49 0 1093 0 1092 -136 0 -135 0 7 -22z m-99 -1505 c-3 -10 -5
-2 -5 17 0 19 2 27 5 18 2 -10 2 -26 0 -35z"/>
<path d="M7960 7349 c-49 -20 -116 -69 -139 -100 -53 -72 -45 -128 30 -222 55
-69 214 -205 267 -228 86 -38 186 -18 266 51 88 77 88 158 1 258 -104 120
-271 136 -355 34 -35 -43 -48 -40 -93 24 -32 45 -28 71 10 80 18 5 31 0 52
-20 15 -14 31 -26 35 -26 4 0 32 21 62 47 l55 46 -30 30 c-24 25 -40 31 -83
34 -29 1 -64 -2 -78 -8z m226 -288 c47 -33 94 -87 94 -106 0 -19 -28 -45 -49
-45 -23 0 -102 60 -124 94 -22 33 -22 62 1 75 26 16 36 13 78 -18z"/>
<path d="M12363 7140 c4 -66 3 -120 -1 -120 -5 0 -33 12 -63 26 -95 47 -132
56 -243 61 -83 5 -107 3 -102 -6 4 -7 16 -9 27 -6 11 4 26 2 33 -5 8 -6 20 -9
27 -8 19 4 25 -72 8 -83 -21 -13 29 -45 91 -59 30 -7 98 -30 150 -52 96 -41
225 -67 242 -50 5 5 4 94 -4 213 l-13 204 -79 3 -79 3 6 -121z m-273 -110 c0
-16 -4 -30 -9 -30 -5 0 -8 12 -6 28 4 34 4 32 10 32 3 0 5 -13 5 -30z"/>
<path d="M7574 7007 c-82 -87 -154 -178 -154 -194 0 -10 52 -63 62 -63 3 0 29
30 58 66 36 45 56 64 67 60 9 -4 21 0 27 9 6 8 22 16 36 18 21 3 28 14 43 62
l17 58 -22 25 c-47 49 -50 48 -134 -41z"/>
<path d="M12015 7060 c3 -5 8 -10 11 -10 2 0 4 5 4 10 0 6 -5 10 -11 10 -5 0
-7 -4 -4 -10z"/>
<path d="M365 7024 c-19 -114 -98 -309 -166 -412 -43 -63 -55 -92 -63 -139 -7
-47 -9 -46 89 -62 181 -28 326 -44 334 -35 5 5 11 34 13 64 l3 54 -85 12 c-47
7 -106 13 -131 13 -72 2 -72 6 9 113 60 80 117 193 142 285 33 119 30 124 -82
138 l-57 7 -6 -38z"/>
<path d="M815 7006 c-23 -9 -56 -34 -77 -58 -101 -116 -88 -302 23 -349 17 -6
28 -17 26 -22 -2 -6 -33 -29 -70 -51 -70 -42 -87 -69 -87 -138 0 -25 4 -27 68
-37 133 -21 284 -33 293 -24 13 13 30 116 21 125 -5 5 -38 11 -75 15 -37 3
-67 9 -67 12 0 3 16 17 36 31 101 71 105 79 79 131 -15 28 -18 29 -68 23 -45
-5 -55 -3 -71 15 -16 17 -18 30 -13 81 4 33 13 76 21 95 12 28 20 35 43 35 52
0 66 -39 42 -110 -15 -41 -3 -50 68 -50 61 0 69 9 79 93 8 70 -20 136 -72 166
-46 28 -146 36 -199 17z"/>
<path d="M2125 6931 c-53 -6 -62 -18 -64 -83 l-1 -28 135 0 c74 0 135 -3 135
-6 0 -4 -18 -33 -40 -66 -70 -102 -109 -235 -110 -375 l0 -62 35 -7 c19 -3 55
-3 80 0 l45 7 0 44 c0 69 20 196 38 240 9 22 41 87 70 144 45 88 53 110 50
150 l-3 46 -160 1 c-88 1 -182 -2 -210 -5z"/>
<path d="M7889 6856 c11 -12 11 -19 1 -31 -6 -8 -8 -20 -4 -26 5 -9 11 -7 21
6 12 18 13 18 13 -2 0 -12 3 -28 6 -37 4 -11 1 -16 -10 -16 -18 0 -22 -25 -6
-35 16 -10 11 -25 -6 -18 -15 5 -14 3 1 -21 39 -59 8 -133 -50 -122 -16 4 -38
7 -47 7 -10 0 -15 6 -11 15 3 8 0 14 -6 14 -6 0 -13 -11 -17 -24 -5 -21 -28
-35 -58 -36 -4 0 -6 10 -3 22 6 20 5 20 -10 5 -15 -15 -15 -18 0 -35 9 -10 17
-23 17 -28 0 -19 71 -73 105 -80 52 -9 89 4 140 48 75 66 102 139 85 230 -16
82 -75 151 -150 173 -22 7 -23 6 -11 -9z"/>
<path d="M4793 6843 c9 -2 23 -2 30 0 6 3 -1 5 -18 5 -16 0 -22 -2 -12 -5z"/>
<path d="M11833 6753 c9 -2 25 -2 35 0 9 3 1 5 -18 5 -19 0 -27 -2 -17 -5z"/>
<path d="M5250 6632 l-25 -14 27 6 c23 5 26 3 21 -11 -5 -14 -3 -15 7 -6 7 7
9 16 4 25 -8 12 -13 12 -34 0z"/>
<path d="M5320 6571 c0 -10 24 -21 43 -21 7 0 3 7 -7 15 -22 17 -36 19 -36 6z"/>
<path d="M6820 6539 c0 -5 5 -7 10 -4 6 3 10 8 10 11 0 2 -4 4 -10 4 -5 0 -10
-5 -10 -11z"/>
<path d="M5400 6520 c0 -5 5 -10 10 -10 6 0 10 5 10 10 0 6 -4 10 -10 10 -5 0
-10 -4 -10 -10z"/>
<path d="M6830 6474 c0 -8 5 -12 10 -9 6 3 10 10 10 16 0 5 -4 9 -10 9 -5 0
-10 -7 -10 -16z"/>
<path d="M9455 6401 c-18 -55 -15 -72 14 -64 11 3 21 -2 24 -11 4 -9 11 -16
17 -16 6 0 9 4 6 9 -3 4 3 18 13 30 21 24 33 28 25 8 -2 -7 4 -14 16 -15 11
-1 32 -4 48 -6 44 -5 62 -17 62 -41 0 -23 6 -32 53 -69 14 -11 22 -26 20 -36
-2 -9 3 -22 11 -30 14 -11 20 -10 37 6 27 24 82 132 74 144 -3 5 -40 21 -83
34 -42 14 -122 41 -177 61 -150 55 -140 55 -160 -4z m275 -121 c0 -5 -4 -10
-10 -10 -5 0 -10 5 -10 10 0 6 5 10 10 10 6 0 10 -4 10 -10z"/>
<path d="M6850 6426 c0 -9 5 -16 10 -16 6 0 10 4 10 9 0 6 -4 13 -10 16 -5 3
-10 -1 -10 -9z"/>
<path d="M11463 6364 c-41 -18 -123 -120 -123 -154 0 -20 11 -30 53 -52 29
-16 57 -28 62 -28 6 0 25 23 43 51 36 55 68 75 106 65 44 -11 51 -41 21 -92
-30 -50 -61 -72 -147 -105 -32 -12 -58 -26 -58 -31 0 -6 7 -7 16 -4 12 5 14 1
9 -15 -6 -18 -4 -20 17 -14 22 7 23 7 3 -9 -11 -8 -15 -16 -8 -16 7 0 10 -7 6
-17 -6 -14 2 -15 81 -9 152 12 223 46 257 120 51 113 -5 236 -136 298 -68 32
-147 37 -202 12z"/>
<path d="M9947 6273 c-4 -3 -7 -14 -7 -24 0 -9 -8 -30 -17 -47 -9 -16 -14 -35
-11 -43 3 -9 40 -25 82 -37 42 -13 76 -25 76 -28 0 -2 -39 -23 -86 -46 -47
-23 -88 -48 -91 -55 -3 -7 4 -27 14 -45 18 -30 23 -33 61 -30 33 3 46 -1 66
-22 31 -30 28 -61 -13 -146 -30 -62 -63 -82 -106 -62 -31 14 -33 54 -5 97 28
42 25 53 -18 64 -98 27 -95 28 -126 -29 -40 -74 -34 -130 22 -181 43 -40 119
-69 184 -69 197 0 322 276 172 380 -43 29 -34 41 48 64 73 21 104 49 122 108
14 48 8 68 -22 68 -8 0 -84 20 -169 45 -164 48 -166 49 -176 38z"/>
<path d="M4600 6257 c-65 -24 -136 -80 -124 -98 4 -7 3 -9 -3 -6 -6 4 -10 -4
-10 -18 0 -14 3 -28 8 -31 5 -3 9 5 9 17 0 12 3 20 6 17 8 -8 18 -103 18 -171
0 -44 3 -56 13 -53 19 8 16 -2 -12 -32 -14 -15 -25 -30 -25 -33 0 -16 46 -62
81 -79 68 -35 128 -22 207 46 l40 34 30 -48 c42 -66 47 -89 26 -113 -27 -30
-61 -24 -86 16 -13 19 -25 35 -28 35 -8 0 -115 -89 -118 -99 -4 -13 47 -70 79
-86 63 -33 161 -5 248 71 103 89 96 198 -24 364 -18 25 -40 62 -50 83 -9 20
-21 37 -25 37 -4 0 -11 10 -14 23 -8 28 -67 92 -109 117 -36 23 -86 25 -137 7z
m86 -217 c50 -95 44 -150 -17 -150 -48 0 -129 134 -110 183 11 29 25 37 65 34
25 -2 34 -11 62 -67z"/>
<path d="M11925 6091 c-34 -21 -60 -49 -129 -141 -27 -36 -84 -101 -127 -145
-62 -65 -80 -91 -93 -134 -20 -69 -9 -117 40 -171 72 -79 173 -100 266 -56 52
25 133 109 163 169 51 103 16 217 -72 233 -18 3 -33 8 -33 11 0 2 18 29 41 59
31 42 46 54 62 52 30 -4 33 -35 8 -69 -12 -15 -21 -35 -21 -43 0 -15 97 -76
122 -76 18 0 56 42 68 76 17 43 11 99 -13 135 -66 98 -206 148 -282 100z m-15
-371 c0 -32 -47 -92 -102 -131 -38 -27 -78 -19 -78 15 0 46 108 146 157 146
19 0 23 -5 23 -30z"/>
<path d="M12220 6024 c0 -8 5 -12 10 -9 6 3 10 10 10 16 0 5 -4 9 -10 9 -5 0
-10 -7 -10 -16z"/>
<path d="M9445 5950 c-4 -6 -4 -14 -1 -17 3 -3 -4 -13 -15 -22 -28 -23 -62
-116 -46 -128 26 -20 129 -55 136 -47 9 11 71 169 71 182 0 6 -6 12 -14 15
-18 7 -56 -3 -56 -14 0 -17 -19 -9 -43 17 -17 18 -27 22 -32 14z"/>
<path d="M4058 5894 c-18 -42 -19 -53 -8 -108 19 -99 157 -339 228 -395 50
-39 127 -64 171 -56 52 10 107 41 130 74 47 66 7 195 -88 284 -64 60 -113 74
-185 53 -30 -9 -56 -23 -60 -31 -9 -23 -44 -18 -52 8 -3 12 -11 28 -17 36 -15
18 -37 81 -37 107 0 12 -7 27 -15 34 -9 7 -14 19 -11 27 3 8 -2 13 -15 13 -14
0 -26 -13 -41 -46z m82 -98 c0 -3 -4 -8 -10 -11 -5 -3 -10 -1 -10 4 0 6 5 11
10 11 6 0 10 -2 10 -4z m234 -186 c47 -41 89 -126 75 -151 -10 -19 -44 -25
-66 -11 -7 4 -31 32 -53 62 -41 54 -50 96 -28 118 19 19 34 15 72 -18z"/>
<path d="M6673 5923 c-20 -8 -15 -23 7 -23 11 0 20 7 20 15 0 15 -6 17 -27 8z"/>
<path d="M11080 5890 c0 -5 7 -10 16 -10 8 0 12 5 9 10 -3 6 -10 10 -16 10 -5
0 -9 -4 -9 -10z"/>
<path d="M11423 5811 c3 -13 0 -18 -8 -15 -7 3 -27 -10 -44 -28 -24 -25 -31
-29 -31 -15 0 9 -6 17 -14 17 -33 0 -21 -19 41 -64 l65 -49 54 54 c30 29 54
57 54 61 0 11 -84 58 -105 58 -12 0 -16 -6 -12 -19z"/>
<path d="M11280 5790 c0 -5 4 -10 9 -10 6 0 13 5 16 10 3 6 -1 10 -9 10 -9 0
-16 -4 -16 -10z"/>
<path d="M12612 5750 c0 -14 2 -19 5 -12 2 6 2 18 0 25 -3 6 -5 1 -5 -13z"/>
<path d="M3728 5694 c-35 -18 -35 -31 -1 -66 26 -27 73 -39 73 -18 0 27 -25
100 -35 100 -5 -1 -22 -8 -37 -16z"/>
<path d="M4995 5589 c-193 -129 -354 -224 -497 -294 -115 -57 -148 -84 -90
-72 63 13 273 123 495 259 246 151 306 198 256 205 -8 1 -81 -43 -164 -98z"/>
<path d="M2196 5641 c-52 -6 -50 -4 -80 -98 -7 -23 -7 -23 108 -23 64 0 116
-3 116 -7 0 -5 -27 -23 -59 -40 -68 -38 -168 -120 -187 -155 -14 -24 -19 -68
-8 -68 4 0 12 7 19 16 10 15 12 12 13 -16 1 -40 18 -62 33 -40 6 10 7 2 3 -27
-4 -29 -3 -43 5 -43 6 0 11 -10 11 -23 0 -13 6 -29 13 -36 10 -11 7 -12 -13
-6 -23 7 -24 6 -11 -9 34 -41 93 -60 181 -60 100 0 151 21 197 81 25 32 28 44
27 105 -1 38 -7 82 -14 98 -12 30 -13 30 -91 30 -56 0 -79 -4 -80 -12 -1 -7 0
-43 1 -79 1 -50 -2 -70 -15 -82 -22 -22 -57 -21 -86 2 -20 16 -24 28 -23 73 0
35 7 63 19 82 30 46 159 150 234 190 81 43 88 50 97 103 l6 41 -48 4 c-72 7
-312 6 -368 -1z"/>
<path d="M1893 5616 c-128 -42 -193 -134 -213 -305 -13 -105 1 -233 31 -293
21 -41 68 -72 102 -65 l22 4 -22 2 c-12 0 -27 9 -32 20 -12 21 -8 90 5 100 5
3 10 17 11 31 1 14 -1 19 -3 13 -10 -24 -24 -14 -15 10 5 13 9 44 9 70 -1 57
23 97 57 97 18 0 25 -5 25 -20 0 -16 4 -18 18 -11 9 5 25 12 35 15 9 3 22 16
27 28 l9 23 0 -22 c1 -25 21 -43 21 -18 0 10 5 13 12 9 23 -14 -2 61 -28 84
-30 26 -59 28 -114 6 -23 -9 -43 -14 -46 -11 -10 10 8 78 30 110 12 17 32 34
45 35 23 4 23 2 17 -37 -7 -48 -7 -48 75 -25 47 13 60 22 69 45 17 40 16 78
-3 96 -21 21 -93 26 -144 9z"/>
<path d="M10690 5508 c-44 -86 -195 -208 -341 -277 -136 -63 -225 -82 -388
-82 -245 1 -456 66 -643 197 -26 19 -50 34 -53 34 -4 0 15 -25 42 -55 48 -57
63 -103 30 -97 -10 2 -16 -3 -15 -10 2 -6 -2 -12 -9 -13 -7 0 -21 -8 -33 -17
-11 -10 -20 -15 -20 -12 0 4 -12 -5 -26 -19 -25 -25 -27 -34 -29 -129 -2 -57
-6 -115 -10 -130 -5 -19 -2 -29 11 -36 22 -12 12 -62 -14 -62 -11 0 -13 -3 -5
-8 8 -5 12 -37 11 -92 0 -47 3 -92 6 -101 5 -11 1 -18 -12 -21 -11 -3 -26 -25
-36 -54 -23 -60 -33 -74 -56 -74 -9 0 -22 -11 -30 -24 -7 -14 -20 -25 -29 -26
-9 0 -32 -2 -52 -3 -20 -1 -42 -7 -50 -12 -15 -12 -90 -12 -108 -1 -6 4 -11 3
-11 -2 0 -5 31 -26 69 -46 38 -21 75 -49 82 -63 7 -14 28 -41 47 -60 18 -20
35 -48 39 -63 3 -16 15 -32 29 -39 13 -5 26 -22 30 -36 3 -14 10 -25 14 -25 4
0 15 -15 23 -32 11 -23 13 -36 5 -45 -6 -7 -6 -13 -1 -13 5 0 10 -21 11 -47 3
-58 6 -75 14 -88 3 -6 9 -31 13 -55 3 -25 10 -61 15 -80 6 -19 10 -49 10 -66
0 -39 35 -86 49 -65 12 18 20 2 16 -35 -2 -30 -2 -30 31 -20 26 8 39 22 54 53
11 24 20 55 20 70 0 16 4 34 9 42 5 8 5 28 -1 47 -6 23 -5 41 3 56 10 18 8 24
-6 34 -10 7 -15 20 -12 28 7 19 -21 30 -39 15 -12 -10 -13 -9 -8 5 10 25 -4
64 -26 71 -10 3 -17 12 -14 19 3 7 -6 20 -20 30 -16 10 -23 22 -20 31 4 8 2
15 -3 15 -5 0 -15 16 -21 36 -14 45 1 68 32 50 80 -46 145 -129 203 -261 56
-128 68 -193 68 -370 -1 -148 -3 -166 -29 -245 -83 -251 -211 -401 -478 -564
-37 -22 -35 -32 6 -46 19 -6 36 -15 38 -21 4 -12 91 -37 173 -51 70 -11 228
-3 233 12 2 6 17 2 37 -10 53 -33 117 -52 173 -51 98 1 180 72 212 185 8 28
17 43 25 40 7 -3 15 4 18 15 3 15 13 21 31 21 29 0 33 9 14 29 -11 11 -7 13
20 8 28 -6 44 4 25 16 -5 2 -2 2 4 1 7 -2 24 8 39 21 25 24 74 29 103 11 6 -4
11 -2 11 3 0 6 5 11 11 11 6 0 9 -7 5 -15 -4 -12 3 -15 30 -15 l35 0 -16 -29
c-9 -19 -11 -32 -5 -36 16 -10 32 6 27 26 -3 11 -2 17 3 14 4 -2 16 14 26 38
53 116 181 267 300 353 181 129 449 205 675 189 l96 -7 23 57 c19 47 36 67
104 123 45 37 91 72 101 79 82 50 171 108 175 114 3 4 48 33 100 66 223 140
403 202 552 190 74 -6 148 -29 148 -47 0 -6 6 -10 13 -10 18 0 88 -60 82 -70
-3 -5 2 -15 10 -23 8 -9 20 -28 27 -44 15 -37 13 -31 22 -88 7 -47 16 -76 37
-117 5 -10 9 -29 9 -42 0 -13 5 -26 11 -28 5 -2 10 -23 11 -48 0 -24 4 -51 8
-60 20 -40 33 -76 31 -87 -1 -6 3 -14 9 -18 5 -3 10 -23 10 -44 0 -30 4 -40
20 -44 11 -3 20 -13 20 -24 0 -10 7 -31 15 -47 8 -15 15 -45 15 -66 0 -34 3
-38 31 -44 17 -3 28 -10 24 -16 -3 -5 -1 -10 4 -10 8 0 11 150 11 483 l0 482
-177 1 c-213 0 -287 14 -418 77 -179 87 -290 204 -380 401 -61 135 -122 376
-112 442 4 20 1 34 -6 37 -9 3 -231 -25 -244 -32 -2 0 -20 -1 -40 -2 -37 -1
-37 -1 -10 -9 16 -5 34 -14 42 -20 10 -8 19 -8 33 -1 33 18 96 -30 126 -95 48
-105 76 -237 76 -360 0 -261 -134 -507 -371 -684 -89 -66 -175 -109 -279 -140
-107 -31 -387 -40 -486 -15 -126 31 -258 90 -308 136 -11 11 -25 19 -30 19 -6
0 -22 10 -36 23 -44 39 -95 81 -130 107 -124 91 -211 218 -261 380 -31 100
-33 298 -5 410 49 195 182 392 336 496 102 69 342 167 442 180 27 4 48 12 48
19 0 10 -83 171 -94 182 -2 2 -13 -15 -26 -39z m-1172 -648 c7 -12 16 -19 21
-16 4 3 9 -18 10 -47 1 -28 8 -55 14 -59 8 -5 8 -8 1 -8 -7 0 -10 -23 -9 -63
2 -54 -1 -64 -20 -79 -20 -15 -24 -15 -29 -3 -3 8 -12 15 -21 15 -8 0 -15 4
-15 10 0 5 -7 7 -15 4 -14 -6 -13 -8 1 -19 10 -7 14 -17 9 -24 -5 -9 -12 -7
-26 8 -10 11 -19 25 -19 31 0 5 -7 10 -15 10 -17 0 -21 46 -5 52 5 2 12 28 14
58 3 30 9 56 15 58 5 2 8 9 5 17 -8 20 12 27 29 10 9 -8 18 -15 21 -15 13 0 5
45 -11 62 -15 17 -15 18 8 18 14 0 30 -9 37 -20z"/>
<path d="M1568 5529 c-18 -10 -25 -49 -9 -49 8 0 41 43 41 55 0 8 -13 6 -32
-6z"/>
<path d="M8870 5350 c-23 -32 -81 -68 -140 -86 -33 -10 -35 -14 -38 -59 l-3
-48 68 6 c37 4 77 8 88 9 17 3 20 -3 22 -42 5 -88 45 -365 55 -377 11 -13 166
-7 182 7 5 5 -3 80 -17 172 -14 90 -34 222 -43 293 -10 72 -22 136 -27 143 -6
7 -33 12 -68 12 -53 0 -59 -3 -79 -30z"/>
<path d="M6579 5243 c-105 -109 -230 -277 -283 -381 -20 -38 -13 -53 33 -72
25 -10 33 -8 66 14 21 14 48 26 60 26 12 0 28 7 35 15 7 8 16 15 21 15 12 0
49 32 49 42 0 5 -9 8 -21 8 -13 0 -18 -4 -13 -12 4 -7 3 -8 -4 -4 -6 4 -9 13
-5 21 3 9 -1 15 -11 15 -9 0 -16 6 -16 13 1 19 137 184 232 280 l87 87 -39 25
c-22 14 -48 25 -58 25 -11 0 -67 -49 -133 -117z"/>
<path d="M6963 5149 c-48 -9 -108 -38 -150 -73 -54 -46 -112 -183 -84 -200 6
-4 11 -16 11 -27 0 -10 5 -19 10 -19 6 0 10 -7 10 -15 0 -8 5 -15 11 -15 5 0
8 -4 4 -9 -3 -6 15 -22 40 -36 25 -15 45 -30 45 -33 0 -17 -62 -64 -76 -58 -8
3 -12 2 -9 -4 3 -6 2 -10 -3 -10 -5 0 -16 -23 -26 -52 -13 -41 -14 -53 -4 -60
67 -44 130 -79 139 -76 6 2 23 24 37 49 41 71 62 99 119 166 29 33 53 65 53
70 0 5 -24 26 -53 46 -40 27 -64 37 -93 37 -22 0 -45 5 -52 12 -31 31 3 99 76
155 48 36 86 42 113 17 23 -21 12 -45 -40 -91 -35 -32 -36 -33 -16 -49 11 -8
42 -27 69 -41 50 -25 72 -24 109 7 7 6 21 18 33 28 33 28 54 65 54 95 0 111
-178 212 -327 186z m-179 -534 c3 -8 1 -15 -4 -15 -6 0 -10 7 -10 15 0 8 2 15
4 15 2 0 6 -7 10 -15z"/>
<path d="M12832 5050 c-52 -24 -87 -62 -102 -115 -7 -22 -16 -51 -21 -65 -24
-66 -69 -276 -69 -319 0 -64 30 -109 95 -141 67 -33 166 -39 221 -13 l39 18 3
193 2 192 -27 1 c-16 1 -45 1 -67 -1 l-39 -2 7 39 c12 66 38 108 66 108 23 0
25 -4 28 -57 2 -43 7 -58 17 -58 12 0 15 22 15 120 l0 120 -62 0 c-41 0 -78
-7 -106 -20z m90 -424 c-4 -98 -59 -159 -102 -116 -15 15 -17 25 -9 58 20 90
46 125 88 120 25 -3 26 -5 23 -62z"/>
<path d="M589 4987 c-56 -67 -116 -160 -159 -245 -40 -81 -67 -168 -56 -179 3
-4 6 0 6 9 0 19 59 155 101 233 36 65 126 196 143 207 6 4 8 9 5 12 -3 3 -21
-14 -40 -37z"/>
<path d="M679 5000 c-132 -70 -195 -278 -108 -359 29 -26 61 -27 84 -1 16 18
16 20 2 20 -23 0 -21 17 2 25 10 3 26 14 35 24 17 18 16 20 -6 26 -85 26 -90
158 -5 141 39 -8 64 -30 78 -71 12 -31 13 -32 30 -16 18 17 50 19 82 6 9 -4
29 -4 43 -1 17 5 23 3 19 -4 -3 -5 1 -10 10 -10 8 0 18 -6 21 -14 3 -8 13 -12
24 -9 15 4 18 1 13 -18 -5 -18 -3 -21 10 -16 24 9 39 -16 27 -47 -9 -25 -6
-30 14 -27 4 1 6 -12 4 -28 -6 -41 10 -28 34 26 26 58 18 98 -28 145 -39 41
-92 63 -132 55 -71 -14 -67 -17 -67 46 0 55 -2 61 -37 93 -44 40 -91 45 -149
14z m241 -190 c0 -5 -4 -10 -10 -10 -5 0 -10 5 -10 10 0 6 5 10 10 10 6 0 10
-4 10 -10z"/>
<path d="M10403 4757 c-13 -17 -30 -42 -38 -53 -15 -20 -14 -23 14 -52 25 -28
30 -30 41 -17 11 13 10 14 -5 8 -15 -5 -17 -3 -12 11 4 10 7 21 7 25 0 4 14
15 30 25 26 15 34 15 46 5 9 -7 3 8 -12 34 -16 26 -33 47 -39 47 -5 0 -20 -15
-32 -33z"/>
<path d="M431 4604 c-51 -65 -53 -205 -4 -296 52 -96 246 -228 335 -228 75 0
124 81 111 187 -8 71 -37 103 -88 98 -20 -2 -34 -1 -31 3 12 11 -17 32 -45 32
-21 0 -27 4 -23 15 4 10 0 15 -11 15 -11 0 -15 6 -10 19 3 11 -1 26 -10 35
-45 45 -125 -14 -125 -93 0 -16 -4 -32 -10 -36 -28 -17 -96 70 -86 111 7 26
14 27 57 10 13 -6 18 4 29 54 12 58 12 61 -10 80 -31 27 -55 25 -79 -6z m219
-134 c0 -5 -4 -10 -10 -10 -5 0 -10 5 -10 10 0 6 5 10 10 10 6 0 10 -4 10 -10z
m37 -128 c75 -40 100 -113 40 -120 -31 -4 -121 47 -131 74 -10 25 -7 59 5 71
12 12 22 10 86 -25z"/>
<path d="M10286 4538 c-19 -60 -15 -76 19 -97 20 -11 37 -31 41 -46 9 -36 -12
-94 -50 -140 -27 -31 -37 -37 -57 -32 -38 10 -53 50 -34 90 8 18 20 39 26 48
10 13 7 24 -17 55 -15 21 -29 41 -31 43 -7 10 -38 -28 -56 -68 -14 -31 -17
-55 -13 -85 9 -57 57 -137 107 -177 34 -27 50 -33 90 -33 26 0 54 5 61 12 28
23 69 112 75 161 6 56 -13 123 -29 99 -7 -9 -8 -7 -4 7 4 13 -5 38 -23 67 -19
30 -27 54 -24 70 4 22 0 26 -27 32 -45 8 -50 8 -54 -6z"/>
<path d="M10748 4433 c-10 -2 -18 -8 -18 -13 0 -4 -14 -13 -30 -20 -19 -8 -29
-19 -28 -29 2 -10 -3 -15 -14 -13 -13 2 -16 -2 -11 -14 5 -13 3 -16 -10 -11
-12 4 -24 -4 -42 -31 -14 -20 -25 -43 -25 -52 0 -8 23 -28 52 -44 49 -28 53
-28 62 -11 54 92 106 132 150 115 65 -24 26 -120 -72 -173 -58 -31 -226 -77
-285 -77 -31 0 -40 -5 -57 -32 -18 -30 -18 -34 -3 -50 38 -42 321 -187 366
-188 11 0 24 13 33 35 19 46 18 52 -7 60 -41 13 -189 86 -189 94 0 4 38 13 85
19 220 32 339 108 352 225 10 82 -51 156 -165 200 -40 16 -105 20 -144 10z"/>
<path d="M12390 4416 c0 -16 75 -35 379 -97 225 -45 231 -46 231 -19 0 14 -9
21 -32 25 -139 23 -377 69 -443 85 -96 24 -135 25 -135 6z"/>
<path d="M1755 4270 c-3 -5 1 -10 9 -10 10 0 13 -6 9 -16 -5 -13 -1 -15 18
-10 13 3 18 3 12 0 -21 -9 -15 -27 7 -21 11 3 18 1 15 -3 -3 -5 -1 -11 5 -15
5 -3 10 -1 10 4 0 8 7 7 20 -1 10 -7 23 -8 27 -4 4 5 2 11 -5 13 -7 3 -33 20
-58 39 -47 36 -59 40 -69 24z"/>
<path d="M6213 4091 c14 -25 33 -53 42 -64 9 -10 20 -29 25 -43 5 -13 14 -24
20 -24 5 0 10 -7 10 -15 0 -7 7 -18 16 -23 13 -7 16 -25 15 -83 -1 -120 -11
-159 -63 -263 -66 -133 -133 -218 -192 -244 -17 -8 -25 -17 -20 -22 9 -9 153
-70 165 -70 4 0 14 20 23 44 25 65 108 198 175 280 62 75 103 114 189 179 28
22 52 41 52 44 0 2 -29 17 -65 33 -105 47 -246 144 -317 218 -94 97 -107 106
-75 53z"/>
<path d="M0 3991 c0 -43 4 -60 15 -65 19 -7 19 -45 0 -52 -11 -5 -15 -22 -15
-70 0 -35 4 -64 10 -64 28 0 92 36 113 63 60 79 37 158 -65 223 -21 13 -42 24
-48 24 -6 0 -10 -26 -10 -59z"/>
<path d="M8698 3923 c-93 -36 -168 -70 -168 -76 0 -5 16 -34 35 -63 l35 -53
68 26 c82 31 102 37 102 30 0 -3 -18 -40 -39 -82 -22 -42 -38 -82 -35 -88 5
-14 66 -57 80 -57 6 0 21 11 34 25 48 51 103 23 134 -69 29 -88 15 -136 -39
-136 -29 0 -41 19 -50 83 -4 26 -12 47 -19 47 -20 0 -106 -36 -121 -51 -13
-12 -12 -22 1 -74 23 -87 38 -110 89 -135 57 -27 114 -23 193 16 64 31 106 85
121 154 19 89 -19 213 -81 266 -32 26 -101 48 -129 41 -26 -7 -24 2 13 78 l33
66 -30 57 c-17 31 -37 58 -45 59 -8 1 -90 -28 -182 -64z"/>
<path d="M9370 3886 c0 -9 5 -16 10 -16 6 0 10 4 10 9 0 6 -4 13 -10 16 -5 3
-10 -1 -10 -9z"/>
<path d="M3590 3799 c0 -5 5 -9 12 -9 6 0 4 -7 -5 -18 -10 -10 -17 -24 -17
-30 0 -7 -4 -12 -9 -12 -16 0 -22 -32 -9 -48 11 -13 10 -15 -4 -9 -12 4 -18 1
-18 -9 0 -8 -12 -20 -26 -26 -23 -11 -24 -13 -7 -19 16 -7 15 -8 -4 -8 -16 -1
-29 -13 -43 -40 l-20 -39 35 -31 c19 -17 41 -28 48 -25 7 2 28 29 46 59 19 30
38 55 43 55 5 0 33 -17 61 -39 94 -69 336 -231 346 -231 14 0 101 105 101 123
0 8 -21 27 -47 43 -90 53 -329 211 -383 255 -63 50 -100 72 -100 58z m10 -109
c0 -5 -4 -10 -10 -10 -5 0 -10 5 -10 10 0 6 5 10 10 10 6 0 10 -4 10 -10z"/>
<path d="M12145 3774 c-61 -31 -82 -50 -103 -89 -44 -86 24 -215 128 -240 24
-6 25 -8 25 -94 0 -80 2 -91 29 -129 41 -60 101 -86 174 -77 65 8 148 44 179
77 58 63 47 169 -25 249 -24 27 -55 52 -69 55 -20 5 -23 11 -18 28 25 75 12
129 -44 189 -37 41 -84 57 -160 57 -51 0 -77 -6 -116 -26z m138 -116 c38 -51
42 -84 13 -103 -20 -13 -29 -14 -46 -5 -26 14 -60 68 -60 96 0 52 57 59 93 12z
m106 -229 c28 -30 54 -88 47 -105 -15 -39 -62 -20 -92 38 -17 33 -18 60 -2 76
17 17 24 15 47 -9z"/>
<path d="M11798 3591 c-104 -52 -166 -137 -175 -241 l-5 -55 48 -22 c193 -88
389 -294 474 -499 50 -121 63 -199 57 -354 -4 -120 -8 -146 -39 -236 -34 -101
-93 -216 -146 -284 -119 -154 -316 -284 -513 -338 -67 -19 -116 -27 -274 -48
-47 -6 -48 -7 -22 -16 15 -5 25 -14 21 -19 -3 -5 0 -9 5 -9 6 0 11 -6 11 -14
0 -8 11 -17 25 -20 13 -3 22 -12 20 -19 -2 -6 13 -25 34 -42 21 -16 51 -47 66
-69 l28 -38 -7 -122 c-4 -70 -13 -140 -23 -166 -8 -25 -19 -84 -23 -132 -3
-48 -9 -91 -13 -94 -3 -4 -21 -8 -38 -10 -18 -2 -33 -5 -34 -6 0 -2 -13 -20
-29 -41 -33 -45 -29 -62 14 -71 146 -29 274 38 295 155 10 52 -12 144 -42 179
-15 19 -23 38 -20 50 3 11 -1 21 -9 24 -8 3 -14 10 -14 16 0 6 7 6 20 -2 15
-10 22 -10 32 0 16 16 29 15 22 -2 -3 -7 2 -16 10 -19 9 -4 16 -18 16 -35 0
-42 51 -115 96 -137 38 -19 103 -25 154 -15 22 4 25 1 28 -29 5 -45 -16 -83
-42 -79 -15 2 -22 12 -24 35 -2 17 -9 36 -15 41 -17 13 -136 -3 -154 -20 -21
-22 -6 -94 27 -132 25 -27 35 -31 98 -34 79 -5 163 15 205 49 15 11 39 40 53
65 l26 44 -31 96 c-40 122 -55 234 -46 349 7 91 42 223 69 260 14 20 46 27 56
13 8 -10 134 18 215 48 125 46 135 50 130 57 -3 4 -2 5 2 2 3 -3 15 2 25 12
28 25 32 9 5 -23 -31 -37 -63 -100 -72 -142 -10 -48 2 -116 27 -147 l21 -27
15 31 c10 22 22 31 38 31 13 0 24 5 24 11 0 6 7 9 15 5 21 -8 19 8 -5 29 -22
20 -26 55 -10 86 13 23 66 26 89 5 9 -8 27 -17 41 -21 23 -5 28 0 54 50 15 31
25 62 22 70 -10 27 -85 67 -138 74 l-53 8 38 7 c20 5 37 12 37 17 0 5 11 9 25
9 14 0 25 5 25 10 0 6 6 10 14 10 8 0 47 16 87 35 41 19 78 35 84 35 6 0 30 9
53 20 22 11 49 20 59 20 10 0 28 3 41 6 l22 6 0 364 c0 317 -2 364 -15 364 -8
0 -15 -5 -15 -12 0 -6 -2 -9 -5 -6 -11 10 8 39 22 34 8 -3 12 -2 9 3 -9 13
-76 11 -76 -2 0 -7 -4 -7 -9 2 -5 7 -13 11 -19 7 -6 -4 -20 3 -31 15 -11 12
-24 18 -29 15 -5 -3 -15 1 -22 9 -7 8 -21 15 -31 15 -11 0 -19 5 -19 10 0 6
-7 10 -16 10 -14 0 -14 2 1 16 14 14 14 19 2 33 -8 9 -12 22 -9 30 3 10 0 12
-13 7 -14 -5 -16 -4 -6 7 7 9 8 23 3 37 -8 22 -9 22 -27 4 -18 -19 -18 -18
-11 6 13 44 12 65 -4 65 -8 1 -14 6 -13 13 2 7 -3 12 -11 12 -7 0 -28 18 -47
39 -18 22 -43 42 -54 45 -11 3 -38 21 -60 41 -22 19 -53 39 -70 44 -30 10 -88
31 -182 70 -29 11 -53 18 -53 16 0 -3 -14 10 -31 29 l-30 35 -41 -16 c-54 -21
-74 -10 -70 41 l4 36 -49 2 c-26 0 -67 2 -90 3 -48 1 -76 22 -104 77 -25 48
-24 93 1 118 35 35 75 23 99 -30 l17 -38 57 27 c31 14 56 32 57 39 0 7 -9 35
-21 62 -33 77 -110 101 -191 61z m1142 -1035 c0 -3 -4 -8 -10 -11 -5 -3 -10
-1 -10 4 0 6 5 11 10 11 6 0 10 -2 10 -4z m-713 -423 c-3 -10 -5 -4 -5 12 0
17 2 24 5 18 2 -7 2 -21 0 -30z m-764 -1117 c-3 -4 -9 -2 -14 5 -13 22 -11 31
5 17 8 -7 12 -17 9 -22z m347 -16 c11 -7 12 -12 3 -21 -13 -13 -33 -4 -33 17
0 16 9 18 30 4z"/>
<path d="M6926 3388 c-20 -23 -36 -47 -36 -54 0 -12 89 -91 140 -125 35 -23
19 -35 -55 -43 -80 -8 -102 -15 -83 -27 10 -7 10 -11 0 -21 -10 -10 -15 -8
-28 10 -16 24 -40 28 -64 11 -11 -8 -9 -9 10 -4 24 7 24 6 8 -11 -15 -15 -21
-16 -43 -6 -31 14 -85 -5 -127 -45 -22 -21 -33 -25 -62 -20 -20 3 -36 3 -36 0
0 -3 30 -49 67 -102 75 -108 143 -237 174 -332 26 -80 36 -250 20 -342 -33
-188 -133 -387 -253 -504 -135 -132 -242 -197 -430 -263 -38 -13 -68 -27 -68
-31 0 -4 28 -11 63 -16 62 -8 62 -8 57 -38 -24 -145 49 -285 165 -316 51 -14
189 -6 235 14 19 9 53 34 75 56 37 39 40 46 43 110 3 54 7 68 18 64 8 -3 14
-13 14 -22 0 -9 4 -21 10 -27 5 -5 13 -27 17 -49 7 -31 16 -44 41 -56 18 -10
29 -19 24 -20 -13 -6 38 -129 54 -129 21 0 17 -10 -12 -35 -16 -13 -24 -28
-19 -35 5 -8 11 -5 22 9 8 12 20 21 28 21 7 0 16 6 19 13 3 6 4 -5 1 -25 -5
-30 -2 -39 13 -47 11 -6 23 -26 26 -46 5 -22 13 -35 23 -35 9 0 13 6 9 15 -3
8 -1 15 3 15 5 0 15 2 23 5 10 4 14 -8 16 -46 1 -29 7 -57 12 -64 10 -12 9
-22 -12 -78 -8 -21 -16 -27 -31 -23 -10 2 -16 2 -13 -1 17 -17 -66 -133 -96
-133 -5 0 -16 -7 -24 -15 -9 -8 -24 -15 -35 -15 -10 0 -19 -4 -19 -9 0 -5 -12
-12 -26 -15 -15 -4 -24 -10 -20 -13 9 -9 -26 -32 -49 -33 -12 0 -26 -5 -33
-12 -11 -11 -29 -16 -74 -20 -10 -1 -18 -5 -18 -9 0 -4 -21 -13 -46 -20 -26
-8 -54 -24 -64 -36 -20 -26 -32 -30 -24 -8 4 10 0 15 -11 15 -11 0 -15 -5 -11
-15 3 -9 0 -15 -8 -15 -8 0 -16 4 -18 10 -2 6 -9 5 -18 -1 -11 -8 -12 -12 -2
-16 19 -7 15 -22 -14 -47 l-27 -22 26 -65 c14 -35 35 -94 47 -131 l22 -68 74
0 74 0 0 28 c0 33 -32 159 -48 188 -6 12 -19 43 -27 69 -15 43 -15 48 0 65 9
10 36 22 58 25 23 4 48 12 55 18 16 13 62 18 62 6 0 -12 -33 -27 -49 -21 -8 3
-11 0 -7 -7 4 -6 15 -11 25 -11 9 0 22 -5 29 -12 9 -9 12 -9 12 0 0 10 13 12
130 12 18 0 36 -4 40 -9 3 -4 15 -7 28 -6 12 1 22 -2 22 -7 0 -4 8 -8 19 -8
10 0 24 -7 31 -15 7 -8 19 -15 26 -15 8 0 14 -4 14 -10 0 -5 6 -10 13 -10 6 0
23 -9 37 -20 14 -11 33 -20 43 -20 9 0 17 -7 17 -15 0 -9 8 -19 18 -22 33 -13
41 -37 42 -120 l0 -83 130 0 c72 0 130 2 130 5 0 3 -6 16 -14 28 -25 39 -56
145 -56 192 0 43 1 45 29 45 17 0 33 5 36 10 20 32 47 -6 83 -120 16 -52 19
-55 55 -61 49 -8 53 1 37 87 -6 38 -7 71 -2 76 5 5 35 -13 70 -41 152 -122
285 -141 366 -51 43 47 50 74 43 147 -6 60 -51 145 -93 176 -13 10 -57 23 -99
30 -44 7 -75 16 -75 23 0 7 22 31 50 54 28 23 50 45 50 50 0 4 -41 36 -90 70
-157 110 -254 228 -331 402 -43 99 -48 120 -56 220 -7 101 5 135 68 203 67 72
84 91 114 129 17 21 43 52 58 69 16 18 33 41 38 52 5 11 26 45 47 76 20 31 64
96 96 145 62 93 120 170 146 192 40 35 120 81 155 90 199 51 313 46 453 -19
26 -12 63 -29 82 -38 19 -9 37 -19 38 -23 2 -5 10 -8 18 -8 16 0 66 -94 56
-105 -4 -5 -2 -5 5 -1 7 4 17 -3 24 -16 7 -13 16 -26 21 -29 5 -3 11 -12 12
-20 7 -35 27 -69 46 -79 15 -8 20 -18 17 -31 -3 -10 -1 -22 5 -25 5 -3 7 -15
5 -26 -4 -15 -2 -18 11 -13 9 3 13 3 9 -1 -4 -4 4 -20 18 -34 14 -15 25 -31
24 -36 -2 -15 13 -54 21 -54 4 0 7 -15 6 -32 -1 -25 3 -33 19 -36 14 -2 16 -1
7 6 -10 7 -10 11 2 22 13 10 17 9 25 -11 5 -13 7 -27 4 -31 -2 -5 1 -8 6 -8 6
0 12 7 12 15 3 28 4 33 11 41 4 4 14 1 22 -5 12 -11 16 -7 22 23 3 20 11 39
17 43 5 3 7 1 4 -4 -4 -6 12 -16 38 -23 37 -10 45 -17 45 -36 0 -14 6 -24 14
-24 9 0 15 -19 20 -57 12 -101 19 -271 11 -290 -3 -10 -8 -40 -10 -68 -12
-162 -198 -433 -371 -541 -86 -53 -119 -62 -134 -33 -11 19 -60 27 -60 10 0
-5 -24 -15 -52 -22 -29 -6 -58 -20 -65 -29 -6 -9 -30 -22 -52 -30 -23 -7 -41
-17 -41 -22 0 -5 -6 -8 -12 -7 -24 3 -38 -1 -38 -11 0 -13 47 -13 55 0 7 11
28 4 77 -26 20 -13 48 -26 62 -30 27 -6 86 -60 86 -78 0 -6 13 -24 30 -39 16
-16 29 -31 28 -35 -4 -12 24 -102 32 -102 7 0 22 -103 21 -150 0 -14 -3 -46
-7 -72 l-7 -48 194 0 194 0 0 100 c1 147 15 146 81 -3 l40 -92 52 -3 c29 -2
52 1 52 6 0 5 -13 40 -28 78 -16 38 -44 114 -62 169 -18 55 -35 104 -37 108
-3 5 -18 -4 -34 -19 -16 -15 -32 -25 -35 -21 -15 15 26 128 65 177 19 24 23
25 153 26 73 0 151 6 173 12 22 6 55 12 73 14 19 1 36 6 38 10 3 4 -24 45 -58
90 -140 183 -174 290 -164 513 5 138 36 347 62 430 77 239 299 429 582 498 48
11 89 22 91 23 1 2 -11 45 -28 96 -17 51 -35 124 -41 163 -10 63 -20 97 -20
67 0 -32 -17 -65 -31 -57 -5 4 -9 -2 -10 -12 -1 -10 -2 -25 -3 -34 0 -8 -23
-34 -49 -57 -27 -23 -45 -42 -40 -42 13 0 -30 -26 -67 -40 -19 -8 -37 -17 -40
-21 -7 -10 -311 -14 -395 -5 -71 8 -190 39 -235 61 -14 7 -38 19 -55 26 -86
39 -247 189 -318 297 -23 34 -46 62 -52 62 -5 0 -32 -7 -60 -15 -121 -37 -305
-47 -450 -25 -86 13 -224 59 -289 96 -23 13 -48 24 -56 24 -14 0 -40 -41 -40
-64 0 -6 -27 -40 -60 -76 -33 -35 -60 -68 -60 -72 0 -4 -6 -8 -14 -8 -8 0 -16
-6 -19 -14 -3 -8 -27 -27 -54 -42 -26 -16 -49 -32 -51 -36 -2 -4 -12 -8 -22
-8 -9 0 -23 -7 -30 -15 -7 -8 -20 -15 -30 -15 -22 0 -140 -59 -140 -70 0 -5
-6 -7 -14 -4 -17 6 -106 -31 -106 -44 0 -5 -21 -10 -47 -11 -27 -1 -74 -5
-105 -10 -32 -4 -63 -4 -70 1 -7 4 -27 8 -44 8 -22 0 -33 6 -37 19 -2 10 -17
21 -33 25 -16 4 -32 12 -35 18 -4 6 -17 11 -30 11 -30 0 -79 55 -59 67 7 4 9
13 6 19 -4 6 -3 11 1 11 5 0 10 15 11 33 1 19 12 40 27 54 19 17 21 22 9 27
-8 3 -12 10 -9 16 4 6 11 8 16 5 5 -4 9 -2 9 3 0 5 -17 13 -37 19 -24 7 -30
11 -17 12 12 0 51 -15 88 -34 37 -19 72 -35 77 -35 5 0 97 43 204 95 186 91
197 98 240 153 25 31 44 63 43 71 -2 8 -42 37 -91 65 -48 27 -87 55 -87 61 0
6 16 34 35 61 19 27 35 52 35 56 0 9 -98 68 -113 68 -7 0 -30 -22 -51 -50 -37
-49 -58 -61 -71 -40 -14 22 -43 8 -75 -37 l-33 -46 22 -18 c31 -25 23 -43 -56
-121 -68 -67 -68 -67 -69 -37 -1 36 -10 47 -26 31 -24 -24 -24 -11 -1 39 l25
51 -21 22 c-12 12 -39 32 -61 45 l-39 22 -22 -25 c-12 -14 -26 -23 -31 -20 -4
3 -8 -2 -8 -10 0 -9 -4 -16 -9 -16 -9 0 -25 30 -23 43 1 4 -7 7 -18 7 -31 0
-24 13 23 41 81 49 208 89 288 89 57 0 92 18 123 62 29 40 29 42 10 55 -10 7
-69 51 -130 96 -143 106 -172 127 -178 127 -2 0 -21 -19 -40 -42z m469 -590
c19 -13 35 -28 35 -33 0 -11 -170 -89 -177 -81 -9 9 88 136 103 136 2 0 20
-10 39 -22z m-335 -22 c0 -11 -19 -15 -25 -6 -3 5 1 10 9 10 9 0 16 -2 16 -4z
m-66 -124 c-6 -4 -14 -16 -17 -26 -4 -10 -10 -16 -13 -13 -9 8 15 47 29 47 8
0 9 -3 1 -8z m-39 -125 c12 -10 14 -16 7 -21 -15 -9 -54 12 -47 25 8 12 18 11
40 -4z m2305 -757 c0 -5 -2 -10 -4 -10 -3 0 -8 5 -11 10 -3 6 -1 10 4 10 6 0
11 -4 11 -10z m-2741 -387 c40 -38 29 -65 -35 -87 -99 -33 -187 -11 -169 43 8
25 65 45 105 36 23 -5 32 -2 42 14 17 27 22 26 57 -6z m1417 -906 c3 -24 16
-35 21 -19 5 14 29 16 38 3 6 -10 -14 -62 -28 -72 -4 -3 -4 -17 2 -30 13 -37
3 -75 -26 -90 -33 -18 -121 -16 -159 4 -38 20 -134 105 -134 120 0 14 40 57
53 57 5 0 15 8 22 17 11 15 15 11 31 -36 11 -29 25 -56 32 -58 19 -8 52 31 46
54 -4 14 5 27 33 46 42 30 65 31 69 4z m-1219 -43 c-3 -3 -12 -4 -19 -1 -8 3
-5 6 6 6 11 1 17 -2 13 -5z"/>
<path d="M1990 3394 c-22 -57 -3 -231 45 -419 19 -74 35 -142 35 -152 0 -27
-64 41 -122 129 -40 60 -54 75 -67 69 -9 -4 -34 -9 -56 -10 -21 -1 -41 -4 -44
-6 -2 -3 9 -15 25 -27 63 -48 153 -141 168 -173 9 -18 33 -55 54 -82 66 -83
102 -151 128 -241 22 -74 26 -108 27 -222 1 -130 0 -139 -35 -241 -40 -119
-96 -243 -124 -276 -11 -12 -37 -47 -59 -78 -60 -85 -217 -215 -259 -215 -8 0
-19 -7 -26 -15 -7 -8 -19 -15 -26 -15 -8 0 -22 -4 -32 -9 -18 -9 -87 -31 -157
-49 -135 -36 -409 -29 -519 12 -158 60 -309 153 -424 262 -26 24 -48 41 -50
39 -2 -2 1 -10 7 -17 6 -7 34 -44 63 -83 28 -38 64 -87 80 -107 15 -20 28 -42
28 -47 0 -6 4 -11 9 -11 17 0 58 -96 54 -126 -3 -20 2 -36 16 -51 11 -12 16
-23 10 -25 -13 -4 -23 -88 -9 -88 5 0 10 5 10 12 0 6 3 8 7 5 7 -8 10 -37 13
-117 1 -37 4 -49 9 -35 6 15 9 8 14 -27 8 -60 -19 -191 -60 -288 -47 -111
-154 -258 -229 -315 -21 -16 -41 -32 -44 -35 -14 -18 -105 -72 -183 -109 -86
-41 -88 -43 -82 -72 8 -36 12 -35 -107 -24 l-78 7 0 -49 0 -48 175 0 175 0 36
28 c31 25 34 33 28 59 l-6 31 63 -7 c75 -8 216 -8 349 0 109 6 139 11 158 27
8 6 30 12 50 14 60 4 87 9 102 18 10 6 12 4 7 -9 -5 -13 -3 -17 7 -13 8 3 24
-5 36 -18 13 -13 25 -24 29 -23 19 2 31 -3 26 -11 -3 -5 5 -17 17 -25 12 -9
17 -16 10 -16 -21 0 -13 -18 12 -24 14 -3 26 -16 30 -31 l6 -25 169 0 169 0 6
33 c8 45 60 151 103 211 36 50 145 161 231 234 23 20 42 43 42 52 0 9 -17 52
-38 95 -59 121 -67 162 -67 320 1 230 47 360 205 574 35 47 178 164 253 205
88 49 225 93 353 112 93 14 122 15 199 4 104 -14 181 -46 229 -96 18 -19 38
-34 43 -34 6 0 13 -7 17 -15 3 -8 12 -15 21 -15 8 0 15 -6 15 -14 0 -7 7 -19
15 -26 9 -7 13 -15 11 -18 -3 -2 4 -12 15 -21 11 -9 21 -23 23 -31 1 -8 7 -31
13 -50 6 -19 19 -75 28 -125 9 -49 20 -106 25 -125 7 -26 6 -38 -4 -49 -12
-11 -12 -18 0 -47 8 -19 12 -34 9 -34 -3 0 -1 -10 6 -21 8 -15 8 -19 0 -15 -6
4 -11 2 -11 -3 0 -6 4 -11 10 -11 10 0 8 -23 -4 -51 -4 -9 2 -42 13 -73 11
-31 16 -56 13 -56 -12 0 -6 -62 7 -70 10 -5 9 -9 -2 -13 -19 -7 -11 -47 9 -47
22 0 16 -21 -7 -27 -18 -5 -20 -12 -16 -54 4 -37 1 -49 -9 -49 -9 0 -14 -11
-14 -28 0 -30 -31 -68 -44 -55 -4 5 -7 1 -6 -7 7 -45 -1 -100 -14 -100 -16 0
-25 -49 -15 -78 6 -16 0 -29 -27 -56 -18 -18 -34 -40 -34 -46 0 -10 -3 -10
-15 0 -19 15 -47 -4 -38 -26 5 -12 -7 -19 -29 -15 -5 0 -8 -3 -8 -9 0 -5 -8
-10 -19 -10 -21 0 -41 -21 -45 -47 -2 -10 -12 -18 -22 -18 -32 -1 -104 -27
-98 -36 3 -5 -7 -9 -21 -9 -15 0 -33 -7 -41 -15 -14 -13 -8 -15 48 -15 65 1
169 17 249 40 46 13 105 7 94 -10 -5 -9 6 -14 26 -12 3 1 25 -21 49 -49 l42
-49 114 0 c63 0 114 2 114 5 0 2 -8 20 -17 40 -19 40 -13 53 20 38 72 -35 130
-38 243 -14 l50 11 44 -40 43 -40 176 0 c146 0 189 3 249 20 74 21 133 52 165
87 64 72 19 234 -81 289 -23 13 -49 24 -57 24 -7 0 -21 7 -30 16 -14 15 -10
21 50 78 46 43 66 69 63 82 -2 12 5 22 19 29 12 5 24 17 26 27 3 10 16 22 30
27 14 5 27 15 29 21 2 7 25 14 51 17 44 5 68 23 30 23 -14 0 -14 3 5 20 24 23
42 26 42 8 0 -7 16 -22 36 -33 34 -19 63 -71 64 -113 0 -8 9 -25 20 -39 14
-18 20 -41 20 -74 0 -38 4 -51 20 -59 11 -6 26 -25 34 -43 12 -28 12 -34 -3
-46 -12 -10 -13 -15 -3 -18 30 -11 -5 -176 -36 -171 -12 2 -19 -10 -26 -47 -5
-27 -12 -52 -16 -55 -4 -3 -9 -20 -12 -37 l-5 -33 294 0 c161 0 293 4 293 9 0
5 -8 26 -17 47 -30 66 -24 297 11 454 l28 125 -70 120 c-38 66 -81 156 -95
200 -36 108 -46 121 -109 135 -66 15 -167 53 -227 87 -154 86 -351 269 -351
326 0 13 23 24 70 33 33 6 120 36 120 41 0 3 -21 2 -46 -2 -32 -4 -44 -3 -39
4 10 17 1 13 -25 -9 -14 -12 -31 -18 -42 -14 -10 3 -18 1 -18 -5 0 -6 -9 -11
-20 -11 -11 0 -20 -4 -20 -8 0 -10 -87 -16 -255 -16 -107 0 -144 5 -205 23
-75 23 -180 72 -277 129 -29 17 -55 28 -57 23 -6 -8 -72 -7 -125 3 -57 11
-145 45 -171 66 -14 12 -53 35 -88 51 -59 29 -67 31 -136 24 -99 -9 -154 19
-169 86 -6 25 -8 37 -22 140 -7 55 10 175 30 205 20 30 110 70 190 84 39 6 77
14 85 17 8 3 26 8 40 10 45 7 48 11 55 75 9 84 42 219 72 296 14 35 23 65 21
68 -12 11 -37 -10 -43 -37 -10 -45 -81 -143 -143 -199 -90 -80 -267 -159 -392
-174 -122 -16 -280 -18 -346 -6 -90 16 -212 61 -276 100 -69 43 -194 145 -248
203 -41 45 -43 50 -27 62 11 8 17 26 17 49 0 37 35 86 61 86 8 0 9 11 5 32
-10 50 -24 60 -70 47 -21 -6 -42 -7 -47 -2 -4 4 -17 42 -29 83 -16 55 -24 113
-27 218 -6 142 -6 142 -30 142 -16 0 -27 -8 -33 -26z m1249 -1623 c8 -5 9 -11
3 -15 -5 -3 -15 1 -22 9 -14 16 -3 20 19 6z m46 -11 c3 -5 2 -10 -4 -10 -5 0
-13 5 -16 10 -3 6 -2 10 4 10 5 0 13 -4 16 -10z m40 -21 c11 -17 -1 -21 -15
-4 -8 9 -8 15 -2 15 6 0 14 -5 17 -11z m35 -19 c0 -5 -4 -10 -10 -10 -5 0 -10
5 -10 10 0 6 5 10 10 10 6 0 10 -4 10 -10z m55 -40 c10 -11 14 -20 9 -20 -5 0
-17 9 -27 20 -9 11 -13 20 -8 20 4 0 16 -9 26 -20z m-2625 -651 c0 -10 -4 -19
-10 -19 -5 0 -10 12 -10 26 0 14 4 23 10 19 6 -3 10 -15 10 -26z m2890 -269
c0 -4 -11 -10 -24 -12 -18 -4 -22 -1 -19 12 3 12 11 16 24 13 10 -3 19 -9 19
-13z m20 -25 c0 -7 -30 -13 -34 -7 -3 4 4 9 15 9 10 1 19 0 19 -2z m-54 -74
c-2 -37 -7 -43 -24 -25 -7 8 -8 14 -3 14 5 0 13 9 16 20 9 28 13 25 11 -9z
m38 -17 c3 -8 2 -12 -4 -9 -6 3 -10 10 -10 16 0 14 7 11 14 -7z m-120 -69 c-4
-8 -10 -15 -15 -15 -5 0 -9 7 -9 15 0 8 7 15 15 15 9 0 12 -6 9 -15z m-194
-40 c-7 -9 -15 -13 -17 -11 -7 7 7 26 19 26 6 0 6 -6 -2 -15z m201 -48 c-13
-13 -26 -3 -16 12 3 6 11 8 17 5 6 -4 6 -10 -1 -17z m-81 -42 c0 -17 -16 -20
-25 -5 -4 6 -11 8 -16 5 -5 -4 -9 -1 -9 4 0 6 11 11 25 11 16 0 25 -6 25 -15z
m65 -45 c3 -5 1 -10 -4 -10 -6 0 -11 5 -11 10 0 6 2 10 4 10 3 0 8 -4 11 -10z
m-35 -60 c0 -10 -39 -24 -47 -17 -9 10 5 23 26 24 12 1 21 -2 21 -7z m-190
-34 c0 -11 -19 -15 -25 -6 -3 5 1 10 9 10 9 0 16 -2 16 -4z m140 -6 c0 -5 -4
-10 -10 -10 -5 0 -10 5 -10 10 0 6 5 10 10 10 6 0 10 -4 10 -10z m1001 -50
c29 -16 23 -47 -12 -66 -17 -8 -59 -16 -93 -17 -56 -2 -61 0 -64 20 -4 24 17
38 83 59 51 16 62 16 86 4z m-297 -99 c20 -22 15 -26 -35 -35 -28 -5 -39 -2
-54 14 -18 20 -18 20 8 20 14 0 29 5 32 10 10 16 30 12 49 -9z"/>
<path d="M5870 3350 c-32 -6 -30 -7 25 -14 33 -4 76 -9 95 -12 23 -4 32 -2 25
4 -15 15 -105 28 -145 22z"/>
<path d="M2211 3234 c-4 -67 64 -169 119 -181 40 -8 48 -28 23 -56 -11 -12
-28 -36 -38 -54 -17 -28 -17 -36 -5 -73 25 -77 18 -74 188 -60 83 7 156 17
164 21 10 6 7 20 -15 64 l-28 57 -62 -7 c-34 -3 -70 -9 -80 -11 -36 -11 -30
27 13 88 35 51 40 62 29 74 -15 14 -84 22 -95 11 -4 -4 -2 -7 5 -7 7 0 9 -5 6
-11 -5 -6 -12 -4 -20 7 -7 10 -19 15 -28 11 -8 -3 -21 1 -28 9 -7 8 -15 11
-18 6 -9 -14 -51 -25 -51 -13 0 5 5 13 10 16 15 9 2 25 -15 19 -9 -4 -18 1
-21 12 -4 11 -15 28 -24 39 -10 11 -20 29 -23 40 -5 19 -5 19 -6 -1z"/>
<path d="M6240 3215 c7 -9 15 -13 17 -11 7 7 -7 26 -19 26 -6 0 -6 -6 2 -15z"/>
<path d="M6260 3185 c-10 -12 -10 -15 3 -15 8 0 20 7 27 15 10 12 10 15 -3 15
-8 0 -20 -7 -27 -15z"/>
<path d="M6280 3151 c0 -13 26 -32 33 -24 8 7 -11 33 -24 33 -5 0 -9 -4 -9 -9z"/>
<path d="M6338 3093 c-18 -5 -25 -23 -9 -23 5 0 7 -8 4 -18 -2 -10 3 -24 11
-31 22 -19 20 -39 -6 -62 l-23 -19 40 6 c30 4 36 3 25 -5 -12 -9 -13 -12 -1
-20 10 -6 10 -10 1 -16 -9 -6 -9 -10 1 -16 10 -6 7 -9 -11 -9 -44 -1 -53 -15
-76 -130 -13 -61 -40 -156 -60 -211 -33 -90 -36 -105 -29 -163 10 -94 14 -97
110 -82 59 10 82 10 87 2 6 -8 8 -7 8 2 0 6 4 12 9 12 5 0 13 -29 16 -64 9
-82 28 -90 118 -53 29 13 30 17 28 94 -1 49 0 53 25 59 25 6 26 8 22 78 -3 69
-4 71 -31 74 -15 2 -27 8 -27 13 0 6 4 8 9 4 5 -3 12 -1 16 5 3 5 1 10 -4 10
-6 0 -11 5 -11 10 0 6 7 10 16 10 10 0 14 6 10 18 -3 9 -8 29 -12 44 -7 32
-24 28 -24 -5 0 -18 2 -19 10 -7 8 12 10 9 10 -13 0 -19 -4 -27 -12 -25 -20 7
-21 54 -3 109 10 28 14 53 11 56 -3 4 -6 -1 -6 -10 0 -9 -7 -17 -16 -17 -16 0
-16 12 0 51 5 10 1 19 -8 22 -9 4 -13 1 -11 -6 3 -7 1 -25 -4 -42 -10 -31 -11
-29 -16 35 -2 14 -7 37 -13 52 -10 23 -8 27 12 32 32 8 38 30 16 54 -10 11
-16 23 -13 26 4 3 0 6 -8 6 -8 0 -27 20 -42 44 -15 24 -39 52 -53 61 -13 9
-23 23 -22 33 2 9 -5 18 -14 20 -11 2 -18 -3 -18 -12 0 -9 -4 -16 -9 -16 -5 0
-7 9 -4 20 3 11 4 19 2 19 -2 -1 -12 -3 -21 -6z m159 -210 c0 -27 -1 -30 -4
-10 -3 17 -11 27 -21 27 -15 0 -15 2 -2 10 23 15 26 13 27 -27z m-70 11 c-3
-3 -12 -4 -19 -1 -8 3 -5 6 6 6 11 1 17 -2 13 -5z m120 -256 c-3 -7 -5 -2 -5
12 0 14 2 19 5 13 2 -7 2 -19 0 -25z m-149 -40 c-1 -13 2 -34 6 -48 6 -19 5
-21 -3 -10 -9 12 -11 10 -11 -12 0 -15 7 -31 15 -35 20 -12 5 -29 -32 -36 -39
-8 -41 2 -13 61 11 22 20 48 20 56 0 16 10 46 16 46 2 0 3 -10 2 -22z"/>
<path d="M6325 2900 c3 -5 8 -10 11 -10 2 0 4 5 4 10 0 6 -5 10 -11 10 -5 0
-7 -4 -4 -10z"/>
<path d="M5818 2820 c-132 -40 -156 -224 -44 -329 l25 -24 -32 -45 c-29 -40
-32 -51 -32 -116 0 -132 69 -207 197 -214 111 -7 189 31 236 116 45 81 13 208
-69 266 l-22 15 26 31 c34 39 42 87 27 150 -27 112 -91 160 -210 159 -41 0
-87 -4 -102 -9z m119 -138 c20 -13 37 -100 25 -128 -14 -29 -47 -32 -62 -4
-14 25 -24 105 -17 124 7 17 34 21 54 8z m39 -288 c18 -5 23 -16 29 -61 8 -69
-7 -113 -41 -113 -36 0 -58 42 -56 107 1 29 4 58 7 63 7 11 30 13 61 4z"/>
<path d="M10241 2714 c0 -11 3 -14 6 -6 3 7 2 16 -1 19 -3 4 -6 -2 -5 -13z"/>
<path d="M11035 2702 c-6 -4 -18 -19 -27 -33 -13 -20 -14 -29 -5 -39 9 -10 9
-14 0 -17 -18 -6 -16 -23 2 -23 9 0 15 -9 15 -25 0 -14 -5 -25 -12 -25 -7 0 2
-15 20 -33 38 -40 41 -57 7 -57 -14 0 -25 -4 -25 -10 0 -21 -44 -60 -62 -54
-10 3 -18 1 -18 -5 0 -6 7 -11 15 -11 8 0 15 -5 15 -11 0 -6 -9 -9 -20 -6 -24
6 -26 -8 -5 -29 8 -9 15 -33 15 -54 0 -32 -7 -46 -39 -78 -73 -72 -144 -80
-166 -18 -9 25 -6 31 28 62 20 19 37 38 37 42 -1 13 -40 55 -46 49 -4 -3 -14
3 -23 15 -17 20 -18 20 -50 4 -73 -38 -92 -129 -42 -207 32 -51 99 -109 149
-129 53 -21 131 -9 185 29 98 67 128 163 78 245 -13 20 -21 40 -17 43 3 3 47
5 98 4 l93 -2 49 56 49 57 -138 131 c-76 73 -141 133 -144 134 -3 2 -11 -1
-16 -5z"/>
<path d="M12898 2603 c6 -2 18 -2 25 0 6 3 1 5 -13 5 -14 0 -19 -2 -12 -5z"/>
<path d="M6615 2520 c3 -5 8 -10 11 -10 2 0 4 5 4 10 0 6 -5 10 -11 10 -5 0
-7 -4 -4 -10z"/>
<path d="M1175 2430 c-63 -25 -117 -72 -109 -94 4 -9 1 -16 -6 -16 -7 0 -10
-7 -6 -15 3 -9 -1 -15 -11 -15 -12 0 -13 -3 -3 -15 9 -11 8 -19 -4 -37 -9 -12
-16 -33 -16 -45 0 -13 -6 -23 -13 -23 -7 0 -18 -9 -25 -20 -10 -17 -10 -26 3
-49 16 -32 55 -67 86 -76 26 -9 24 -27 -6 -55 l-24 -23 -77 52 c-42 28 -79 51
-82 51 -18 -1 -71 -61 -66 -74 5 -13 65 -63 179 -148 27 -21 57 -38 67 -38 9
0 36 21 60 47 24 25 71 75 106 111 34 36 62 68 62 73 0 19 -85 79 -112 79 -45
0 -68 17 -68 50 0 43 113 160 156 160 66 0 73 -53 14 -112 -22 -22 -40 -42
-40 -44 0 -8 91 -64 105 -64 38 0 102 60 131 122 32 71 -8 149 -105 201 -68
37 -132 43 -196 17z"/>
<path d="M11356 2323 c-28 -36 -42 -61 -36 -68 5 -6 36 -26 69 -45 34 -18 61
-37 61 -41 0 -10 -39 -19 -95 -20 -88 -2 -108 -10 -117 -47 -11 -42 -1 -55 52
-71 80 -24 70 -95 -23 -162 -46 -33 -85 -37 -117 -11 -30 24 -20 54 26 82 18
12 34 26 34 31 0 10 -99 69 -117 69 -7 0 -33 -19 -58 -43 -39 -38 -45 -49 -45
-85 0 -53 38 -98 117 -137 175 -87 405 28 394 197 -1 9 -12 30 -26 46 -32 38
-31 42 3 42 55 1 186 38 201 58 59 73 73 93 68 98 -3 3 -49 25 -102 49 -54 25
-124 60 -157 80 -33 19 -65 35 -73 35 -7 0 -34 -26 -59 -57z"/>
<path d="M3796 2329 c-39 -31 -56 -71 -56 -135 0 -85 18 -133 71 -186 37 -37
56 -48 93 -53 56 -9 94 0 123 27 l22 21 37 -32 c43 -38 62 -46 129 -55 41 -6
58 -3 95 16 69 35 95 114 70 217 -13 55 -67 115 -115 127 -41 10 -126 -1 -170
-22 -22 -10 -44 -19 -50 -20 -17 -1 -46 16 -41 25 3 4 -11 15 -29 25 -19 11
-32 23 -29 27 8 13 -52 39 -89 39 -20 0 -46 -9 -61 -21z m162 -151 c42 -26 44
-64 5 -79 -36 -13 -108 6 -128 35 -19 27 -19 32 6 57 24 24 63 19 117 -13z
m272 -41 c28 -14 38 -46 18 -58 -22 -15 -112 -10 -136 7 -21 15 -29 44 -15 57
11 12 107 7 133 -6z"/>
<path d="M0 2060 c0 -143 1 -150 20 -150 11 0 54 -11 96 -25 42 -14 84 -25 94
-25 25 0 108 -38 158 -72 23 -16 42 -25 42 -21 -1 4 -15 32 -33 62 -22 38 -40
55 -57 58 -32 5 -60 31 -60 57 0 37 -63 128 -120 174 -30 24 -68 55 -84 68
-54 43 -56 39 -56 -126z"/>
<path d="M4963 1902 c1 -22 5 -40 9 -39 4 1 23 -14 44 -33 40 -38 41 -35 5 23
-12 20 -27 37 -33 37 -5 0 -7 3 -4 8 2 4 -2 16 -9 26 -12 16 -13 14 -12 -22z"/>
<path d="M4976 1831 c-3 -5 1 -11 9 -15 8 -3 15 -1 15 4 0 13 -18 22 -24 11z"/>
<path d="M8970 1800 c0 -5 5 -10 10 -10 6 0 10 5 10 10 0 6 -4 10 -10 10 -5 0
-10 -4 -10 -10z"/>
<path d="M5087 1746 c-4 -10 -1 -13 9 -9 7 3 14 2 14 -2 0 -21 -27 -47 -99
-96 -45 -30 -81 -57 -81 -60 0 -4 12 -9 28 -12 297 -56 364 -62 387 -31 22 29
18 43 -17 62 -17 9 -75 50 -128 90 -53 39 -100 72 -103 72 -2 0 -7 -7 -10 -14z"/>
<path d="M8948 1718 c-3 -7 -1 -74 4 -148 8 -115 5 -614 -4 -675 -4 -29 30
-32 41 -3 5 13 12 77 15 143 4 66 9 154 12 195 3 41 2 171 -2 288 l-7 212 -27
0 c-15 0 -30 -6 -32 -12z"/>
<path d="M8623 1670 c-62 -13 -100 -36 -132 -80 -37 -51 -45 -97 -27 -149 l14
-41 -27 -1 c-105 -4 -151 12 -151 52 0 27 35 42 82 34 l41 -7 -8 68 c-10 99
-17 108 -74 101 -98 -12 -137 -52 -147 -154 -12 -116 40 -207 134 -234 65 -19
380 -19 444 0 58 16 124 71 143 118 8 20 15 65 15 101 0 124 -68 192 -200 198
-36 2 -84 -1 -107 -6z m161 -189 c17 -19 17 -21 -8 -45 -22 -23 -33 -26 -94
-26 -74 0 -106 14 -100 45 5 29 46 45 119 45 53 0 69 -4 83 -19z"/>
<path d="M80 1487 c-14 -7 -37 -21 -52 -31 l-28 -18 0 -163 0 -162 43 -40 c52
-48 104 -68 155 -58 40 7 112 49 112 65 0 23 21 7 40 -30 41 -81 17 -127 -36
-65 l-32 38 -28 -21 c-16 -11 -42 -34 -58 -50 -36 -38 -30 -71 20 -119 30 -28
43 -33 85 -33 57 0 122 32 163 81 28 32 33 35 39 17 2 -7 2 -1 0 15 -3 15 0
27 6 27 6 0 11 6 11 14 0 8 5 27 11 43 10 26 12 27 19 8 5 -11 9 -14 11 -7 3
24 4 27 12 39 4 6 5 18 1 26 -3 8 3 23 13 32 16 17 18 17 21 2 2 -9 8 -17 13
-17 12 0 11 7 -1 31 -6 10 -7 19 -2 19 11 0 13 38 1 45 -5 4 -9 1 -9 -4 0 -6
-9 -11 -19 -11 -11 0 -21 -4 -23 -10 -2 -6 -8 -6 -18 0 -12 8 -11 11 8 16 17
5 20 10 12 19 -8 9 -8 15 -1 20 7 4 7 11 -2 19 -6 8 -15 12 -19 9 -5 -2 -8 1
-8 6 0 6 -11 11 -25 11 -19 0 -25 -5 -25 -22 0 -18 -6 -15 -42 24 -24 24 -59
64 -78 88 -71 89 -102 119 -144 139 -48 24 -109 27 -146 8z m81 -159 c60 -51
91 -139 57 -161 -14 -9 -23 -6 -48 18 -42 40 -83 125 -68 142 13 16 40 17 59
1z m353 -174 c5 -14 4 -15 -9 -4 -17 14 -19 20 -6 20 5 0 12 -7 15 -16z m38
-106 c-4 -18 -6 -19 -14 -4 -12 22 -1 57 11 37 5 -7 6 -22 3 -33z"/>
<path d="M2560 1430 c-31 -38 -49 -50 -69 -50 -28 0 -59 -26 -80 -67 -9 -19
-8 -24 9 -33 11 -6 20 -20 20 -30 0 -15 7 -20 29 -20 16 0 34 -6 40 -14 7 -8
20 -12 31 -9 19 5 120 -45 120 -60 0 -5 -5 -17 -11 -29 -8 -14 -7 -28 1 -48
11 -26 14 -27 39 -19 35 12 69 49 104 111 l27 47 -67 37 c-95 51 -113 63 -113
73 0 4 13 28 30 52 16 24 30 49 30 56 0 14 -61 53 -83 53 -8 0 -34 -22 -57
-50z"/>
<path d="M12763 1459 c-28 -8 -33 -14 -33 -42 -1 -38 -40 -106 -57 -100 -17 6
-16 -5 1 -22 12 -12 16 -11 29 8 15 21 16 20 13 -25 -3 -47 -3 -48 15 -27 28
32 44 18 63 -54 23 -84 32 -96 92 -118 66 -25 76 -24 97 12 14 26 17 57 17
196 0 121 -3 164 -12 161 -6 -2 -29 -39 -50 -81 -21 -42 -43 -77 -48 -77 -8 0
-29 57 -50 138 -12 45 -18 48 -77 31z"/>
<path d="M486 1293 c-9 -9 -7 -33 3 -33 12 0 22 28 12 34 -5 3 -11 3 -15 -1z"/>
<path d="M10579 1284 c-8 -10 -24 -40 -36 -68 -22 -54 -49 -69 -73 -41 -7 8
-16 15 -20 15 -5 0 -39 18 -78 40 -79 46 -92 48 -92 19 0 -11 -3 -18 -7 -16
-5 3 -9 -6 -9 -20 -1 -14 -11 -31 -23 -39 -12 -9 -21 -19 -21 -24 0 -10 122
-100 135 -100 5 0 23 -11 40 -24 46 -35 215 -116 230 -110 7 3 25 28 40 55 25
47 26 51 11 74 -25 38 -30 95 -12 145 22 62 21 65 -20 89 -42 25 -48 26 -65 5z"/>
<path d="M2970 1241 c-77 -24 -141 -86 -181 -175 -42 -96 3 -207 98 -242 65
-24 66 -26 37 -57 -28 -30 -16 -32 -145 26 -31 14 -60 22 -65 19 -15 -10 -54
-81 -54 -97 0 -18 306 -169 326 -161 8 3 26 31 40 61 14 30 50 92 80 137 30
45 53 87 51 93 -2 5 -27 24 -57 42 -40 24 -63 31 -95 30 -24 -1 -47 2 -52 6
-4 5 -7 29 -6 53 1 35 9 55 37 88 46 57 87 74 121 52 33 -22 32 -36 -10 -90
-19 -26 -35 -49 -35 -51 0 -7 125 -65 139 -65 19 0 88 69 105 105 51 106 -87
236 -247 234 -34 0 -73 -4 -87 -8z"/>
<path d="M8630 1195 c-19 -9 -47 -28 -62 -42 l-26 -25 -34 25 c-43 33 -101 42
-169 28 -67 -15 -114 -46 -135 -90 -21 -44 -22 -137 -1 -178 48 -91 216 -113
318 -41 13 9 21 7 40 -11 53 -49 164 -50 253 -3 62 34 94 76 108 145 10 47 9
61 -6 101 -27 70 -77 100 -175 104 -52 1 -87 -3 -111 -13z m148 -157 c20 -20
14 -37 -18 -53 -31 -16 -116 -20 -138 -6 -20 12 -10 44 18 58 32 16 122 17
138 1z m-298 -18 c45 -29 -73 -74 -133 -51 -31 12 -35 35 -9 50 22 13 122 14
142 1z"/>
<path d="M12325 1173 c-57 -11 -105 -89 -105 -170 0 -97 56 -166 188 -232 299
-149 477 -131 490 51 7 97 -35 165 -133 216 -58 30 -145 46 -145 26 0 -7 6
-14 13 -17 6 -2 9 -8 5 -12 -5 -5 -20 -3 -35 4 -16 7 -29 8 -32 3 -9 -14 -102
2 -115 20 -6 8 -18 17 -27 20 -18 7 -33 48 -18 48 19 0 8 27 -16 38 -26 12
-33 13 -70 5z m140 -162 c40 -16 93 -38 117 -49 23 -11 71 -32 106 -47 45 -20
64 -34 68 -52 8 -29 -11 -53 -41 -53 -26 0 -205 66 -298 110 -83 39 -104 61
-89 95 15 33 45 32 137 -4z"/>
<path d="M9890 1068 c-66 -46 -90 -147 -53 -225 25 -54 110 -132 177 -164 105
-50 189 -33 223 43 19 42 28 45 61 22 29 -20 28 -29 -12 -94 -19 -30 -32 -58
-30 -62 9 -15 106 -60 118 -55 9 4 96 137 140 214 4 7 -31 31 -96 67 -57 30
-128 71 -158 90 l-55 36 -33 -37 c-26 -30 -31 -43 -26 -65 7 -35 -10 -58 -43
-58 -62 0 -173 90 -173 141 0 51 52 47 112 -9 33 -30 52 -20 69 38 13 41 0 80
-26 80 -8 0 -19 9 -24 19 -23 43 -120 53 -171 19z"/>
<path d="M587 1023 c-4 -3 -7 -24 -7 -46 0 -50 8 -44 16 11 6 41 4 48 -9 35z"/>
<path d="M11520 1010 c0 -11 4 -20 9 -20 5 0 7 9 4 20 -3 11 -7 20 -9 20 -2 0
-4 -9 -4 -20z"/>
<path d="M2286 923 c-4 -9 -3 -20 2 -25 6 -6 11 1 14 16 6 29 -6 35 -16 9z"/>
<path d="M0 710 c0 -55 4 -90 10 -90 16 0 60 31 60 42 0 13 -60 138 -66 138
-2 0 -4 -40 -4 -90z"/>
<path d="M6813 605 c0 -7 6 -11 14 -8 7 3 13 6 13 8 0 2 -6 5 -13 8 -8 3 -14
-1 -14 -8z"/>
<path d="M6840 559 c0 -5 5 -7 10 -4 6 3 10 8 10 11 0 2 -4 4 -10 4 -5 0 -10
-5 -10 -11z"/>
<path d="M11080 518 c-30 -13 -99 -58 -119 -76 -21 -20 -101 -58 -151 -73 -25
-7 -49 -16 -54 -21 -6 -4 -16 -8 -22 -8 -7 0 -25 -4 -39 -10 l-26 -10 32 -45
c18 -25 38 -45 46 -45 17 0 18 -57 1 -63 -10 -3 -10 -7 1 -20 7 -9 17 -15 21
-12 4 3 13 -2 20 -10 16 -19 34 -20 27 -1 -4 9 3 16 19 19 19 3 28 -1 34 -17
7 -17 9 -18 9 -3 1 9 5 17 9 17 5 0 10 -8 11 -17 1 -10 3 -29 5 -43 1 -14 4
-37 4 -52 l2 -28 81 0 81 0 52 45 c152 129 335 188 561 180 147 -5 320 -36
360 -65 6 -4 28 -13 50 -20 62 -20 126 -55 183 -99 48 -39 55 -41 118 -41 l66
0 -16 22 c-9 13 -31 52 -48 87 -38 78 -51 195 -25 234 18 28 15 32 -73 108
-99 85 -102 86 -153 46 -80 -64 -163 -100 -312 -134 -116 -26 -357 -25 -440 1
-57 19 -143 56 -175 77 -8 5 -25 13 -37 19 -13 5 -23 17 -23 26 0 17 -28 44
-45 43 -5 0 -21 -5 -35 -11z"/>
<path d="M2100 318 c-30 -98 -36 -177 -17 -203 15 -20 15 -20 35 2 10 13 30
24 43 26 17 3 24 11 25 28 0 13 8 47 19 75 l18 52 -47 46 c-26 25 -49 46 -51
46 -2 0 -13 -33 -25 -72z"/>
<path d="M12609 262 c-27 -19 -24 -30 48 -158 l58 -104 68 0 69 0 -19 29 c-62
100 -74 124 -67 131 5 5 45 -4 89 -19 44 -16 95 -32 113 -36 l32 -7 0 67 0 67
-42 -4 c-46 -5 -175 12 -270 35 -50 12 -60 12 -79 -1z"/>
<path d="M2303 169 l-22 -40 25 -9 c13 -5 24 -16 24 -25 0 -25 30 -17 61 16
16 17 29 35 29 40 0 7 -80 59 -91 59 -2 0 -14 -18 -26 -41z"/>
<path d="M6090 150 c-30 -15 -98 -41 -150 -56 -52 -15 -99 -31 -104 -35 -6 -5
-5 -18 2 -34 l11 -25 164 1 164 0 12 50 c11 43 11 53 -6 86 -10 20 -22 38 -28
39 -5 2 -35 -10 -65 -26z"/>
<path d="M2499 83 c-6 -16 -13 -40 -16 -55 l-5 -28 183 0 184 1 -78 38 c-71
35 -190 71 -238 71 -12 0 -24 -11 -30 -27z"/>
<path d="M8053 88 c-45 -10 -50 -19 -33 -62 9 -25 13 -26 80 -26 69 0 71 1 64
23 -23 76 -34 83 -111 65z"/>
<path d="M11545 51 c-38 -7 -105 -36 -105 -46 0 -3 68 -5 151 -5 152 0 168 5
111 34 -36 18 -107 26 -157 17z"/>
<path d="M9666 25 l-16 -25 65 0 c36 0 65 2 65 5 0 6 -48 30 -76 39 -16 5 -26
0 -38 -19z"/>
<path d="M10770 41 c0 -11 30 -19 48 -14 23 8 12 23 -18 23 -16 0 -30 -4 -30
-9z"/>
</g>
</svg>
