<svg width="28" height="28" viewBox="0 0 28 28" fill="none" xmlns="http://www.w3.org/2000/svg">
<g clip-path="url(#clip0_5685_13128)">
<path d="M22.1667 3.50033H17.29C16.8 2.14699 15.5167 1.16699 14 1.16699C12.4833 1.16699 11.2 2.14699 10.71 3.50033H5.83333C4.55 3.50033 3.5 4.55033 3.5 5.83366V22.167C3.5 23.4503 4.55 24.5003 5.83333 24.5003H22.1667C23.45 24.5003 24.5 23.4503 24.5 22.167V5.83366C24.5 4.55033 23.45 3.50033 22.1667 3.50033ZM14 3.50033C14.6417 3.50033 15.1667 4.02533 15.1667 4.66699C15.1667 5.30866 14.6417 5.83366 14 5.83366C13.3583 5.83366 12.8333 5.30866 12.8333 4.66699C12.8333 4.02533 13.3583 3.50033 14 3.50033ZM11.6667 19.8337L7 15.167L8.645 13.522L11.6667 16.532L19.355 8.84366L21 10.5003L11.6667 19.8337Z" fill="white"/>
</g>
<defs>
<clipPath id="clip0_5685_13128">
<rect width="28" height="28" fill="white"/>
</clipPath>
</defs>
</svg>
