<svg width="29" height="30" viewBox="0 0 29 30" fill="none" xmlns="http://www.w3.org/2000/svg">
<path d="M21.2235 2.32368L21.3867 2.64954L22.618 5.92384C22.7147 6.18169 22.9182 6.38515 23.176 6.48189L26.3373 7.6679C27.7246 8.18836 28.4701 9.67075 28.1004 11.0733L28.0115 11.3524L26.5408 14.6051C26.4268 14.8558 26.4268 15.1435 26.5408 15.3942L27.9375 18.4683C28.5504 19.8172 28.0294 21.3926 26.7762 22.1229L26.4503 22.2862L23.176 23.5174C22.9182 23.6141 22.7147 23.8176 22.618 24.0755L21.432 27.2368C20.9115 28.624 19.4291 29.3695 18.0266 28.9998L17.7474 28.9109L14.4948 27.4402C14.2441 27.3263 13.9564 27.3263 13.7056 27.4402L10.6316 28.8369C9.28265 29.4499 7.70731 28.9288 6.97695 27.6756L6.81372 27.3498L5.58247 24.0755C5.48573 23.8176 5.28228 23.6141 5.02442 23.5174L1.86313 22.3314C0.475856 21.8109 -0.269624 20.3285 0.100046 18.926L0.188989 18.6469L1.6597 15.3942C1.77363 15.1435 1.77363 14.8558 1.6597 14.6051L0.262966 11.531C-0.349966 10.1821 0.171113 8.60672 1.42426 7.87636L1.75013 7.71314L5.02442 6.48189C5.28228 6.38515 5.48573 6.18169 5.58247 5.92384L6.76849 2.76255C7.28895 1.37527 8.77134 0.62979 10.1739 0.99946L10.453 1.0884L13.7056 2.55911C13.9564 2.67304 14.2441 2.67304 14.4948 2.55911L17.5688 1.16238C18.9178 0.549448 20.4932 1.07053 21.2235 2.32368ZM18.7221 10.0997L11.9179 17.876L9.43499 15.3931C9.06246 15.0206 8.45849 15.0206 8.08597 15.3931C7.71345 15.7656 7.71345 16.3696 8.08597 16.7421L11.2898 19.946C11.68 20.3361 12.3189 20.3149 12.6822 19.8996L20.1579 11.356C20.5048 10.9595 20.4646 10.3569 20.0681 10.01C19.6717 9.66304 19.069 9.70322 18.7221 10.0997Z" fill="white"/>
</svg>
