<svg width="28" height="28" viewBox="0 0 28 28" fill="none" xmlns="http://www.w3.org/2000/svg">
<g clip-path="url(#clip0_5685_13137)">
<path d="M14 9.33366C11.4217 9.33366 9.33332 11.422 9.33332 14.0003C9.33332 16.5787 11.4217 18.667 14 18.667C16.5783 18.667 18.6667 16.5787 18.6667 14.0003C18.6667 11.422 16.5783 9.33366 14 9.33366ZM24.43 12.8337C23.8933 7.96866 20.0317 4.10699 15.1667 3.57033V1.16699H12.8333V3.57033C7.96832 4.10699 4.10666 7.96866 3.56999 12.8337H1.16666V15.167H3.56999C4.10666 20.032 7.96832 23.8937 12.8333 24.4303V26.8337H15.1667V24.4303C20.0317 23.8937 23.8933 20.032 24.43 15.167H26.8333V12.8337H24.43ZM14 22.167C9.48499 22.167 5.83332 18.5153 5.83332 14.0003C5.83332 9.48533 9.48499 5.83366 14 5.83366C18.515 5.83366 22.1667 9.48533 22.1667 14.0003C22.1667 18.5153 18.515 22.167 14 22.167Z" fill="white"/>
</g>
<defs>
<clipPath id="clip0_5685_13137">
<rect width="28" height="28" fill="white"/>
</clipPath>
</defs>
</svg>
