<svg width="107" height="19" viewBox="0 0 107 19" fill="none" xmlns="http://www.w3.org/2000/svg">
<path d="M0.834872 2.53764V0.662642H13.9258V2.53764H8.43715V18.1172H6.32351V2.53764H0.834872ZM15.5558 18.1172V5.02628H17.4989V7.00355H17.6353C17.8739 6.35582 18.3058 5.83026 18.9308 5.42685C19.5558 5.02344 20.2603 4.82173 21.0444 4.82173C21.1921 4.82173 21.3768 4.82457 21.5984 4.83026C21.82 4.83594 21.9876 4.84446 22.1012 4.85582V6.90128C22.033 6.88423 21.8768 6.85866 21.6325 6.82457C21.3938 6.7848 21.141 6.76491 20.8739 6.76491C20.2376 6.76491 19.6694 6.89844 19.1694 7.16548C18.6751 7.42685 18.283 7.79048 17.9933 8.25639C17.7092 8.71662 17.5671 9.24219 17.5671 9.8331V18.1172H15.5558ZM32.7354 12.7649V5.02628H34.7468V18.1172H32.7354V15.9013H32.5991C32.2923 16.5661 31.815 17.1314 31.1673 17.5973C30.5195 18.0575 29.7013 18.2876 28.7127 18.2876C27.8945 18.2876 27.1673 18.1087 26.5309 17.7507C25.8945 17.3871 25.3945 16.8416 25.0309 16.1143C24.6673 15.3814 24.4854 14.4581 24.4854 13.3445V5.02628H26.4968V13.2081C26.4968 14.1626 26.7638 14.924 27.2979 15.4922C27.8377 16.0604 28.5252 16.3445 29.3604 16.3445C29.8604 16.3445 30.369 16.2166 30.886 15.9609C31.4087 15.7053 31.8462 15.3132 32.1985 14.7848C32.5565 14.2564 32.7354 13.5831 32.7354 12.7649ZM47.7035 7.9581L45.8967 8.46946C45.783 8.16832 45.6154 7.87571 45.3938 7.59162C45.1779 7.30185 44.8825 7.06321 44.5075 6.87571C44.1325 6.68821 43.6523 6.59446 43.0671 6.59446C42.266 6.59446 41.5984 6.77912 41.0643 7.14844C40.5359 7.51207 40.2717 7.97514 40.2717 8.53764C40.2717 9.03764 40.4535 9.43253 40.8171 9.7223C41.1808 10.0121 41.7489 10.2536 42.5217 10.4467L44.4648 10.924C45.6353 11.2081 46.5075 11.6428 47.0813 12.228C47.6552 12.8075 47.9421 13.5547 47.9421 14.4695C47.9421 15.2195 47.7262 15.8899 47.2944 16.4808C46.8683 17.0717 46.2717 17.5376 45.5046 17.8786C44.7376 18.2195 43.8455 18.3899 42.8285 18.3899C41.4933 18.3899 40.3881 18.1001 39.5131 17.5206C38.6381 16.9411 38.0842 16.0945 37.8512 14.9808L39.7603 14.5036C39.9421 15.2081 40.2859 15.7365 40.7915 16.0888C41.3029 16.4411 41.9705 16.6172 42.7944 16.6172C43.7319 16.6172 44.4762 16.4183 45.0273 16.0206C45.5842 15.6172 45.8626 15.1342 45.8626 14.5717C45.8626 14.1172 45.7035 13.7365 45.3853 13.4297C45.0671 13.1172 44.5785 12.8842 43.9194 12.7308L41.7376 12.2195C40.5387 11.9354 39.658 11.495 39.0955 10.8984C38.5387 10.2962 38.2603 9.54332 38.2603 8.63991C38.2603 7.90128 38.4677 7.24787 38.8825 6.67969C39.3029 6.11151 39.8739 5.66548 40.5955 5.34162C41.3228 5.01776 42.1467 4.85582 43.0671 4.85582C44.3626 4.85582 45.3796 5.13991 46.1183 5.7081C46.8626 6.27628 47.391 7.02628 47.7035 7.9581ZM56.663 5.02628V6.73082H49.8789V5.02628H56.663ZM51.8562 1.88991H53.8675V14.3672C53.8675 14.9354 53.9499 15.3615 54.1147 15.6456C54.2852 15.924 54.5011 16.1115 54.7624 16.2081C55.0295 16.299 55.3107 16.3445 55.6062 16.3445C55.8278 16.3445 56.0096 16.3331 56.1516 16.3104C56.2937 16.282 56.4073 16.2592 56.4925 16.2422L56.9016 18.049C56.7653 18.1001 56.5749 18.1513 56.3306 18.2024C56.0863 18.2592 55.7766 18.2876 55.4016 18.2876C54.8335 18.2876 54.2766 18.1655 53.7312 17.9212C53.1914 17.6768 52.7425 17.3047 52.3846 16.8047C52.0323 16.3047 51.8562 15.674 51.8562 14.9126V1.88991ZM60.2425 18.1172V0.662642H66.1403C67.5096 0.662642 68.6289 0.909801 69.4982 1.40412C70.3732 1.89276 71.021 2.55469 71.4414 3.38991C71.8619 4.22514 72.0721 5.15696 72.0721 6.18537C72.0721 7.21378 71.8619 8.14844 71.4414 8.98935C71.0266 9.83026 70.3846 10.5007 69.5153 11.0007C68.646 11.495 67.5323 11.7422 66.1744 11.7422H61.9471V9.86719H66.1062C67.0437 9.86719 67.7965 9.70526 68.3647 9.38139C68.9329 9.05753 69.3448 8.62003 69.6005 8.06889C69.8619 7.51207 69.9925 6.88423 69.9925 6.18537C69.9925 5.48651 69.8619 4.86151 69.6005 4.31037C69.3448 3.75923 68.93 3.32741 68.3562 3.01491C67.7823 2.69673 67.021 2.53764 66.0721 2.53764H62.3562V18.1172H60.2425ZM75.2042 18.1172V5.02628H77.2156V18.1172H75.2042ZM76.2269 2.84446C75.8349 2.84446 75.4968 2.71094 75.2127 2.44389C74.9343 2.17685 74.7951 1.85582 74.7951 1.48082C74.7951 1.10582 74.9343 0.784801 75.2127 0.517755C75.4968 0.25071 75.8349 0.117188 76.2269 0.117188C76.619 0.117188 76.9542 0.25071 77.2326 0.517755C77.5167 0.784801 77.6587 1.10582 77.6587 1.48082C77.6587 1.85582 77.5167 2.17685 77.2326 2.44389C76.9542 2.71094 76.619 2.84446 76.2269 2.84446ZM82.9109 0.662642V18.1172H80.8995V0.662642H82.9109ZM91.913 18.3899C90.7312 18.3899 89.6942 18.1087 88.8022 17.5462C87.9158 16.9837 87.2227 16.1967 86.7227 15.1854C86.2283 14.174 85.9812 12.9922 85.9812 11.6399C85.9812 10.2763 86.2283 9.08594 86.7227 8.06889C87.2227 7.05185 87.9158 6.26207 88.8022 5.69957C89.6942 5.13707 90.7312 4.85582 91.913 4.85582C93.0948 4.85582 94.1289 5.13707 95.0153 5.69957C95.9073 6.26207 96.6005 7.05185 97.0948 8.06889C97.5948 9.08594 97.8448 10.2763 97.8448 11.6399C97.8448 12.9922 97.5948 14.174 97.0948 15.1854C96.6005 16.1967 95.9073 16.9837 95.0153 17.5462C94.1289 18.1087 93.0948 18.3899 91.913 18.3899ZM91.913 16.5831C92.8107 16.5831 93.5494 16.353 94.1289 15.8928C94.7085 15.4325 95.1374 14.8274 95.4158 14.0774C95.6942 13.3274 95.8335 12.5149 95.8335 11.6399C95.8335 10.7649 95.6942 9.94957 95.4158 9.19389C95.1374 8.43821 94.7085 7.82741 94.1289 7.36151C93.5494 6.8956 92.8107 6.66264 91.913 6.66264C91.0153 6.66264 90.2766 6.8956 89.6971 7.36151C89.1175 7.82741 88.6886 8.43821 88.4102 9.19389C88.1317 9.94957 87.9925 10.7649 87.9925 11.6399C87.9925 12.5149 88.1317 13.3274 88.4102 14.0774C88.6886 14.8274 89.1175 15.4325 89.6971 15.8928C90.2766 16.353 91.0153 16.5831 91.913 16.5831ZM106.608 5.02628V6.73082H99.8242V5.02628H106.608ZM101.801 1.88991H103.813V14.3672C103.813 14.9354 103.895 15.3615 104.06 15.6456C104.23 15.924 104.446 16.1115 104.708 16.2081C104.975 16.299 105.256 16.3445 105.551 16.3445C105.773 16.3445 105.955 16.3331 106.097 16.3104C106.239 16.282 106.353 16.2592 106.438 16.2422L106.847 18.049C106.711 18.1001 106.52 18.1513 106.276 18.2024C106.032 18.2592 105.722 18.2876 105.347 18.2876C104.779 18.2876 104.222 18.1655 103.676 17.9212C103.137 17.6768 102.688 17.3047 102.33 16.8047C101.978 16.3047 101.801 15.674 101.801 14.9126V1.88991Z" fill="#10C95E"/>
</svg>
