<svg width="166" height="54" viewBox="0 0 166 54" fill="none" xmlns="http://www.w3.org/2000/svg">
<rect width="166" height="54" rx="9" fill="white"/>
<g clip-path="url(#clip0_6940_8733)">
<path d="M62.4758 14.9922H70.7462V16.5826H67.5653V25.1711H65.6567V16.5826H62.4758V14.9922ZM70.2691 17.696H71.8595V19.1274C71.8595 18.9683 72.0186 18.8093 72.1776 18.4912C72.3367 18.1731 72.4957 18.1731 72.6548 18.0141C72.8138 17.855 73.1319 17.696 73.2909 17.696C73.45 17.5369 73.7681 17.5369 74.0862 17.5369C74.2452 17.5369 74.4043 17.5369 74.4043 17.5369H74.5633V19.1274C74.4043 19.1274 74.4043 19.1274 74.2452 19.1274C74.0862 19.1274 74.0862 19.1274 73.9271 19.1274C73.609 19.1274 73.45 19.1274 73.1319 19.2864C72.8138 19.4455 72.6548 19.6045 72.4957 19.7636C72.3367 19.9226 72.1776 20.2407 72.0186 20.5588C71.8595 20.8769 71.8595 21.195 71.8595 21.6721V25.1711H70.2691V17.696ZM82.0385 25.1711H80.448V24.2168C80.2889 24.5349 79.9709 24.853 79.4937 25.1711C79.1756 25.3302 78.6985 25.4892 78.2214 25.4892C77.2671 25.4892 76.6309 25.3302 76.1538 24.694C75.6766 24.0578 75.5176 23.4216 75.5176 22.4673V17.855H77.108V22.3083C77.108 22.9445 77.2671 23.4216 77.4261 23.7397C77.7442 24.0578 78.0623 24.2168 78.5394 24.2168C78.8575 24.2168 79.1756 24.2168 79.3347 24.0578C79.4937 23.8987 79.8118 23.7397 79.8118 23.5807C79.9709 23.4216 80.1299 23.2626 80.1299 22.9445C80.1299 22.6264 80.289 22.4673 80.289 22.1492V17.855H81.8794V25.1711H82.0385ZM84.7422 22.7854C84.7422 23.2626 84.9013 23.5807 85.2194 23.7397C85.5375 23.8987 85.8556 24.0578 86.3327 24.0578C86.4917 24.0578 86.6508 24.0578 86.8098 24.0578C86.9689 24.0578 87.1279 24.0578 87.287 23.8987C87.446 23.8987 87.6051 23.7397 87.7641 23.5807C87.9231 23.4216 87.9231 23.2626 87.9231 23.1035C87.9231 22.9445 87.7641 22.7854 87.7641 22.6264C87.6051 22.4673 87.446 22.4673 87.287 22.3083C87.1279 22.3083 86.8098 22.1492 86.4917 22.1492C86.1736 22.1492 85.8556 21.9902 85.6965 21.9902C85.3784 21.9902 85.0603 21.8312 84.9013 21.6721C84.7422 21.5131 84.4241 21.5131 84.106 21.354C83.947 21.195 83.6289 21.0359 83.6289 20.7178C83.4699 20.3997 83.4699 20.0817 83.4699 19.7636C83.4699 19.2864 83.6289 18.9683 83.788 18.8093C83.947 18.6502 84.2651 18.3321 84.5832 18.1731C84.9013 18.0141 85.2194 17.855 85.5375 17.855C85.8556 17.855 86.3327 17.696 86.6508 17.696C86.9689 17.696 87.446 17.696 87.7641 17.855C88.0822 17.855 88.4003 18.0141 88.7184 18.1731C89.0365 18.3321 89.1955 18.6502 89.3546 18.8093C89.5136 19.1274 89.6726 19.4455 89.6726 19.9226H87.9231C87.9231 19.6045 87.6051 19.2864 87.446 19.1274C86.9689 18.9683 86.6508 18.8093 86.3327 18.8093C86.1736 18.8093 86.0146 18.8093 85.8556 18.8093C85.6965 18.8093 85.5375 18.8093 85.3784 18.9683C85.2194 18.9683 85.0603 19.1274 85.0603 19.1274C84.9013 19.2864 84.9013 19.2864 84.9013 19.4455C84.9013 19.6045 84.9013 19.7636 85.0603 19.9226C85.2194 20.0817 85.3784 20.0816 85.5375 20.2407C85.6965 20.2407 86.0146 20.3997 86.3327 20.3997C86.6508 20.3997 86.9689 20.5588 87.287 20.5588C87.6051 20.5588 87.9231 20.7178 88.0822 20.8769C88.4003 21.0359 88.5593 21.0359 88.8774 21.195C89.1955 21.354 89.3546 21.5131 89.3546 21.8312C89.5136 22.1492 89.5136 22.3083 89.5136 22.7854C89.5136 23.2626 89.3546 23.5807 89.1955 23.8987C89.0365 24.2168 88.7184 24.3759 88.4003 24.694C88.2412 25.0121 87.9231 25.1711 87.6051 25.1711C87.287 25.1711 86.8098 25.3302 86.4917 25.3302C86.0146 25.3302 85.5375 25.3302 85.2194 25.1711C84.9013 25.0121 84.4241 24.853 84.2651 24.694C83.947 24.5349 83.788 24.2168 83.6289 23.8987C83.3108 23.5807 83.1518 23.2626 83.1518 22.7854H84.7422ZM90.1498 17.696H91.4222V15.6284H93.0126V17.855H94.444V19.1274H93.0126V23.1035C93.0126 23.2626 93.0126 23.4216 93.0126 23.5807C93.0126 23.7397 93.0126 23.7397 93.1717 23.8987C93.3307 24.0578 93.3307 24.0578 93.3307 24.0578C93.4897 24.0578 93.6488 24.0578 93.8078 24.0578C93.9669 24.0578 93.9669 24.0578 94.1259 24.0578C94.285 24.0578 94.285 24.0578 94.444 24.0578V25.1711C94.285 25.1711 94.1259 25.1711 93.9669 25.1711C93.8078 25.1711 93.6488 25.1711 93.4897 25.1711C93.0126 25.1711 92.6945 25.1711 92.5355 25.0121C92.2174 25.0121 92.0583 24.853 91.8993 24.694C91.7402 24.5349 91.5812 24.3759 91.5812 24.0578C91.5812 23.8987 91.4222 23.5807 91.4222 23.2626V18.9683H90.1498V17.696ZM95.5573 17.696H97.1478V18.8093C97.3068 18.3321 97.6249 18.0141 98.1021 17.855C98.5792 17.696 98.8973 17.5369 99.3744 17.5369C100.011 17.5369 100.488 17.696 100.965 17.855C101.442 18.0141 101.76 18.3321 102.078 18.6502C102.396 18.9683 102.555 19.4455 102.714 19.9226C102.873 20.3997 102.873 20.8769 102.873 21.5131C102.873 21.9902 102.873 22.4673 102.714 22.9445C102.555 23.4216 102.396 23.7397 102.078 24.2168C101.76 24.5349 101.442 24.853 101.124 25.0121C100.647 25.1711 100.329 25.3302 99.6925 25.3302C99.5335 25.3302 99.2154 25.3302 99.0563 25.3302C98.8973 25.3302 98.5792 25.1711 98.4202 25.1711C98.2611 25.0121 97.943 25.0121 97.784 24.853C97.6249 24.694 97.4659 24.5349 97.3068 24.3759V28.0339H95.7164V17.696H95.5573ZM101.283 21.5131C101.283 21.195 101.283 20.8769 101.124 20.5588C100.965 20.2407 100.965 19.9226 100.806 19.7636C100.647 19.6045 100.488 19.2864 100.17 19.1274C99.8516 18.9683 99.6925 18.9683 99.2154 18.9683C98.5792 18.9683 97.943 19.1274 97.6249 19.6045C97.3068 20.0817 97.1478 20.7178 97.1478 21.5131C97.1478 21.8312 97.1478 22.3083 97.3068 22.4673C97.4659 22.7854 97.4659 23.1035 97.784 23.2626C97.943 23.4216 98.1021 23.7397 98.4202 23.7397C98.7383 23.8987 98.8973 23.8987 99.2154 23.8987C99.5335 23.8987 99.8516 23.8987 100.17 23.7397C100.488 23.5807 100.647 23.4216 100.806 23.1035C100.965 22.7854 101.124 22.6264 101.124 22.3083C101.124 22.1492 101.283 21.8312 101.283 21.5131ZM104.146 14.9922H105.736V16.5826H104.146V14.9922ZM104.146 17.696H105.736V25.1711H104.146V17.696ZM107.168 14.9922H108.758V25.1711H107.168V14.9922ZM113.689 25.3302C113.052 25.3302 112.575 25.1711 112.098 25.0121C111.621 24.853 111.303 24.5349 110.985 24.2168C110.667 23.8987 110.349 23.4216 110.19 22.9445C110.031 22.4673 109.871 21.9902 109.871 21.354C109.871 20.7178 110.031 20.2407 110.19 19.7636C110.349 19.2864 110.667 18.8093 110.985 18.4912C111.303 18.1731 111.621 17.855 112.098 17.696C112.575 17.5369 113.052 17.3779 113.689 17.3779C114.325 17.3779 114.802 17.5369 115.279 17.696C115.756 17.855 116.074 18.1731 116.392 18.4912C116.71 18.8093 117.029 19.2864 117.188 19.7636C117.347 20.2407 117.506 20.7178 117.506 21.354C117.506 21.9902 117.347 22.4673 117.188 22.9445C117.029 23.4216 116.71 23.8987 116.392 24.2168C116.074 24.5349 115.756 24.853 115.279 25.0121C114.802 25.1711 114.325 25.3302 113.689 25.3302ZM113.689 24.0578C114.007 24.0578 114.325 24.0578 114.643 23.8987C114.961 23.7397 115.12 23.5807 115.279 23.2626C115.438 22.9445 115.597 22.7854 115.597 22.4673C115.597 22.1492 115.756 21.8312 115.756 21.5131C115.756 21.195 115.756 20.8769 115.597 20.5588C115.597 20.2407 115.438 19.9226 115.279 19.7636C115.12 19.6045 114.961 19.2864 114.643 19.1274C114.325 18.9683 114.007 18.9683 113.689 18.9683C113.37 18.9683 113.052 18.9683 112.734 19.1274C112.416 19.2864 112.257 19.4455 112.098 19.7636C111.939 20.0817 111.78 20.2407 111.78 20.5588C111.78 20.8769 111.621 21.195 111.621 21.5131C111.621 21.8312 111.621 22.1492 111.78 22.4673C111.78 22.7854 111.939 23.1035 112.098 23.2626C112.257 23.5807 112.416 23.7397 112.734 23.8987C113.052 23.8987 113.37 24.0578 113.689 24.0578ZM117.983 17.696H119.255V15.6284H120.846V17.855H122.277V19.1274H120.846V23.1035C120.846 23.2626 120.846 23.4216 120.846 23.5807C120.846 23.7397 120.846 23.7397 121.005 23.8987C121.164 24.0578 121.164 24.0578 121.164 24.0578C121.323 24.0578 121.482 24.0578 121.641 24.0578C121.8 24.0578 121.8 24.0578 121.959 24.0578C122.118 24.0578 122.118 24.0578 122.277 24.0578V25.1711C122.118 25.1711 121.959 25.1711 121.8 25.1711C121.641 25.1711 121.482 25.1711 121.323 25.1711C120.846 25.1711 120.528 25.1711 120.368 25.0121C120.05 25.0121 119.891 24.853 119.732 24.694C119.573 24.5349 119.414 24.3759 119.414 24.0578C119.414 23.8987 119.255 23.5807 119.255 23.2626V18.9683H117.983V17.696Z" fill="#191919"/>
<path d="M60.5673 14.992H53.0921L50.8655 7.83496L48.4798 14.992H41.1637L47.0484 19.2863L44.8217 26.4433L50.8655 21.99L56.7502 26.4433L54.5235 19.2863L60.5673 14.992Z" fill="#00B67A"/>
<path d="M55.0007 20.8766L54.5235 19.2861L50.8655 21.9899L55.0007 20.8766Z" fill="#005128"/>
<path d="M56.4321 30.8965H41.1637V46.1649H56.4321V30.8965Z" fill="#00B67A"/>
<path d="M72.8138 30.8965H57.5454V46.1649H72.8138V30.8965Z" fill="#00B67A"/>
<path d="M89.3546 30.8965H74.0862V46.1649H89.3546V30.8965Z" fill="#00B67A"/>
<path d="M105.736 30.8965H90.4679V46.1649H105.736V30.8965Z" fill="#00B67A"/>
<path d="M122.277 30.8965H107.009V46.1649H122.277V30.8965Z" fill="#00B67A"/>
<path d="M48.6388 41.0756L51.0245 40.4394L51.9788 43.4613L48.6388 41.0756ZM54.0464 37.2585H49.9112L48.6388 33.4414L47.3665 37.2585H43.3903L46.7303 39.6442L45.4579 43.4613L48.7979 41.0756L50.8655 39.6442L54.0464 37.2585Z" fill="white"/>
<path d="M65.1796 41.0756L67.5653 40.4394L68.5195 43.4613L65.1796 41.0756ZM70.4281 37.2585H66.2929L65.0205 33.4414L63.7482 37.2585H59.613L62.9529 39.6442L61.6806 43.4613L65.0205 41.0756L67.0881 39.6442L70.4281 37.2585Z" fill="white"/>
<path d="M81.7203 41.0756L84.106 40.4394L85.0603 43.4613L81.7203 41.0756ZM86.9689 37.2585H82.8337L81.5613 33.4414L80.2889 37.2585H76.1537L79.4937 39.6442L78.3804 43.4613L81.7203 41.0756L83.7879 39.6442L86.9689 37.2585Z" fill="white"/>
<path d="M98.1021 41.0756L100.488 40.4394L101.442 43.4613L98.1021 41.0756ZM103.51 37.2585H99.3744L98.1021 33.4414L96.8297 37.2585H92.6945L96.0345 39.6442L94.7621 43.4613L98.1021 41.0756L100.17 39.6442L103.51 37.2585Z" fill="white"/>
<path d="M114.643 41.0756L117.029 40.4394L117.983 43.4613L114.643 41.0756ZM119.891 37.2585H115.756L114.484 33.4414L113.37 37.2585H109.235L112.575 39.6442L111.303 43.4613L114.643 41.0756L116.71 39.6442L119.891 37.2585Z" fill="white"/>
</g>
<defs>
<clipPath id="clip0_6940_8733">
<rect width="82.6667" height="40" fill="white" transform="translate(40 7)"/>
</clipPath>
</defs>
</svg>
