<svg width="18" height="18" viewBox="0 0 18 18" fill="none" xmlns="http://www.w3.org/2000/svg">
<path d="M13.1236 10.809C12.9438 10.7191 11.7753 10.1798 11.5955 10.0899C11.4157 10 11.236 10 11.0562 10.1798C10.8764 10.3596 10.5169 10.8989 10.3371 11.0787C10.2472 11.2584 10.0674 11.2584 9.88764 11.1685C9.25843 10.8989 8.62921 10.5393 8.08989 10.0899C7.64045 9.64045 7.19101 9.10112 6.83146 8.5618C6.74157 8.38202 6.83146 8.20225 6.92135 8.11236C7.01124 8.02247 7.10112 7.8427 7.2809 7.75281C7.37079 7.66292 7.46067 7.48315 7.46067 7.39326C7.55056 7.30337 7.55056 7.1236 7.46067 7.03371C7.37079 6.94382 6.92135 5.86517 6.74157 5.41573C6.65169 4.78652 6.47191 4.78652 6.29214 4.78652H5.8427C5.66292 4.78652 5.39326 4.96629 5.30337 5.05618C4.76405 5.59551 4.49438 6.22472 4.49438 6.94382C4.58427 7.75281 4.85393 8.5618 5.39326 9.2809C6.38202 10.7191 7.64045 11.8876 9.16854 12.6067C9.61798 12.7865 9.97753 12.9663 10.427 13.0562C10.8764 13.236 11.3258 13.236 11.8652 13.1461C12.4944 13.0562 13.0337 12.6067 13.3933 12.0674C13.573 11.7079 13.573 11.3483 13.4831 10.9888L13.1236 10.809ZM15.3708 2.62921C11.8652 -0.876405 6.20225 -0.876405 2.69663 2.62921C-0.179775 5.50562 -0.719101 9.91011 1.25843 13.4157L0 18L4.76405 16.7416C6.11236 17.4607 7.55056 17.8202 8.98876 17.8202C13.9326 17.8202 17.8876 13.8652 17.8876 8.92135C17.9775 6.58427 16.9888 4.33708 15.3708 2.62921ZM12.9438 15.2135C11.7753 15.9326 10.427 16.382 8.98876 16.382C7.64045 16.382 6.38202 16.0225 5.21348 15.3933L4.94382 15.2135L2.1573 15.9326L2.8764 13.236L2.69663 12.9663C0.539326 9.37079 1.61798 4.8764 5.1236 2.62921C8.62921 0.382023 13.1236 1.55056 15.2809 4.96629C17.4382 8.47191 16.4494 13.0562 12.9438 15.2135Z" fill="white"/>
</svg>
