<svg width="53" height="48" viewBox="0 0 53 48" fill="none" xmlns="http://www.w3.org/2000/svg">
<rect width="53" height="48" fill="#1E1E1E"/>
<g clip-path="url(#clip0_0_1)">
<rect width="1440" height="5479" transform="translate(-133 -1381)" fill="#F4F8FC"/>
<g filter="url(#filter0_d_0_1)">
<path d="M-33 -16C-33 -29.2548 -22.2548 -40 -9 -40H223C236.255 -40 247 -29.2548 247 -16V286C247 299.255 236.255 310 223 310H-9C-22.2548 310 -33 299.255 -33 286V-16Z" fill="white"/>
</g>
<path d="M26.2133 0C11.8847 0 0.266602 12.525 0.266602 27.9875C0.266602 35.1125 2.73385 41.6125 6.78802 46.55C6.91544 46.7 7.03127 46.85 7.15869 46.9875C7.71469 47.625 8.49077 48 9.3016 48C10.124 48 10.9001 47.625 11.4561 46.975C15.1164 42.675 20.3753 39.9875 26.2133 39.9875C32.0513 39.9875 37.3101 42.6875 40.9704 46.975C41.5264 47.625 42.3025 48 43.1249 48C43.9358 48 44.7118 47.6375 45.2679 46.9875C45.3953 46.8375 45.5111 46.7 45.6385 46.55C49.6927 41.6125 52.1599 35.1125 52.1599 27.9875C52.1599 12.525 40.5419 0 26.2133 0ZM24.5916 5.7375C24.5916 4.775 25.3214 3.9875 26.2133 3.9875C27.1052 3.9875 27.8349 4.775 27.8349 5.7375V10.2375C27.8349 11.2 27.1052 11.9875 26.2133 11.9875C25.3214 11.9875 24.5916 11.2 24.5916 10.2375V5.7375ZM9.76493 29.7375H5.59493C4.70302 29.7375 3.97327 28.95 3.97327 27.9875C3.97327 27.025 4.70302 26.2375 5.59493 26.2375H9.76493C10.6569 26.2375 11.3866 27.025 11.3866 27.9875C11.3866 28.95 10.6569 29.7375 9.76493 29.7375ZM15.7304 16.675C15.1049 17.35 14.0624 17.35 13.4369 16.675L10.4831 13.5C9.8576 12.825 9.8576 11.7 10.4831 11.025C11.1086 10.35 12.1511 10.35 12.7766 11.025L15.7304 14.2125C16.3559 14.8875 16.3559 16 15.7304 16.675ZM34.3332 20.9875L28.8311 30.425C28.611 30.75 28.333 31.0625 28.0203 31.3C26.4565 32.5125 24.2789 32.1125 23.1553 30.425C22.0317 28.7375 22.4024 26.3875 23.9661 25.175L32.7115 19.2375C33.1054 18.9375 33.6498 18.925 34.0668 19.2375C34.588 19.6375 34.7038 20.425 34.3332 20.9875ZM38.9897 16.675C38.3642 17.35 37.3217 17.35 36.6962 16.675C36.0707 16 36.0707 14.875 36.6962 14.2L39.6499 11.0125C40.2754 10.3375 41.3179 10.3375 41.9434 11.0125C42.5689 11.6875 42.5689 12.8125 41.9434 13.4875L38.9897 16.675ZM46.8316 29.7375H42.6616C41.7697 29.7375 41.0399 28.95 41.0399 27.9875C41.0399 27.025 41.7697 26.2375 42.6616 26.2375H46.8316C47.7235 26.2375 48.4533 27.025 48.4533 27.9875C48.4533 28.95 47.7235 29.7375 46.8316 29.7375Z" fill="#004195"/>
</g>
<defs>
<filter id="filter0_d_0_1" x="-45" y="-40" width="304" height="374" filterUnits="userSpaceOnUse" color-interpolation-filters="sRGB">
<feFlood flood-opacity="0" result="BackgroundImageFix"/>
<feColorMatrix in="SourceAlpha" type="matrix" values="0 0 0 0 0 0 0 0 0 0 0 0 0 0 0 0 0 0 127 0" result="hardAlpha"/>
<feOffset dy="12"/>
<feGaussianBlur stdDeviation="6"/>
<feComposite in2="hardAlpha" operator="out"/>
<feColorMatrix type="matrix" values="0 0 0 0 0 0 0 0 0 0 0 0 0 0 0 0 0 0 0.0509804 0"/>
<feBlend mode="normal" in2="BackgroundImageFix" result="effect1_dropShadow_0_1"/>
<feBlend mode="normal" in="SourceGraphic" in2="effect1_dropShadow_0_1" result="shape"/>
</filter>
<clipPath id="clip0_0_1">
<rect width="1440" height="5479" fill="white" transform="translate(-133 -1381)"/>
</clipPath>
</defs>
</svg>
