<svg width="53" height="48" viewBox="0 0 53 48" fill="none" xmlns="http://www.w3.org/2000/svg">
<path d="M26.6933 0C12.2101 0 0.466675 12.525 0.466675 27.9875C0.466675 35.1125 2.96055 41.6125 7.05847 46.55C7.18726 46.7 7.30434 46.85 7.43313 46.9875C7.99513 47.625 8.77959 48 9.59917 48C10.4305 48 11.2149 47.625 11.7769 46.975C15.4768 42.675 20.7923 39.9875 26.6933 39.9875C32.5943 39.9875 37.9099 42.6875 41.6098 46.975C42.1718 47.625 42.9562 48 43.7875 48C44.6071 48 45.3915 47.6375 45.9535 46.9875C46.0823 46.8375 46.1994 46.7 46.3282 46.55C50.4261 41.6125 52.92 35.1125 52.92 27.9875C52.92 12.525 41.1766 0 26.6933 0ZM25.0542 5.7375C25.0542 4.775 25.7918 3.9875 26.6933 3.9875C27.5949 3.9875 28.3325 4.775 28.3325 5.7375V10.2375C28.3325 11.2 27.5949 11.9875 26.6933 11.9875C25.7918 11.9875 25.0542 11.2 25.0542 10.2375V5.7375ZM10.0675 29.7375H5.85251C4.95097 29.7375 4.21334 28.95 4.21334 27.9875C4.21334 27.025 4.95097 26.2375 5.85251 26.2375H10.0675C10.9691 26.2375 11.7067 27.025 11.7067 27.9875C11.7067 28.95 10.9691 29.7375 10.0675 29.7375ZM16.0973 16.675C15.4651 17.35 14.4113 17.35 13.7791 16.675L10.7934 13.5C10.1612 12.825 10.1612 11.7 10.7934 11.025C11.4257 10.35 12.4794 10.35 13.1117 11.025L16.0973 14.2125C16.7295 14.8875 16.7295 16 16.0973 16.675ZM34.9009 20.9875L29.3394 30.425C29.117 30.75 28.836 31.0625 28.5198 31.3C26.9392 32.5125 24.738 32.1125 23.6023 30.425C22.4666 28.7375 22.8413 26.3875 24.4219 25.175L33.2617 19.2375C33.6598 18.9375 34.2101 18.925 34.6316 19.2375C35.1585 19.6375 35.2755 20.425 34.9009 20.9875ZM39.6076 16.675C38.9754 17.35 37.9216 17.35 37.2894 16.675C36.6571 16 36.6571 14.875 37.2894 14.2L40.275 11.0125C40.9073 10.3375 41.961 10.3375 42.5933 11.0125C43.2255 11.6875 43.2255 12.8125 42.5933 13.4875L39.6076 16.675ZM47.5342 29.7375H43.3192C42.4176 29.7375 41.68 28.95 41.68 27.9875C41.68 27.025 42.4176 26.2375 43.3192 26.2375H47.5342C48.4357 26.2375 49.1733 27.025 49.1733 27.9875C49.1733 28.95 48.4357 29.7375 47.5342 29.7375Z" fill="#004195"/>
</svg>
